<svg width="1200" height="227" viewBox="0 0 1200 227" fill="none" xmlns="http://www.w3.org/2000/svg">
<mask id="mask0_38_2497" style="mask-type:alpha" maskUnits="userSpaceOnUse" x="0" y="0" width="1200" height="227">
<rect y="0.149902" width="1200" height="226" rx="10" fill="#D9D9D9"/>
</mask>
<g mask="url(#mask0_38_2497)">
<g filter="url(#filter0_f_38_2497)">
<ellipse cx="979.773" cy="243.546" rx="399" ry="199" transform="rotate(-39.1182 979.773 243.546)" fill="url(#paint0_radial_38_2497)"/>
</g>
<g filter="url(#filter1_f_38_2497)">
<ellipse cx="964.001" cy="224.15" rx="399" ry="224" transform="rotate(-39.1182 964.001 224.15)" fill="url(#paint1_radial_38_2497)" fill-opacity="0.3"/>
</g>
<g opacity="0.8">
<rect x="0.000976562" y="-1.8501" width="1200" height="3.00001" fill="#232323"/>
<rect x="0.000976562" y="3.1499" width="1200" height="3.00001" fill="#232323"/>
<rect x="0.000976562" y="8.1499" width="1200" height="3.00001" fill="#232323"/>
<rect x="0.000976562" y="13.1499" width="1200" height="3.00001" fill="#232323"/>
<rect x="0.000976562" y="18.1499" width="1200" height="3.00001" fill="#232323"/>
<rect x="0.000976562" y="23.1499" width="1200" height="3.00001" fill="#232323"/>
<rect x="0.000976562" y="28.1499" width="1200" height="3.00001" fill="#232323"/>
<rect x="0.000976562" y="33.1499" width="1200" height="3.00001" fill="#232323"/>
<rect x="0.000976562" y="38.1499" width="1200" height="3.00001" fill="#232323"/>
<rect x="0.000976562" y="43.1499" width="1200" height="3.00001" fill="#232323"/>
<rect x="0.000976562" y="48.1499" width="1200" height="3.00001" fill="#232323"/>
<rect x="0.000976562" y="53.1499" width="1200" height="3.00001" fill="#232323"/>
<rect x="0.000976562" y="58.1499" width="1200" height="3.00001" fill="#232323"/>
<rect x="0.000976562" y="63.1499" width="1200" height="3.00001" fill="#232323"/>
<rect x="0.000976562" y="68.1499" width="1200" height="3.00001" fill="#232323"/>
<rect x="0.000976562" y="73.1499" width="1200" height="3.00001" fill="#232323"/>
<rect x="0.000976562" y="78.1499" width="1200" height="3.00001" fill="#232323"/>
<rect x="0.000976562" y="83.1499" width="1200" height="3.00001" fill="#232323"/>
<rect x="0.000976562" y="88.1499" width="1200" height="3.00001" fill="#232323"/>
<rect x="0.000976562" y="93.1499" width="1200" height="3.00001" fill="#232323"/>
<rect x="0.000976562" y="98.1499" width="1200" height="3.00001" fill="#232323"/>
<rect x="0.000976562" y="103.15" width="1200" height="3.00001" fill="#232323"/>
<rect x="0.000976562" y="108.15" width="1200" height="3.00001" fill="#232323"/>
<rect x="0.000976562" y="113.15" width="1200" height="3.00001" fill="#232323"/>
<rect x="0.000976562" y="118.15" width="1200" height="3.00001" fill="#232323"/>
<rect x="0.000976562" y="123.15" width="1200" height="3.00001" fill="#232323"/>
<rect x="0.000976562" y="128.15" width="1200" height="3.00001" fill="#232323"/>
<rect x="0.000976562" y="133.15" width="1200" height="3.00001" fill="#232323"/>
<rect x="0.000976562" y="138.15" width="1200" height="3.00001" fill="#232323"/>
<rect x="0.000976562" y="143.15" width="1200" height="3.00001" fill="#232323"/>
<rect x="0.000976562" y="148.15" width="1200" height="3.00001" fill="#232323"/>
<rect x="0.000976562" y="153.15" width="1200" height="3.00001" fill="#232323"/>
<rect x="0.000976562" y="158.15" width="1200" height="3.00001" fill="#232323"/>
<rect x="0.000976562" y="163.15" width="1200" height="3.00001" fill="#232323"/>
<rect x="0.000976562" y="168.15" width="1200" height="3.00001" fill="#232323"/>
<rect x="0.000976562" y="173.15" width="1200" height="3.00001" fill="#232323"/>
<rect x="0.000976562" y="178.15" width="1200" height="3.00001" fill="#232323"/>
<rect x="0.000976562" y="183.15" width="1200" height="3.00001" fill="#232323"/>
<rect x="0.000976562" y="188.15" width="1200" height="3.00001" fill="#232323"/>
<rect x="0.000976562" y="193.15" width="1200" height="3.00001" fill="#232323"/>
<rect x="0.000976562" y="198.15" width="1200" height="3.00001" fill="#232323"/>
<rect x="0.000976562" y="203.15" width="1200" height="3.00001" fill="#232323"/>
<rect x="0.000976562" y="208.15" width="1200" height="3.00001" fill="#232323"/>
<rect x="0.000976562" y="213.15" width="1200" height="3.00001" fill="#232323"/>
<rect x="0.000976562" y="218.15" width="1200" height="3.00001" fill="#232323"/>
<rect x="0.000976562" y="223.15" width="1200" height="3.00001" fill="#232323"/>
</g>
</g>
<defs>
<filter id="filter0_f_38_2497" x="605.63" y="-91.8079" width="748.287" height="670.708" filterUnits="userSpaceOnUse" color-interpolation-filters="sRGB">
<feFlood flood-opacity="0" result="BackgroundImageFix"/>
<feBlend mode="normal" in="SourceGraphic" in2="BackgroundImageFix" result="shape"/>
<feGaussianBlur stdDeviation="20" result="effect1_foregroundBlur_38_2497"/>
</filter>
<filter id="filter1_f_38_2497" x="562.396" y="-143.002" width="803.21" height="734.305" filterUnits="userSpaceOnUse" color-interpolation-filters="sRGB">
<feFlood flood-opacity="0" result="BackgroundImageFix"/>
<feBlend mode="normal" in="SourceGraphic" in2="BackgroundImageFix" result="shape"/>
<feGaussianBlur stdDeviation="30.6122" result="effect1_foregroundBlur_38_2497"/>
</filter>
<radialGradient id="paint0_radial_38_2497" cx="0" cy="0" r="1" gradientUnits="userSpaceOnUse" gradientTransform="translate(979.773 207.122) rotate(-90) scale(212.326 425.719)">
<stop offset="0.492059" stop-color="#191919"/>
<stop offset="0.603566" stop-color="#E373FF"/>
<stop offset="0.713566" stop-color="#9B66FF"/>
<stop offset="0.793566" stop-color="#7D78FF"/>
<stop offset="0.938566" stop-color="#00FFE0"/>
</radialGradient>
<radialGradient id="paint1_radial_38_2497" cx="0" cy="0" r="1" gradientUnits="userSpaceOnUse" gradientTransform="translate(964.001 224.15) rotate(90) scale(265.5 472.922)">
<stop offset="0.492059" stop-color="#191919"/>
<stop offset="0.673934" stop-color="#E373FF"/>
<stop offset="0.774984" stop-color="#9B66FF"/>
<stop offset="0.879741" stop-color="#7D78FF"/>
<stop offset="0.993566" stop-color="#7D78FF"/>
</radialGradient>
</defs>
</svg>
