<svg width="159" height="126" viewBox="0 0 159 126" fill="none" xmlns="http://www.w3.org/2000/svg">
<path d="M157.6 115.099L104.7 6.09921C103.1 2.79921 99.7 0.699219 96 0.699219H62.9C58.9 0.699219 55.3 2.99921 53.5 6.59921L36.5 41.9992C34.4 46.3992 37.6 51.4992 42.5 51.4992H66.2999C69.2 51.4992 71.9 49.7992 73.1 47.1992L79.1 34.6992L110.1 99.0992L66.9 67.8992C66 67.1992 64.8999 66.8992 63.7999 66.8992C58.0999 66.8992 39.6 66.7992 29.4 66.8992C19.2 66.9992 23.9 68.5992 22.6 71.1992L1.29995 115.499C-0.900049 120.199 2.49997 125.599 7.59997 125.599H30.2C33.5 125.599 36.5 123.699 38 120.699L54.7 85.8992L101.4 121.699C104.7 124.299 108.8 125.599 113 125.599H151.2C156.5 125.599 160 119.999 157.7 115.299L157.6 115.099Z" fill="white"/>
</svg>
