<svg width="320" height="200" viewBox="0 0 320 200" fill="none" xmlns="http://www.w3.org/2000/svg">
<mask id="mask0_38_203" style="mask-type:alpha" maskUnits="userSpaceOnUse" x="0" y="0" width="320" height="200">
<rect width="320" height="200" rx="6" fill="#232323"/>
</mask>
<g mask="url(#mask0_38_203)">
<path d="M163.29 220.387L283.588 150.934L233.373 121.945L163.48 162.302L93.3973 121.838L43 150.934L163.29 220.387Z" fill="url(#paint0_linear_38_203)"/>
<path d="M276.743 154.887L283.588 150.934L233.373 121.944L226.535 125.898L276.743 154.887Z" fill="#232323"/>
<path d="M283.588 150.934L233.373 121.944" stroke="#E373FF" stroke-width="0.75888" stroke-linecap="round" stroke-linejoin="round"/>
<path d="M49.8451 154.888L100.235 125.792L93.3973 121.838L43 150.934L49.8451 154.888Z" fill="#4331E8"/>
<path d="M49.8451 154.888L100.235 125.792L93.3973 121.838L43 150.934L49.8451 154.888Z" fill="#232323"/>
<path d="M93.3973 121.838L43 150.934" stroke="#E373FF" stroke-width="0.75888" stroke-linecap="round" stroke-linejoin="round"/>
<path d="M163.153 158.363V167.447C163.153 168.403 163.768 169.359 165.02 170.088C167.517 171.545 171.584 171.545 174.104 170.088C175.364 169.359 175.994 168.403 176.001 167.447V148.68" stroke="#E373FF" stroke-width="0.75888" stroke-linecap="round" stroke-linejoin="round"/>
<path d="M218.521 130.52V136.765C218.521 137.722 219.136 138.678 220.388 139.406C222.885 140.863 226.953 140.863 229.472 139.406C230.732 138.678 231.362 137.722 231.369 136.765V123.105" stroke="#E373FF" stroke-width="0.75888" stroke-linecap="round" stroke-linejoin="round"/>
<path d="M140.44 148.999V169.185C140.44 170.141 141.055 171.097 142.307 171.826C144.804 173.283 148.872 173.283 151.391 171.826C152.651 171.097 153.281 170.141 153.288 169.185V156.413" stroke="#E373FF" stroke-width="0.75888" stroke-linecap="round" stroke-linejoin="round"/>
<path d="M93.1016 121.671V138.617C93.1016 139.573 93.7163 140.53 94.9684 141.258C97.4651 142.715 101.533 142.715 104.052 141.258C105.312 140.53 105.942 139.573 105.949 138.617V129.086" stroke="#E373FF" stroke-width="0.75888" stroke-linecap="round" stroke-linejoin="round"/>
<path d="M174.066 174.285C171.547 172.828 167.487 172.828 164.99 174.285C162.493 175.742 162.501 178.109 165.02 179.567C167.54 181.024 171.6 181.024 174.104 179.567C176.601 178.109 176.593 175.742 174.074 174.285H174.066Z" stroke="#E373FF" stroke-width="0.75888" stroke-linecap="round" stroke-linejoin="round"/>
<path d="M175.963 176.926V190.676C175.963 191.625 175.341 192.581 174.096 193.302C171.6 194.759 167.532 194.759 165.012 193.302C163.753 192.574 163.115 191.61 163.115 190.646V176.918" stroke="#E373FF" stroke-width="0.75888" stroke-linecap="round" stroke-linejoin="round"/>
<path d="M140.44 206.431V188.293" stroke="#E373FF" stroke-width="0.75888" stroke-linecap="round" stroke-linejoin="round"/>
<path d="M229.465 145.144C226.945 143.687 222.885 143.687 220.388 145.144C217.892 146.601 217.899 148.968 220.419 150.425C222.938 151.882 226.998 151.882 229.503 150.425C231.999 148.968 231.992 146.601 229.472 145.144H229.465Z" stroke="#E373FF" stroke-width="0.75888" stroke-linecap="round" stroke-linejoin="round"/>
<path d="M231.362 147.784V156.223C231.362 157.172 230.739 158.128 229.495 158.849C226.998 160.306 222.93 160.306 220.411 158.849C219.151 158.12 218.514 157.157 218.514 156.193V147.777" stroke="#E373FF" stroke-width="0.75888" stroke-linecap="round" stroke-linejoin="round"/>
<path d="M163.48 13.2881L43.3721 82.6346L163.48 151.981L283.588 82.6346L163.48 13.2881Z" fill="url(#paint1_linear_38_203)"/>
<path d="M114.661 79.1132C114.954 79.1132 115.192 78.8754 115.192 78.582C115.192 78.2886 114.954 78.0508 114.661 78.0508C114.368 78.0508 114.13 78.2886 114.13 78.582C114.13 78.8754 114.368 79.1132 114.661 79.1132Z" fill="#E373FF"/>
<path d="M120.762 82.6342C121.055 82.6342 121.293 82.3964 121.293 82.103C121.293 81.8096 121.055 81.5718 120.762 81.5718C120.468 81.5718 120.23 81.8096 120.23 82.103C120.23 82.3964 120.468 82.6342 120.762 82.6342Z" fill="#E373FF"/>
<path d="M114.661 86.1557C114.954 86.1557 115.192 85.9179 115.192 85.6245C115.192 85.3311 114.954 85.0933 114.661 85.0933C114.368 85.0933 114.13 85.3311 114.13 85.6245C114.13 85.9179 114.368 86.1557 114.661 86.1557Z" fill="#E373FF"/>
<path d="M126.863 86.1557C127.157 86.1557 127.394 85.9179 127.394 85.6245C127.394 85.3311 127.157 85.0933 126.863 85.0933C126.57 85.0933 126.332 85.3311 126.332 85.6245C126.332 85.9179 126.57 86.1557 126.863 86.1557Z" fill="#E373FF"/>
<path d="M120.762 89.6845C121.055 89.6845 121.293 89.4467 121.293 89.1533C121.293 88.8599 121.055 88.6221 120.762 88.6221C120.468 88.6221 120.23 88.8599 120.23 89.1533C120.23 89.4467 120.468 89.6845 120.762 89.6845Z" fill="#E373FF"/>
<path d="M114.661 93.206C114.954 93.206 115.192 92.9682 115.192 92.6748C115.192 92.3814 114.954 92.1436 114.661 92.1436C114.368 92.1436 114.13 92.3814 114.13 92.6748C114.13 92.9682 114.368 93.206 114.661 93.206Z" fill="#E373FF"/>
<path d="M132.965 89.6845C133.258 89.6845 133.496 89.4467 133.496 89.1533C133.496 88.8599 133.258 88.6221 132.965 88.6221C132.671 88.6221 132.434 88.8599 132.434 89.1533C132.434 89.4467 132.671 89.6845 132.965 89.6845Z" fill="#E373FF"/>
<path d="M126.863 93.206C127.157 93.206 127.394 92.9682 127.394 92.6748C127.394 92.3814 127.157 92.1436 126.863 92.1436C126.57 92.1436 126.332 92.3814 126.332 92.6748C126.332 92.9682 126.57 93.206 126.863 93.206Z" fill="#E373FF"/>
<path d="M120.762 96.727C121.055 96.727 121.293 96.4892 121.293 96.1958C121.293 95.9024 121.055 95.6646 120.762 95.6646C120.468 95.6646 120.23 95.9024 120.23 96.1958C120.23 96.4892 120.468 96.727 120.762 96.727Z" fill="#E373FF"/>
<path d="M114.661 100.256C114.954 100.256 115.192 100.018 115.192 99.7246C115.192 99.4312 114.954 99.1934 114.661 99.1934C114.368 99.1934 114.13 99.4312 114.13 99.7246C114.13 100.018 114.368 100.256 114.661 100.256Z" fill="#E373FF"/>
<path d="M132.965 96.727C133.258 96.727 133.496 96.4892 133.496 96.1958C133.496 95.9024 133.258 95.6646 132.965 95.6646C132.671 95.6646 132.434 95.9024 132.434 96.1958C132.434 96.4892 132.671 96.727 132.965 96.727Z" fill="#E373FF"/>
<path d="M126.863 100.256C127.157 100.256 127.394 100.018 127.394 99.7246C127.394 99.4312 127.157 99.1934 126.863 99.1934C126.57 99.1934 126.332 99.4312 126.332 99.7246C126.332 100.018 126.57 100.256 126.863 100.256Z" fill="#E373FF"/>
<path d="M139.066 93.206C139.36 93.206 139.598 92.9682 139.598 92.6748C139.598 92.3814 139.36 92.1436 139.066 92.1436C138.773 92.1436 138.535 92.3814 138.535 92.6748C138.535 92.9682 138.773 93.206 139.066 93.206Z" fill="#E373FF"/>
<path d="M120.762 103.777C121.055 103.777 121.293 103.539 121.293 103.246C121.293 102.952 121.055 102.714 120.762 102.714C120.468 102.714 120.23 102.952 120.23 103.246C120.23 103.539 120.468 103.777 120.762 103.777Z" fill="#E373FF"/>
<path d="M114.661 107.298C114.954 107.298 115.192 107.06 115.192 106.767C115.192 106.474 114.954 106.236 114.661 106.236C114.368 106.236 114.13 106.474 114.13 106.767C114.13 107.06 114.368 107.298 114.661 107.298Z" fill="#E373FF"/>
<path d="M108.552 82.6342C108.845 82.6342 109.083 82.3964 109.083 82.103C109.083 81.8096 108.845 81.5718 108.552 81.5718C108.258 81.5718 108.021 81.8096 108.021 82.103C108.021 82.3964 108.258 82.6342 108.552 82.6342Z" fill="#E373FF"/>
<path d="M126.863 72.0634C127.157 72.0634 127.394 71.8256 127.394 71.5322C127.394 71.2388 127.157 71.001 126.863 71.001C126.57 71.001 126.332 71.2388 126.332 71.5322C126.332 71.8256 126.57 72.0634 126.863 72.0634Z" fill="#E373FF"/>
<path d="M132.965 75.5922C133.258 75.5922 133.496 75.3544 133.496 75.061C133.496 74.7676 133.258 74.5298 132.965 74.5298C132.671 74.5298 132.434 74.7676 132.434 75.061C132.434 75.3544 132.671 75.5922 132.965 75.5922Z" fill="#E373FF"/>
<path d="M126.863 79.1132C127.157 79.1132 127.394 78.8754 127.394 78.582C127.394 78.2886 127.157 78.0508 126.863 78.0508C126.57 78.0508 126.332 78.2886 126.332 78.582C126.332 78.8754 126.57 79.1132 126.863 79.1132Z" fill="#E373FF"/>
<path d="M139.066 79.1132C139.36 79.1132 139.598 78.8754 139.598 78.582C139.598 78.2886 139.36 78.0508 139.066 78.0508C138.773 78.0508 138.535 78.2886 138.535 78.582C138.535 78.8754 138.773 79.1132 139.066 79.1132Z" fill="#E373FF"/>
<path d="M132.965 82.6342C133.258 82.6342 133.496 82.3964 133.496 82.103C133.496 81.8096 133.258 81.5718 132.965 81.5718C132.671 81.5718 132.434 81.8096 132.434 82.103C132.434 82.3964 132.671 82.6342 132.965 82.6342Z" fill="#E373FF"/>
<path d="M145.168 82.6342C145.461 82.6342 145.699 82.3964 145.699 82.103C145.699 81.8096 145.461 81.5718 145.168 81.5718C144.875 81.5718 144.637 81.8096 144.637 82.103C144.637 82.3964 144.875 82.6342 145.168 82.6342Z" fill="#E373FF"/>
<path d="M139.066 86.1557C139.36 86.1557 139.598 85.9179 139.598 85.6245C139.598 85.3311 139.36 85.0933 139.066 85.0933C138.773 85.0933 138.535 85.3311 138.535 85.6245C138.535 85.9179 138.773 86.1557 139.066 86.1557Z" fill="#E373FF"/>
<path d="M145.168 89.6845C145.461 89.6845 145.699 89.4467 145.699 89.1533C145.699 88.8599 145.461 88.6221 145.168 88.6221C144.875 88.6221 144.637 88.8599 144.637 89.1533C144.637 89.4467 144.875 89.6845 145.168 89.6845Z" fill="#E373FF"/>
<path d="M151.269 86.1557C151.563 86.1557 151.801 85.9179 151.801 85.6245C151.801 85.3311 151.563 85.0933 151.269 85.0933C150.976 85.0933 150.738 85.3311 150.738 85.6245C150.738 85.9179 150.976 86.1557 151.269 86.1557Z" fill="#E373FF"/>
<path d="M120.762 75.5922C121.055 75.5922 121.293 75.3544 121.293 75.061C121.293 74.7676 121.055 74.5298 120.762 74.5298C120.468 74.5298 120.23 74.7676 120.23 75.061C120.23 75.3544 120.468 75.5922 120.762 75.5922Z" fill="#E373FF"/>
<path d="M139.066 72.0634C139.36 72.0634 139.598 71.8256 139.598 71.5322C139.598 71.2388 139.36 71.001 139.066 71.001C138.773 71.001 138.535 71.2388 138.535 71.5322C138.535 71.8256 138.773 72.0634 139.066 72.0634Z" fill="#E373FF"/>
<path d="M145.168 75.5922C145.461 75.5922 145.699 75.3544 145.699 75.061C145.699 74.7676 145.461 74.5298 145.168 74.5298C144.875 74.5298 144.637 74.7676 144.637 75.061C144.637 75.3544 144.875 75.5922 145.168 75.5922Z" fill="#E373FF"/>
<path d="M151.269 79.1132C151.563 79.1132 151.801 78.8754 151.801 78.582C151.801 78.2886 151.563 78.0508 151.269 78.0508C150.976 78.0508 150.738 78.2886 150.738 78.582C150.738 78.8754 150.976 79.1132 151.269 79.1132Z" fill="#E373FF"/>
<path d="M157.378 82.6342C157.671 82.6342 157.909 82.3964 157.909 82.103C157.909 81.8096 157.671 81.5718 157.378 81.5718C157.085 81.5718 156.847 81.8096 156.847 82.103C156.847 82.3964 157.085 82.6342 157.378 82.6342Z" fill="#E373FF"/>
<path d="M139.066 100.256C139.36 100.256 139.598 100.018 139.598 99.7246C139.598 99.4312 139.36 99.1934 139.066 99.1934C138.773 99.1934 138.535 99.4312 138.535 99.7246C138.535 100.018 138.773 100.256 139.066 100.256Z" fill="#E373FF"/>
<path d="M132.965 103.777C133.258 103.777 133.496 103.539 133.496 103.246C133.496 102.952 133.258 102.714 132.965 102.714C132.671 102.714 132.434 102.952 132.434 103.246C132.434 103.539 132.671 103.777 132.965 103.777Z" fill="#E373FF"/>
<path d="M145.168 96.727C145.461 96.727 145.699 96.4892 145.699 96.1958C145.699 95.9024 145.461 95.6646 145.168 95.6646C144.875 95.6646 144.637 95.9024 144.637 96.1958C144.637 96.4892 144.875 96.727 145.168 96.727Z" fill="#E373FF"/>
<path d="M126.863 107.298C127.157 107.298 127.394 107.06 127.394 106.767C127.394 106.474 127.157 106.236 126.863 106.236C126.57 106.236 126.332 106.474 126.332 106.767C126.332 107.06 126.57 107.298 126.863 107.298Z" fill="#E373FF"/>
<path d="M120.762 110.819C121.055 110.819 121.293 110.581 121.293 110.288C121.293 109.995 121.055 109.757 120.762 109.757C120.468 109.757 120.23 109.995 120.23 110.288C120.23 110.581 120.468 110.819 120.762 110.819Z" fill="#E373FF"/>
<path d="M151.269 93.206C151.563 93.206 151.801 92.9682 151.801 92.6748C151.801 92.3814 151.563 92.1436 151.269 92.1436C150.976 92.1436 150.738 92.3814 150.738 92.6748C150.738 92.9682 150.976 93.206 151.269 93.206Z" fill="#E373FF"/>
<path d="M157.378 89.6845C157.671 89.6845 157.909 89.4467 157.909 89.1533C157.909 88.8599 157.671 88.6221 157.378 88.6221C157.085 88.6221 156.847 88.8599 156.847 89.1533C156.847 89.4467 157.085 89.6845 157.378 89.6845Z" fill="#E373FF"/>
<path d="M163.479 86.1557C163.773 86.1557 164.011 85.9179 164.011 85.6245C164.011 85.3311 163.773 85.0933 163.479 85.0933C163.186 85.0933 162.948 85.3311 162.948 85.6245C162.948 85.9179 163.186 86.1557 163.479 86.1557Z" fill="#E373FF"/>
<path d="M145.168 103.777C145.461 103.777 145.699 103.539 145.699 103.246C145.699 102.952 145.461 102.714 145.168 102.714C144.875 102.714 144.637 102.952 144.637 103.246C144.637 103.539 144.875 103.777 145.168 103.777Z" fill="#E373FF"/>
<path d="M139.066 107.298C139.36 107.298 139.598 107.06 139.598 106.767C139.598 106.474 139.36 106.236 139.066 106.236C138.773 106.236 138.535 106.474 138.535 106.767C138.535 107.06 138.773 107.298 139.066 107.298Z" fill="#E373FF"/>
<path d="M151.269 100.256C151.563 100.256 151.801 100.018 151.801 99.7246C151.801 99.4312 151.563 99.1934 151.269 99.1934C150.976 99.1934 150.738 99.4312 150.738 99.7246C150.738 100.018 150.976 100.256 151.269 100.256Z" fill="#E373FF"/>
<path d="M132.965 110.819C133.258 110.819 133.496 110.581 133.496 110.288C133.496 109.995 133.258 109.757 132.965 109.757C132.671 109.757 132.434 109.995 132.434 110.288C132.434 110.581 132.671 110.819 132.965 110.819Z" fill="#E373FF"/>
<path d="M126.863 114.348C127.157 114.348 127.394 114.11 127.394 113.817C127.394 113.523 127.157 113.286 126.863 113.286C126.57 113.286 126.332 113.523 126.332 113.817C126.332 114.11 126.57 114.348 126.863 114.348Z" fill="#E373FF"/>
<path d="M157.378 96.727C157.671 96.727 157.909 96.4892 157.909 96.1958C157.909 95.9024 157.671 95.6646 157.378 95.6646C157.085 95.6646 156.847 95.9024 156.847 96.1958C156.847 96.4892 157.085 96.727 157.378 96.727Z" fill="#E373FF"/>
<path d="M163.479 93.206C163.773 93.206 164.011 92.9682 164.011 92.6748C164.011 92.3814 163.773 92.1436 163.479 92.1436C163.186 92.1436 162.948 92.3814 162.948 92.6748C162.948 92.9682 163.186 93.206 163.479 93.206Z" fill="#E373FF"/>
<path d="M169.581 89.6845C169.874 89.6845 170.112 89.4467 170.112 89.1533C170.112 88.8599 169.874 88.6221 169.581 88.6221C169.288 88.6221 169.05 88.8599 169.05 89.1533C169.05 89.4467 169.288 89.6845 169.581 89.6845Z" fill="#E373FF"/>
<path d="M151.269 107.298C151.563 107.298 151.801 107.06 151.801 106.767C151.801 106.474 151.563 106.236 151.269 106.236C150.976 106.236 150.738 106.474 150.738 106.767C150.738 107.06 150.976 107.298 151.269 107.298Z" fill="#E373FF"/>
<path d="M145.168 110.819C145.461 110.819 145.699 110.581 145.699 110.288C145.699 109.995 145.461 109.757 145.168 109.757C144.875 109.757 144.637 109.995 144.637 110.288C144.637 110.581 144.875 110.819 145.168 110.819Z" fill="#E373FF"/>
<path d="M157.378 103.777C157.671 103.777 157.909 103.539 157.909 103.246C157.909 102.952 157.671 102.714 157.378 102.714C157.085 102.714 156.847 102.952 156.847 103.246C156.847 103.539 157.085 103.777 157.378 103.777Z" fill="#E373FF"/>
<path d="M139.066 114.348C139.36 114.348 139.598 114.11 139.598 113.817C139.598 113.523 139.36 113.286 139.066 113.286C138.773 113.286 138.535 113.523 138.535 113.817C138.535 114.11 138.773 114.348 139.066 114.348Z" fill="#E373FF"/>
<path d="M132.965 117.87C133.258 117.87 133.496 117.632 133.496 117.338C133.496 117.045 133.258 116.807 132.965 116.807C132.671 116.807 132.434 117.045 132.434 117.338C132.434 117.632 132.671 117.87 132.965 117.87Z" fill="#E373FF"/>
<path d="M163.479 100.256C163.773 100.256 164.011 100.018 164.011 99.7246C164.011 99.4312 163.773 99.1934 163.479 99.1934C163.186 99.1934 162.948 99.4312 162.948 99.7246C162.948 100.018 163.186 100.256 163.479 100.256Z" fill="#E373FF"/>
<path d="M169.581 96.727C169.874 96.727 170.112 96.4892 170.112 96.1958C170.112 95.9024 169.874 95.6646 169.581 95.6646C169.288 95.6646 169.05 95.9024 169.05 96.1958C169.05 96.4892 169.288 96.727 169.581 96.727Z" fill="#E373FF"/>
<path d="M175.683 93.206C175.976 93.206 176.214 92.9682 176.214 92.6748C176.214 92.3814 175.976 92.1436 175.683 92.1436C175.389 92.1436 175.151 92.3814 175.151 92.6748C175.151 92.9682 175.389 93.206 175.683 93.206Z" fill="#E373FF"/>
<path d="M157.378 110.819C157.671 110.819 157.909 110.581 157.909 110.288C157.909 109.995 157.671 109.757 157.378 109.757C157.085 109.757 156.847 109.995 156.847 110.288C156.847 110.581 157.085 110.819 157.378 110.819Z" fill="#E373FF"/>
<path d="M151.269 114.348C151.563 114.348 151.801 114.11 151.801 113.817C151.801 113.523 151.563 113.286 151.269 113.286C150.976 113.286 150.738 113.523 150.738 113.817C150.738 114.11 150.976 114.348 151.269 114.348Z" fill="#E373FF"/>
<path d="M163.479 107.298C163.773 107.298 164.011 107.06 164.011 106.767C164.011 106.474 163.773 106.236 163.479 106.236C163.186 106.236 162.948 106.474 162.948 106.767C162.948 107.06 163.186 107.298 163.479 107.298Z" fill="#E373FF"/>
<path d="M145.168 117.87C145.461 117.87 145.699 117.632 145.699 117.338C145.699 117.045 145.461 116.807 145.168 116.807C144.875 116.807 144.637 117.045 144.637 117.338C144.637 117.632 144.875 117.87 145.168 117.87Z" fill="#E373FF"/>
<path d="M139.066 121.391C139.36 121.391 139.598 121.153 139.598 120.859C139.598 120.566 139.36 120.328 139.066 120.328C138.773 120.328 138.535 120.566 138.535 120.859C138.535 121.153 138.773 121.391 139.066 121.391Z" fill="#E373FF"/>
<path d="M169.581 103.777C169.874 103.777 170.112 103.539 170.112 103.246C170.112 102.952 169.874 102.714 169.581 102.714C169.288 102.714 169.05 102.952 169.05 103.246C169.05 103.539 169.288 103.777 169.581 103.777Z" fill="#E373FF"/>
<path d="M175.683 100.256C175.976 100.256 176.214 100.018 176.214 99.7246C176.214 99.4312 175.976 99.1934 175.683 99.1934C175.389 99.1934 175.151 99.4312 175.151 99.7246C175.151 100.018 175.389 100.256 175.683 100.256Z" fill="#E373FF"/>
<path d="M181.784 96.727C182.078 96.727 182.315 96.4892 182.315 96.1958C182.315 95.9024 182.078 95.6646 181.784 95.6646C181.491 95.6646 181.253 95.9024 181.253 96.1958C181.253 96.4892 181.491 96.727 181.784 96.727Z" fill="#E373FF"/>
<path d="M163.479 114.348C163.773 114.348 164.011 114.11 164.011 113.817C164.011 113.523 163.773 113.286 163.479 113.286C163.186 113.286 162.948 113.523 162.948 113.817C162.948 114.11 163.186 114.348 163.479 114.348Z" fill="#E373FF"/>
<path d="M157.378 117.87C157.671 117.87 157.909 117.632 157.909 117.338C157.909 117.045 157.671 116.807 157.378 116.807C157.085 116.807 156.847 117.045 156.847 117.338C156.847 117.632 157.085 117.87 157.378 117.87Z" fill="#E373FF"/>
<path d="M169.581 110.819C169.874 110.819 170.112 110.581 170.112 110.288C170.112 109.995 169.874 109.757 169.581 109.757C169.288 109.757 169.05 109.995 169.05 110.288C169.05 110.581 169.288 110.819 169.581 110.819Z" fill="#E373FF"/>
<path d="M151.269 121.391C151.563 121.391 151.801 121.153 151.801 120.859C151.801 120.566 151.563 120.328 151.269 120.328C150.976 120.328 150.738 120.566 150.738 120.859C150.738 121.153 150.976 121.391 151.269 121.391Z" fill="#E373FF"/>
<path d="M145.168 124.912C145.461 124.912 145.699 124.674 145.699 124.38C145.699 124.087 145.461 123.849 145.168 123.849C144.875 123.849 144.637 124.087 144.637 124.38C144.637 124.674 144.875 124.912 145.168 124.912Z" fill="#E373FF"/>
<path d="M175.683 107.298C175.976 107.298 176.214 107.06 176.214 106.767C176.214 106.474 175.976 106.236 175.683 106.236C175.389 106.236 175.151 106.474 175.151 106.767C175.151 107.06 175.389 107.298 175.683 107.298Z" fill="#E373FF"/>
<path d="M181.784 103.777C182.078 103.777 182.315 103.539 182.315 103.246C182.315 102.952 182.078 102.714 181.784 102.714C181.491 102.714 181.253 102.952 181.253 103.246C181.253 103.539 181.491 103.777 181.784 103.777Z" fill="#E373FF"/>
<path d="M187.885 100.256C188.178 100.256 188.416 100.018 188.416 99.7246C188.416 99.4312 188.178 99.1934 187.885 99.1934C187.591 99.1934 187.354 99.4312 187.354 99.7246C187.354 100.018 187.591 100.256 187.885 100.256Z" fill="#E373FF"/>
<path d="M169.581 117.87C169.874 117.87 170.112 117.632 170.112 117.338C170.112 117.045 169.874 116.807 169.581 116.807C169.288 116.807 169.05 117.045 169.05 117.338C169.05 117.632 169.288 117.87 169.581 117.87Z" fill="#E373FF"/>
<path d="M163.479 121.391C163.773 121.391 164.011 121.153 164.011 120.859C164.011 120.566 163.773 120.328 163.479 120.328C163.186 120.328 162.948 120.566 162.948 120.859C162.948 121.153 163.186 121.391 163.479 121.391Z" fill="#E373FF"/>
<path d="M175.683 114.348C175.976 114.348 176.214 114.11 176.214 113.817C176.214 113.523 175.976 113.286 175.683 113.286C175.389 113.286 175.151 113.523 175.151 113.817C175.151 114.11 175.389 114.348 175.683 114.348Z" fill="#E373FF"/>
<path d="M157.378 124.912C157.671 124.912 157.909 124.674 157.909 124.38C157.909 124.087 157.671 123.849 157.378 123.849C157.085 123.849 156.847 124.087 156.847 124.38C156.847 124.674 157.085 124.912 157.378 124.912Z" fill="#E373FF"/>
<path d="M151.269 128.44C151.563 128.44 151.801 128.203 151.801 127.909C151.801 127.616 151.563 127.378 151.269 127.378C150.976 127.378 150.738 127.616 150.738 127.909C150.738 128.203 150.976 128.44 151.269 128.44Z" fill="#E373FF"/>
<path d="M181.784 110.819C182.078 110.819 182.315 110.581 182.315 110.288C182.315 109.995 182.078 109.757 181.784 109.757C181.491 109.757 181.253 109.995 181.253 110.288C181.253 110.581 181.491 110.819 181.784 110.819Z" fill="#E373FF"/>
<path d="M187.885 107.298C188.178 107.298 188.416 107.06 188.416 106.767C188.416 106.474 188.178 106.236 187.885 106.236C187.591 106.236 187.354 106.474 187.354 106.767C187.354 107.06 187.591 107.298 187.885 107.298Z" fill="#E373FF"/>
<path d="M193.986 103.777C194.28 103.777 194.518 103.539 194.518 103.246C194.518 102.952 194.28 102.714 193.986 102.714C193.693 102.714 193.455 102.952 193.455 103.246C193.455 103.539 193.693 103.777 193.986 103.777Z" fill="#E373FF"/>
<path d="M175.683 121.391C175.976 121.391 176.214 121.153 176.214 120.859C176.214 120.566 175.976 120.328 175.683 120.328C175.389 120.328 175.151 120.566 175.151 120.859C175.151 121.153 175.389 121.391 175.683 121.391Z" fill="#E373FF"/>
<path d="M169.581 124.912C169.874 124.912 170.112 124.674 170.112 124.38C170.112 124.087 169.874 123.849 169.581 123.849C169.288 123.849 169.05 124.087 169.05 124.38C169.05 124.674 169.288 124.912 169.581 124.912Z" fill="#E373FF"/>
<path d="M181.784 117.87C182.078 117.87 182.315 117.632 182.315 117.338C182.315 117.045 182.078 116.807 181.784 116.807C181.491 116.807 181.253 117.045 181.253 117.338C181.253 117.632 181.491 117.87 181.784 117.87Z" fill="#E373FF"/>
<path d="M163.479 128.44C163.773 128.44 164.011 128.203 164.011 127.909C164.011 127.616 163.773 127.378 163.479 127.378C163.186 127.378 162.948 127.616 162.948 127.909C162.948 128.203 163.186 128.44 163.479 128.44Z" fill="#E373FF"/>
<path d="M157.378 131.962C157.671 131.962 157.909 131.724 157.909 131.431C157.909 131.137 157.671 130.899 157.378 130.899C157.085 130.899 156.847 131.137 156.847 131.431C156.847 131.724 157.085 131.962 157.378 131.962Z" fill="#E373FF"/>
<path d="M187.885 114.348C188.178 114.348 188.416 114.11 188.416 113.817C188.416 113.523 188.178 113.286 187.885 113.286C187.591 113.286 187.354 113.523 187.354 113.817C187.354 114.11 187.591 114.348 187.885 114.348Z" fill="#E373FF"/>
<path d="M193.986 110.819C194.28 110.819 194.518 110.581 194.518 110.288C194.518 109.995 194.28 109.757 193.986 109.757C193.693 109.757 193.455 109.995 193.455 110.288C193.455 110.581 193.693 110.819 193.986 110.819Z" fill="#E373FF"/>
<path d="M200.096 107.298C200.389 107.298 200.627 107.06 200.627 106.767C200.627 106.474 200.389 106.236 200.096 106.236C199.802 106.236 199.564 106.474 199.564 106.767C199.564 107.06 199.802 107.298 200.096 107.298Z" fill="#E373FF"/>
<path d="M181.784 124.912C182.078 124.912 182.315 124.674 182.315 124.38C182.315 124.087 182.078 123.849 181.784 123.849C181.491 123.849 181.253 124.087 181.253 124.38C181.253 124.674 181.491 124.912 181.784 124.912Z" fill="#E373FF"/>
<path d="M175.683 128.44C175.976 128.44 176.214 128.203 176.214 127.909C176.214 127.616 175.976 127.378 175.683 127.378C175.389 127.378 175.151 127.616 175.151 127.909C175.151 128.203 175.389 128.44 175.683 128.44Z" fill="#E373FF"/>
<path d="M187.885 121.391C188.178 121.391 188.416 121.153 188.416 120.859C188.416 120.566 188.178 120.328 187.885 120.328C187.591 120.328 187.354 120.566 187.354 120.859C187.354 121.153 187.591 121.391 187.885 121.391Z" fill="#E373FF"/>
<path d="M169.581 131.962C169.874 131.962 170.112 131.724 170.112 131.431C170.112 131.137 169.874 130.899 169.581 130.899C169.288 130.899 169.05 131.137 169.05 131.431C169.05 131.724 169.288 131.962 169.581 131.962Z" fill="#E373FF"/>
<path d="M163.479 135.483C163.773 135.483 164.011 135.245 164.011 134.952C164.011 134.658 163.773 134.42 163.479 134.42C163.186 134.42 162.948 134.658 162.948 134.952C162.948 135.245 163.186 135.483 163.479 135.483Z" fill="#E373FF"/>
<path d="M193.986 117.87C194.28 117.87 194.518 117.632 194.518 117.338C194.518 117.045 194.28 116.807 193.986 116.807C193.693 116.807 193.455 117.045 193.455 117.338C193.455 117.632 193.693 117.87 193.986 117.87Z" fill="#E373FF"/>
<path d="M200.096 114.348C200.389 114.348 200.627 114.11 200.627 113.817C200.627 113.523 200.389 113.286 200.096 113.286C199.802 113.286 199.564 113.523 199.564 113.817C199.564 114.11 199.802 114.348 200.096 114.348Z" fill="#E373FF"/>
<path d="M206.197 110.819C206.491 110.819 206.728 110.581 206.728 110.288C206.728 109.995 206.491 109.757 206.197 109.757C205.904 109.757 205.666 109.995 205.666 110.288C205.666 110.581 205.904 110.819 206.197 110.819Z" fill="#E373FF"/>
<path d="M212.299 107.298C212.592 107.298 212.83 107.06 212.83 106.767C212.83 106.474 212.592 106.236 212.299 106.236C212.005 106.236 211.768 106.474 211.768 106.767C211.768 107.06 212.005 107.298 212.299 107.298Z" fill="#E373FF"/>
<path d="M132.965 68.5419C133.258 68.5419 133.496 68.3041 133.496 68.0107C133.496 67.7173 133.258 67.4795 132.965 67.4795C132.671 67.4795 132.434 67.7173 132.434 68.0107C132.434 68.3041 132.671 68.5419 132.965 68.5419Z" fill="#E373FF"/>
<path d="M102.45 86.1557C102.744 86.1557 102.981 85.9179 102.981 85.6245C102.981 85.3311 102.744 85.0933 102.45 85.0933C102.157 85.0933 101.919 85.3311 101.919 85.6245C101.919 85.9179 102.157 86.1557 102.45 86.1557Z" fill="#E373FF"/>
<path d="M108.552 89.6845C108.845 89.6845 109.083 89.4467 109.083 89.1533C109.083 88.8599 108.845 88.6221 108.552 88.6221C108.258 88.6221 108.021 88.8599 108.021 89.1533C108.021 89.4467 108.258 89.6845 108.552 89.6845Z" fill="#E373FF"/>
<path d="M96.3486 89.6845C96.642 89.6845 96.8798 89.4467 96.8798 89.1533C96.8798 88.8599 96.642 88.6221 96.3486 88.6221C96.0552 88.6221 95.8174 88.8599 95.8174 89.1533C95.8174 89.4467 96.0552 89.6845 96.3486 89.6845Z" fill="#E373FF"/>
<path d="M102.45 93.206C102.744 93.206 102.981 92.9682 102.981 92.6748C102.981 92.3814 102.744 92.1436 102.45 92.1436C102.157 92.1436 101.919 92.3814 101.919 92.6748C101.919 92.9682 102.157 93.206 102.45 93.206Z" fill="#E373FF"/>
<path d="M108.552 96.727C108.845 96.727 109.083 96.4892 109.083 96.1958C109.083 95.9024 108.845 95.6646 108.552 95.6646C108.258 95.6646 108.021 95.9024 108.021 96.1958C108.021 96.4892 108.258 96.727 108.552 96.727Z" fill="#E373FF"/>
<path d="M96.3486 96.727C96.642 96.727 96.8798 96.4892 96.8798 96.1958C96.8798 95.9024 96.642 95.6646 96.3486 95.6646C96.0552 95.6646 95.8174 95.9024 95.8174 96.1958C95.8174 96.4892 96.0552 96.727 96.3486 96.727Z" fill="#E373FF"/>
<path d="M102.45 100.256C102.744 100.256 102.981 100.018 102.981 99.7246C102.981 99.4312 102.744 99.1934 102.45 99.1934C102.157 99.1934 101.919 99.4312 101.919 99.7246C101.919 100.018 102.157 100.256 102.45 100.256Z" fill="#E373FF"/>
<path d="M90.248 93.206C90.5414 93.206 90.7792 92.9682 90.7792 92.6748C90.7792 92.3814 90.5414 92.1436 90.248 92.1436C89.9546 92.1436 89.7168 92.3814 89.7168 92.6748C89.7168 92.9682 89.9546 93.206 90.248 93.206Z" fill="#E373FF"/>
<path d="M108.552 103.777C108.845 103.777 109.083 103.539 109.083 103.246C109.083 102.952 108.845 102.714 108.552 102.714C108.258 102.714 108.021 102.952 108.021 103.246C108.021 103.539 108.258 103.777 108.552 103.777Z" fill="#E373FF"/>
<path d="M96.3486 82.6342C96.642 82.6342 96.8798 82.3964 96.8798 82.103C96.8798 81.8096 96.642 81.5718 96.3486 81.5718C96.0552 81.5718 95.8174 81.8096 95.8174 82.103C95.8174 82.3964 96.0552 82.6342 96.3486 82.6342Z" fill="#E373FF"/>
<path d="M90.248 86.1557C90.5414 86.1557 90.7792 85.9179 90.7792 85.6245C90.7792 85.3311 90.5414 85.0933 90.248 85.0933C89.9546 85.0933 89.7168 85.3311 89.7168 85.6245C89.7168 85.9179 89.9546 86.1557 90.248 86.1557Z" fill="#E373FF"/>
<path d="M108.552 75.5922C108.845 75.5922 109.083 75.3544 109.083 75.061C109.083 74.7676 108.845 74.5298 108.552 74.5298C108.258 74.5298 108.021 74.7676 108.021 75.061C108.021 75.3544 108.258 75.5922 108.552 75.5922Z" fill="#E373FF"/>
<path d="M102.45 79.1132C102.744 79.1132 102.981 78.8754 102.981 78.582C102.981 78.2886 102.744 78.0508 102.45 78.0508C102.157 78.0508 101.919 78.2886 101.919 78.582C101.919 78.8754 102.157 79.1132 102.45 79.1132Z" fill="#E373FF"/>
<path d="M114.661 72.0634C114.954 72.0634 115.192 71.8256 115.192 71.5322C115.192 71.2388 114.954 71.001 114.661 71.001C114.368 71.001 114.13 71.2388 114.13 71.5322C114.13 71.8256 114.368 72.0634 114.661 72.0634Z" fill="#E373FF"/>
<path d="M84.1465 89.6845C84.4398 89.6845 84.6777 89.4467 84.6777 89.1533C84.6777 88.8599 84.4398 88.6221 84.1465 88.6221C83.8531 88.6221 83.6152 88.8599 83.6152 89.1533C83.6152 89.4467 83.8531 89.6845 84.1465 89.6845Z" fill="#E373FF"/>
<path d="M96.3486 68.5419C96.642 68.5419 96.8798 68.3041 96.8798 68.0107C96.8798 67.7173 96.642 67.4795 96.3486 67.4795C96.0552 67.4795 95.8174 67.7173 95.8174 68.0107C95.8174 68.3041 96.0552 68.5419 96.3486 68.5419Z" fill="#E373FF"/>
<path d="M90.248 72.0634C90.5414 72.0634 90.7792 71.8256 90.7792 71.5322C90.7792 71.2388 90.5414 71.001 90.248 71.001C89.9546 71.001 89.7168 71.2388 89.7168 71.5322C89.7168 71.8256 89.9546 72.0634 90.248 72.0634Z" fill="#E373FF"/>
<path d="M84.1465 75.5922C84.4398 75.5922 84.6777 75.3544 84.6777 75.061C84.6777 74.7676 84.4398 74.5298 84.1465 74.5298C83.8531 74.5298 83.6152 74.7676 83.6152 75.061C83.6152 75.3544 83.8531 75.5922 84.1465 75.5922Z" fill="#E373FF"/>
<path d="M78.0449 79.1132C78.3383 79.1132 78.5761 78.8754 78.5761 78.582C78.5761 78.2886 78.3383 78.0508 78.0449 78.0508C77.7515 78.0508 77.5137 78.2886 77.5137 78.582C77.5137 78.8754 77.7515 79.1132 78.0449 79.1132Z" fill="#E373FF"/>
<path d="M96.3486 75.5922C96.642 75.5922 96.8798 75.3544 96.8798 75.061C96.8798 74.7676 96.642 74.5298 96.3486 74.5298C96.0552 74.5298 95.8174 74.7676 95.8174 75.061C95.8174 75.3544 96.0552 75.5922 96.3486 75.5922Z" fill="#E373FF"/>
<path d="M90.248 79.1132C90.5414 79.1132 90.7792 78.8754 90.7792 78.582C90.7792 78.2886 90.5414 78.0508 90.248 78.0508C89.9546 78.0508 89.7168 78.2886 89.7168 78.582C89.7168 78.8754 89.9546 79.1132 90.248 79.1132Z" fill="#E373FF"/>
<path d="M102.45 72.0634C102.744 72.0634 102.981 71.8256 102.981 71.5322C102.981 71.2388 102.744 71.001 102.45 71.001C102.157 71.001 101.919 71.2388 101.919 71.5322C101.919 71.8256 102.157 72.0634 102.45 72.0634Z" fill="#E373FF"/>
<path d="M84.1465 82.6342C84.4398 82.6342 84.6777 82.3964 84.6777 82.103C84.6777 81.8096 84.4398 81.5718 84.1465 81.5718C83.8531 81.5718 83.6152 81.8096 83.6152 82.103C83.6152 82.3964 83.8531 82.6342 84.1465 82.6342Z" fill="#E373FF"/>
<path d="M78.0449 86.1557C78.3383 86.1557 78.5761 85.9179 78.5761 85.6245C78.5761 85.3311 78.3383 85.0933 78.0449 85.0933C77.7515 85.0933 77.5137 85.3311 77.5137 85.6245C77.5137 85.9179 77.7515 86.1557 78.0449 86.1557Z" fill="#E373FF"/>
<path d="M120.762 68.5419C121.055 68.5419 121.293 68.3041 121.293 68.0107C121.293 67.7173 121.055 67.4795 120.762 67.4795C120.468 67.4795 120.23 67.7173 120.23 68.0107C120.23 68.3041 120.468 68.5419 120.762 68.5419Z" fill="#E373FF"/>
<path d="M108.552 61.4999C108.845 61.4999 109.083 61.2621 109.083 60.9687C109.083 60.6753 108.845 60.4375 108.552 60.4375C108.258 60.4375 108.021 60.6753 108.021 60.9687C108.021 61.2621 108.258 61.4999 108.552 61.4999Z" fill="#E373FF"/>
<path d="M102.45 65.0209C102.744 65.0209 102.981 64.7831 102.981 64.4897C102.981 64.1963 102.744 63.9585 102.45 63.9585C102.157 63.9585 101.919 64.1963 101.919 64.4897C101.919 64.7831 102.157 65.0209 102.45 65.0209Z" fill="#E373FF"/>
<path d="M108.552 68.5419C108.845 68.5419 109.083 68.3041 109.083 68.0107C109.083 67.7173 108.845 67.4795 108.552 67.4795C108.258 67.4795 108.021 67.7173 108.021 68.0107C108.021 68.3041 108.258 68.5419 108.552 68.5419Z" fill="#E373FF"/>
<path d="M114.661 65.0209C114.954 65.0209 115.192 64.7831 115.192 64.4897C115.192 64.1963 114.954 63.9585 114.661 63.9585C114.368 63.9585 114.13 64.1963 114.13 64.4897C114.13 64.7831 114.368 65.0209 114.661 65.0209Z" fill="#E373FF"/>
<path d="M126.863 65.0209C127.157 65.0209 127.394 64.7831 127.394 64.4897C127.394 64.1963 127.157 63.9585 126.863 63.9585C126.57 63.9585 126.332 64.1963 126.332 64.4897C126.332 64.7831 126.57 65.0209 126.863 65.0209Z" fill="#E373FF"/>
<path d="M114.661 57.9706C114.954 57.9706 115.192 57.7328 115.192 57.4394C115.192 57.146 114.954 56.9082 114.661 56.9082C114.368 56.9082 114.13 57.146 114.13 57.4394C114.13 57.7328 114.368 57.9706 114.661 57.9706Z" fill="#E373FF"/>
<path d="M120.762 61.4999C121.055 61.4999 121.293 61.2621 121.293 60.9687C121.293 60.6753 121.055 60.4375 120.762 60.4375C120.468 60.4375 120.23 60.6753 120.23 60.9687C120.23 61.2621 120.468 61.4999 120.762 61.4999Z" fill="#E373FF"/>
<path d="M71.9433 82.6342C72.2367 82.6342 72.4745 82.3964 72.4745 82.103C72.4745 81.8096 72.2367 81.5718 71.9433 81.5718C71.6499 81.5718 71.4121 81.8096 71.4121 82.103C71.4121 82.3964 71.6499 82.6342 71.9433 82.6342Z" fill="#E373FF"/>
<path d="M163.479 50.9282C163.773 50.9282 164.011 50.6903 164.011 50.3969C164.011 50.1036 163.773 49.8657 163.479 49.8657C163.186 49.8657 162.948 50.1036 162.948 50.3969C162.948 50.6903 163.186 50.9282 163.479 50.9282Z" fill="#E373FF"/>
<path d="M169.581 54.4496C169.874 54.4496 170.112 54.2118 170.112 53.9184C170.112 53.625 169.874 53.3872 169.581 53.3872C169.288 53.3872 169.05 53.625 169.05 53.9184C169.05 54.2118 169.288 54.4496 169.581 54.4496Z" fill="#E373FF"/>
<path d="M163.479 57.9706C163.773 57.9706 164.011 57.7328 164.011 57.4394C164.011 57.146 163.773 56.9082 163.479 56.9082C163.186 56.9082 162.948 57.146 162.948 57.4394C162.948 57.7328 163.186 57.9706 163.479 57.9706Z" fill="#E373FF"/>
<path d="M175.683 57.9706C175.976 57.9706 176.214 57.7328 176.214 57.4394C176.214 57.146 175.976 56.9082 175.683 56.9082C175.389 56.9082 175.151 57.146 175.151 57.4394C175.151 57.7328 175.389 57.9706 175.683 57.9706Z" fill="#E373FF"/>
<path d="M169.581 61.4999C169.874 61.4999 170.112 61.2621 170.112 60.9687C170.112 60.6753 169.874 60.4375 169.581 60.4375C169.288 60.4375 169.05 60.6753 169.05 60.9687C169.05 61.2621 169.288 61.4999 169.581 61.4999Z" fill="#E373FF"/>
<path d="M163.479 65.0209C163.773 65.0209 164.011 64.7831 164.011 64.4897C164.011 64.1963 163.773 63.9585 163.479 63.9585C163.186 63.9585 162.948 64.1963 162.948 64.4897C162.948 64.7831 163.186 65.0209 163.479 65.0209Z" fill="#E373FF"/>
<path d="M181.784 61.4999C182.078 61.4999 182.315 61.2621 182.315 60.9687C182.315 60.6753 182.078 60.4375 181.784 60.4375C181.491 60.4375 181.253 60.6753 181.253 60.9687C181.253 61.2621 181.491 61.4999 181.784 61.4999Z" fill="#E373FF"/>
<path d="M175.683 65.0209C175.976 65.0209 176.214 64.7831 176.214 64.4897C176.214 64.1963 175.976 63.9585 175.683 63.9585C175.389 63.9585 175.151 64.1963 175.151 64.4897C175.151 64.7831 175.389 65.0209 175.683 65.0209Z" fill="#E373FF"/>
<path d="M169.581 68.5419C169.874 68.5419 170.112 68.3041 170.112 68.0107C170.112 67.7173 169.874 67.4795 169.581 67.4795C169.288 67.4795 169.05 67.7173 169.05 68.0107C169.05 68.3041 169.288 68.5419 169.581 68.5419Z" fill="#E373FF"/>
<path d="M163.479 72.0634C163.773 72.0634 164.011 71.8256 164.011 71.5322C164.011 71.2388 163.773 71.001 163.479 71.001C163.186 71.001 162.948 71.2388 162.948 71.5322C162.948 71.8256 163.186 72.0634 163.479 72.0634Z" fill="#E373FF"/>
<path d="M181.784 68.5419C182.078 68.5419 182.315 68.3041 182.315 68.0107C182.315 67.7173 182.078 67.4795 181.784 67.4795C181.491 67.4795 181.253 67.7173 181.253 68.0107C181.253 68.3041 181.491 68.5419 181.784 68.5419Z" fill="#E373FF"/>
<path d="M175.683 72.0634C175.976 72.0634 176.214 71.8256 176.214 71.5322C176.214 71.2388 175.976 71.001 175.683 71.001C175.389 71.001 175.151 71.2388 175.151 71.5322C175.151 71.8256 175.389 72.0634 175.683 72.0634Z" fill="#E373FF"/>
<path d="M187.885 65.0209C188.178 65.0209 188.416 64.7831 188.416 64.4897C188.416 64.1963 188.178 63.9585 187.885 63.9585C187.591 63.9585 187.354 64.1963 187.354 64.4897C187.354 64.7831 187.591 65.0209 187.885 65.0209Z" fill="#E373FF"/>
<path d="M169.581 75.5922C169.874 75.5922 170.112 75.3544 170.112 75.061C170.112 74.7676 169.874 74.5298 169.581 74.5298C169.288 74.5298 169.05 74.7676 169.05 75.061C169.05 75.3544 169.288 75.5922 169.581 75.5922Z" fill="#E373FF"/>
<path d="M163.479 79.1132C163.773 79.1132 164.011 78.8754 164.011 78.582C164.011 78.2886 163.773 78.0508 163.479 78.0508C163.186 78.0508 162.948 78.2886 162.948 78.582C162.948 78.8754 163.186 79.1132 163.479 79.1132Z" fill="#E373FF"/>
<path d="M157.378 54.4496C157.671 54.4496 157.909 54.2118 157.909 53.9184C157.909 53.625 157.671 53.3872 157.378 53.3872C157.085 53.3872 156.847 53.625 156.847 53.9184C156.847 54.2118 157.085 54.4496 157.378 54.4496Z" fill="#E373FF"/>
<path d="M175.683 43.8783C175.976 43.8783 176.214 43.6405 176.214 43.3471C176.214 43.0537 175.976 42.8159 175.683 42.8159C175.389 42.8159 175.151 43.0537 175.151 43.3471C175.151 43.6405 175.389 43.8783 175.683 43.8783Z" fill="#E373FF"/>
<path d="M181.784 47.3998C182.078 47.3998 182.315 47.162 182.315 46.8686C182.315 46.5752 182.078 46.3374 181.784 46.3374C181.491 46.3374 181.253 46.5752 181.253 46.8686C181.253 47.162 181.491 47.3998 181.784 47.3998Z" fill="#E373FF"/>
<path d="M175.683 50.9282C175.976 50.9282 176.214 50.6903 176.214 50.3969C176.214 50.1036 175.976 49.8657 175.683 49.8657C175.389 49.8657 175.151 50.1036 175.151 50.3969C175.151 50.6903 175.389 50.9282 175.683 50.9282Z" fill="#E373FF"/>
<path d="M187.885 50.9282C188.178 50.9282 188.416 50.6903 188.416 50.3969C188.416 50.1036 188.178 49.8657 187.885 49.8657C187.591 49.8657 187.354 50.1036 187.354 50.3969C187.354 50.6903 187.591 50.9282 187.885 50.9282Z" fill="#E373FF"/>
<path d="M181.784 54.4496C182.078 54.4496 182.315 54.2118 182.315 53.9184C182.315 53.625 182.078 53.3872 181.784 53.3872C181.491 53.3872 181.253 53.625 181.253 53.9184C181.253 54.2118 181.491 54.4496 181.784 54.4496Z" fill="#E373FF"/>
<path d="M193.986 54.4496C194.28 54.4496 194.518 54.2118 194.518 53.9184C194.518 53.625 194.28 53.3872 193.986 53.3872C193.693 53.3872 193.455 53.625 193.455 53.9184C193.455 54.2118 193.693 54.4496 193.986 54.4496Z" fill="#E373FF"/>
<path d="M187.885 57.9706C188.178 57.9706 188.416 57.7328 188.416 57.4394C188.416 57.146 188.178 56.9082 187.885 56.9082C187.591 56.9082 187.354 57.146 187.354 57.4394C187.354 57.7328 187.591 57.9706 187.885 57.9706Z" fill="#E373FF"/>
<path d="M193.986 61.4999C194.28 61.4999 194.518 61.2621 194.518 60.9687C194.518 60.6753 194.28 60.4375 193.986 60.4375C193.693 60.4375 193.455 60.6753 193.455 60.9687C193.455 61.2621 193.693 61.4999 193.986 61.4999Z" fill="#E373FF"/>
<path d="M200.096 57.9706C200.389 57.9706 200.627 57.7328 200.627 57.4394C200.627 57.146 200.389 56.9082 200.096 56.9082C199.802 56.9082 199.564 57.146 199.564 57.4394C199.564 57.7328 199.802 57.9706 200.096 57.9706Z" fill="#E373FF"/>
<path d="M169.581 47.3998C169.874 47.3998 170.112 47.162 170.112 46.8686C170.112 46.5752 169.874 46.3374 169.581 46.3374C169.288 46.3374 169.05 46.5752 169.05 46.8686C169.05 47.162 169.288 47.3998 169.581 47.3998Z" fill="#E373FF"/>
<path d="M187.885 43.8783C188.178 43.8783 188.416 43.6405 188.416 43.3471C188.416 43.0537 188.178 42.8159 187.885 42.8159C187.591 42.8159 187.354 43.0537 187.354 43.3471C187.354 43.6405 187.591 43.8783 187.885 43.8783Z" fill="#E373FF"/>
<path d="M193.986 47.3998C194.28 47.3998 194.518 47.162 194.518 46.8686C194.518 46.5752 194.28 46.3374 193.986 46.3374C193.693 46.3374 193.455 46.5752 193.455 46.8686C193.455 47.162 193.693 47.3998 193.986 47.3998Z" fill="#E373FF"/>
<path d="M200.096 50.9282C200.389 50.9282 200.627 50.6903 200.627 50.3969C200.627 50.1036 200.389 49.8657 200.096 49.8657C199.802 49.8657 199.564 50.1036 199.564 50.3969C199.564 50.6903 199.802 50.9282 200.096 50.9282Z" fill="#E373FF"/>
<path d="M206.197 54.4496C206.491 54.4496 206.728 54.2118 206.728 53.9184C206.728 53.625 206.491 53.3872 206.197 53.3872C205.904 53.3872 205.666 53.625 205.666 53.9184C205.666 54.2118 205.904 54.4496 206.197 54.4496Z" fill="#E373FF"/>
<path d="M187.885 72.0634C188.178 72.0634 188.416 71.8256 188.416 71.5322C188.416 71.2388 188.178 71.001 187.885 71.001C187.591 71.001 187.354 71.2388 187.354 71.5322C187.354 71.8256 187.591 72.0634 187.885 72.0634Z" fill="#E373FF"/>
<path d="M181.784 75.5922C182.078 75.5922 182.315 75.3544 182.315 75.061C182.315 74.7676 182.078 74.5298 181.784 74.5298C181.491 74.5298 181.253 74.7676 181.253 75.061C181.253 75.3544 181.491 75.5922 181.784 75.5922Z" fill="#E373FF"/>
<path d="M193.986 68.5419C194.28 68.5419 194.518 68.3041 194.518 68.0107C194.518 67.7173 194.28 67.4795 193.986 67.4795C193.693 67.4795 193.455 67.7173 193.455 68.0107C193.455 68.3041 193.693 68.5419 193.986 68.5419Z" fill="#E373FF"/>
<path d="M175.683 79.1132C175.976 79.1132 176.214 78.8754 176.214 78.582C176.214 78.2886 175.976 78.0508 175.683 78.0508C175.389 78.0508 175.151 78.2886 175.151 78.582C175.151 78.8754 175.389 79.1132 175.683 79.1132Z" fill="#E373FF"/>
<path d="M169.581 82.6342C169.874 82.6342 170.112 82.3964 170.112 82.103C170.112 81.8096 169.874 81.5718 169.581 81.5718C169.288 81.5718 169.05 81.8096 169.05 82.103C169.05 82.3964 169.288 82.6342 169.581 82.6342Z" fill="#E373FF"/>
<path d="M200.096 65.0209C200.389 65.0209 200.627 64.7831 200.627 64.4897C200.627 64.1963 200.389 63.9585 200.096 63.9585C199.802 63.9585 199.564 64.1963 199.564 64.4897C199.564 64.7831 199.802 65.0209 200.096 65.0209Z" fill="#E373FF"/>
<path d="M206.197 61.4999C206.491 61.4999 206.728 61.2621 206.728 60.9687C206.728 60.6753 206.491 60.4375 206.197 60.4375C205.904 60.4375 205.666 60.6753 205.666 60.9687C205.666 61.2621 205.904 61.4999 206.197 61.4999Z" fill="#E373FF"/>
<path d="M212.299 57.9706C212.592 57.9706 212.83 57.7328 212.83 57.4394C212.83 57.146 212.592 56.9082 212.299 56.9082C212.005 56.9082 211.768 57.146 211.768 57.4394C211.768 57.7328 212.005 57.9706 212.299 57.9706Z" fill="#E373FF"/>
<path d="M193.986 75.5922C194.28 75.5922 194.518 75.3544 194.518 75.061C194.518 74.7676 194.28 74.5298 193.986 74.5298C193.693 74.5298 193.455 74.7676 193.455 75.061C193.455 75.3544 193.693 75.5922 193.986 75.5922Z" fill="#E373FF"/>
<path d="M187.885 79.1132C188.178 79.1132 188.416 78.8754 188.416 78.582C188.416 78.2886 188.178 78.0508 187.885 78.0508C187.591 78.0508 187.354 78.2886 187.354 78.582C187.354 78.8754 187.591 79.1132 187.885 79.1132Z" fill="#E373FF"/>
<path d="M200.096 72.0634C200.389 72.0634 200.627 71.8256 200.627 71.5322C200.627 71.2388 200.389 71.001 200.096 71.001C199.802 71.001 199.564 71.2388 199.564 71.5322C199.564 71.8256 199.802 72.0634 200.096 72.0634Z" fill="#E373FF"/>
<path d="M181.784 82.6342C182.078 82.6342 182.315 82.3964 182.315 82.103C182.315 81.8096 182.078 81.5718 181.784 81.5718C181.491 81.5718 181.253 81.8096 181.253 82.103C181.253 82.3964 181.491 82.6342 181.784 82.6342Z" fill="#E373FF"/>
<path d="M175.683 86.1557C175.976 86.1557 176.214 85.9179 176.214 85.6245C176.214 85.3311 175.976 85.0933 175.683 85.0933C175.389 85.0933 175.151 85.3311 175.151 85.6245C175.151 85.9179 175.389 86.1557 175.683 86.1557Z" fill="#E373FF"/>
<path d="M206.197 68.5419C206.491 68.5419 206.728 68.3041 206.728 68.0107C206.728 67.7173 206.491 67.4795 206.197 67.4795C205.904 67.4795 205.666 67.7173 205.666 68.0107C205.666 68.3041 205.904 68.5419 206.197 68.5419Z" fill="#E373FF"/>
<path d="M212.299 65.0209C212.592 65.0209 212.83 64.7831 212.83 64.4897C212.83 64.1963 212.592 63.9585 212.299 63.9585C212.005 63.9585 211.768 64.1963 211.768 64.4897C211.768 64.7831 212.005 65.0209 212.299 65.0209Z" fill="#E373FF"/>
<path d="M218.399 61.4999C218.693 61.4999 218.931 61.2621 218.931 60.9687C218.931 60.6753 218.693 60.4375 218.399 60.4375C218.106 60.4375 217.868 60.6753 217.868 60.9687C217.868 61.2621 218.106 61.4999 218.399 61.4999Z" fill="#E373FF"/>
<path d="M200.096 79.1132C200.389 79.1132 200.627 78.8754 200.627 78.582C200.627 78.2886 200.389 78.0508 200.096 78.0508C199.802 78.0508 199.564 78.2886 199.564 78.582C199.564 78.8754 199.802 79.1132 200.096 79.1132Z" fill="#E373FF"/>
<path d="M193.986 82.6342C194.28 82.6342 194.518 82.3964 194.518 82.103C194.518 81.8096 194.28 81.5718 193.986 81.5718C193.693 81.5718 193.455 81.8096 193.455 82.103C193.455 82.3964 193.693 82.6342 193.986 82.6342Z" fill="#E373FF"/>
<path d="M206.197 75.5922C206.491 75.5922 206.728 75.3544 206.728 75.061C206.728 74.7676 206.491 74.5298 206.197 74.5298C205.904 74.5298 205.666 74.7676 205.666 75.061C205.666 75.3544 205.904 75.5922 206.197 75.5922Z" fill="#E373FF"/>
<path d="M187.885 86.1557C188.178 86.1557 188.416 85.9179 188.416 85.6245C188.416 85.3311 188.178 85.0933 187.885 85.0933C187.591 85.0933 187.354 85.3311 187.354 85.6245C187.354 85.9179 187.591 86.1557 187.885 86.1557Z" fill="#E373FF"/>
<path d="M181.784 89.6845C182.078 89.6845 182.315 89.4467 182.315 89.1533C182.315 88.8599 182.078 88.6221 181.784 88.6221C181.491 88.6221 181.253 88.8599 181.253 89.1533C181.253 89.4467 181.491 89.6845 181.784 89.6845Z" fill="#E373FF"/>
<path d="M212.299 72.0634C212.592 72.0634 212.83 71.8256 212.83 71.5322C212.83 71.2388 212.592 71.001 212.299 71.001C212.005 71.001 211.768 71.2388 211.768 71.5322C211.768 71.8256 212.005 72.0634 212.299 72.0634Z" fill="#E373FF"/>
<path d="M218.399 68.5419C218.693 68.5419 218.931 68.3041 218.931 68.0107C218.931 67.7173 218.693 67.4795 218.399 67.4795C218.106 67.4795 217.868 67.7173 217.868 68.0107C217.868 68.3041 218.106 68.5419 218.399 68.5419Z" fill="#E373FF"/>
<path d="M224.501 65.0209C224.794 65.0209 225.032 64.7831 225.032 64.4897C225.032 64.1963 224.794 63.9585 224.501 63.9585C224.208 63.9585 223.97 64.1963 223.97 64.4897C223.97 64.7831 224.208 65.0209 224.501 65.0209Z" fill="#E373FF"/>
<path d="M206.197 82.6342C206.491 82.6342 206.728 82.3964 206.728 82.103C206.728 81.8096 206.491 81.5718 206.197 81.5718C205.904 81.5718 205.666 81.8096 205.666 82.103C205.666 82.3964 205.904 82.6342 206.197 82.6342Z" fill="#E373FF"/>
<path d="M200.096 86.1557C200.389 86.1557 200.627 85.9179 200.627 85.6245C200.627 85.3311 200.389 85.0933 200.096 85.0933C199.802 85.0933 199.564 85.3311 199.564 85.6245C199.564 85.9179 199.802 86.1557 200.096 86.1557Z" fill="#E373FF"/>
<path d="M212.299 79.1132C212.592 79.1132 212.83 78.8754 212.83 78.582C212.83 78.2886 212.592 78.0508 212.299 78.0508C212.005 78.0508 211.768 78.2886 211.768 78.582C211.768 78.8754 212.005 79.1132 212.299 79.1132Z" fill="#E373FF"/>
<path d="M193.986 89.6845C194.28 89.6845 194.518 89.4467 194.518 89.1533C194.518 88.8599 194.28 88.6221 193.986 88.6221C193.693 88.6221 193.455 88.8599 193.455 89.1533C193.455 89.4467 193.693 89.6845 193.986 89.6845Z" fill="#E373FF"/>
<path d="M187.885 93.206C188.178 93.206 188.416 92.9682 188.416 92.6748C188.416 92.3814 188.178 92.1436 187.885 92.1436C187.591 92.1436 187.354 92.3814 187.354 92.6748C187.354 92.9682 187.591 93.206 187.885 93.206Z" fill="#E373FF"/>
<path d="M218.399 75.5922C218.693 75.5922 218.931 75.3544 218.931 75.061C218.931 74.7676 218.693 74.5298 218.399 74.5298C218.106 74.5298 217.868 74.7676 217.868 75.061C217.868 75.3544 218.106 75.5922 218.399 75.5922Z" fill="#E373FF"/>
<path d="M224.501 72.0634C224.794 72.0634 225.032 71.8256 225.032 71.5322C225.032 71.2388 224.794 71.001 224.501 71.001C224.208 71.001 223.97 71.2388 223.97 71.5322C223.97 71.8256 224.208 72.0634 224.501 72.0634Z" fill="#E373FF"/>
<path d="M230.603 68.5419C230.896 68.5419 231.134 68.3041 231.134 68.0107C231.134 67.7173 230.896 67.4795 230.603 67.4795C230.309 67.4795 230.071 67.7173 230.071 68.0107C230.071 68.3041 230.309 68.5419 230.603 68.5419Z" fill="#E373FF"/>
<path d="M212.299 86.1557C212.592 86.1557 212.83 85.9179 212.83 85.6245C212.83 85.3311 212.592 85.0933 212.299 85.0933C212.005 85.0933 211.768 85.3311 211.768 85.6245C211.768 85.9179 212.005 86.1557 212.299 86.1557Z" fill="#E373FF"/>
<path d="M206.197 89.6845C206.491 89.6845 206.728 89.4467 206.728 89.1533C206.728 88.8599 206.491 88.6221 206.197 88.6221C205.904 88.6221 205.666 88.8599 205.666 89.1533C205.666 89.4467 205.904 89.6845 206.197 89.6845Z" fill="#E373FF"/>
<path d="M218.399 82.6342C218.693 82.6342 218.931 82.3964 218.931 82.103C218.931 81.8096 218.693 81.5718 218.399 81.5718C218.106 81.5718 217.868 81.8096 217.868 82.103C217.868 82.3964 218.106 82.6342 218.399 82.6342Z" fill="#E373FF"/>
<path d="M200.096 93.206C200.389 93.206 200.627 92.9682 200.627 92.6748C200.627 92.3814 200.389 92.1436 200.096 92.1436C199.802 92.1436 199.564 92.3814 199.564 92.6748C199.564 92.9682 199.802 93.206 200.096 93.206Z" fill="#E373FF"/>
<path d="M193.986 96.727C194.28 96.727 194.518 96.4892 194.518 96.1958C194.518 95.9024 194.28 95.6646 193.986 95.6646C193.693 95.6646 193.455 95.9024 193.455 96.1958C193.455 96.4892 193.693 96.727 193.986 96.727Z" fill="#E373FF"/>
<path d="M224.501 79.1132C224.794 79.1132 225.032 78.8754 225.032 78.582C225.032 78.2886 224.794 78.0508 224.501 78.0508C224.208 78.0508 223.97 78.2886 223.97 78.582C223.97 78.8754 224.208 79.1132 224.501 79.1132Z" fill="#E373FF"/>
<path d="M230.603 75.5922C230.896 75.5922 231.134 75.3544 231.134 75.061C231.134 74.7676 230.896 74.5298 230.603 74.5298C230.309 74.5298 230.071 74.7676 230.071 75.061C230.071 75.3544 230.309 75.5922 230.603 75.5922Z" fill="#E373FF"/>
<path d="M236.704 72.0634C236.997 72.0634 237.235 71.8256 237.235 71.5322C237.235 71.2388 236.997 71.001 236.704 71.001C236.411 71.001 236.173 71.2388 236.173 71.5322C236.173 71.8256 236.411 72.0634 236.704 72.0634Z" fill="#E373FF"/>
<path d="M218.399 89.6845C218.693 89.6845 218.931 89.4467 218.931 89.1533C218.931 88.8599 218.693 88.6221 218.399 88.6221C218.106 88.6221 217.868 88.8599 217.868 89.1533C217.868 89.4467 218.106 89.6845 218.399 89.6845Z" fill="#E373FF"/>
<path d="M212.299 93.206C212.592 93.206 212.83 92.9682 212.83 92.6748C212.83 92.3814 212.592 92.1436 212.299 92.1436C212.005 92.1436 211.768 92.3814 211.768 92.6748C211.768 92.9682 212.005 93.206 212.299 93.206Z" fill="#E373FF"/>
<path d="M224.501 86.1557C224.794 86.1557 225.032 85.9179 225.032 85.6245C225.032 85.3311 224.794 85.0933 224.501 85.0933C224.208 85.0933 223.97 85.3311 223.97 85.6245C223.97 85.9179 224.208 86.1557 224.501 86.1557Z" fill="#E373FF"/>
<path d="M206.197 96.727C206.491 96.727 206.728 96.4892 206.728 96.1958C206.728 95.9024 206.491 95.6646 206.197 95.6646C205.904 95.6646 205.666 95.9024 205.666 96.1958C205.666 96.4892 205.904 96.727 206.197 96.727Z" fill="#E373FF"/>
<path d="M200.096 100.256C200.389 100.256 200.627 100.018 200.627 99.7246C200.627 99.4312 200.389 99.1934 200.096 99.1934C199.802 99.1934 199.564 99.4312 199.564 99.7246C199.564 100.018 199.802 100.256 200.096 100.256Z" fill="#E373FF"/>
<path d="M230.603 82.6342C230.896 82.6342 231.134 82.3964 231.134 82.103C231.134 81.8096 230.896 81.5718 230.603 81.5718C230.309 81.5718 230.071 81.8096 230.071 82.103C230.071 82.3964 230.309 82.6342 230.603 82.6342Z" fill="#E373FF"/>
<path d="M236.704 79.1132C236.997 79.1132 237.235 78.8754 237.235 78.582C237.235 78.2886 236.997 78.0508 236.704 78.0508C236.411 78.0508 236.173 78.2886 236.173 78.582C236.173 78.8754 236.411 79.1132 236.704 79.1132Z" fill="#E373FF"/>
<path d="M242.812 75.5922C243.106 75.5922 243.344 75.3544 243.344 75.061C243.344 74.7676 243.106 74.5298 242.812 74.5298C242.519 74.5298 242.281 74.7676 242.281 75.061C242.281 75.3544 242.519 75.5922 242.812 75.5922Z" fill="#E373FF"/>
<path d="M224.501 93.206C224.794 93.206 225.032 92.9682 225.032 92.6748C225.032 92.3814 224.794 92.1436 224.501 92.1436C224.208 92.1436 223.97 92.3814 223.97 92.6748C223.97 92.9682 224.208 93.206 224.501 93.206Z" fill="#E373FF"/>
<path d="M218.399 96.727C218.693 96.727 218.931 96.4892 218.931 96.1958C218.931 95.9024 218.693 95.6646 218.399 95.6646C218.106 95.6646 217.868 95.9024 217.868 96.1958C217.868 96.4892 218.106 96.727 218.399 96.727Z" fill="#E373FF"/>
<path d="M230.603 89.6845C230.896 89.6845 231.134 89.4467 231.134 89.1533C231.134 88.8599 230.896 88.6221 230.603 88.6221C230.309 88.6221 230.071 88.8599 230.071 89.1533C230.071 89.4467 230.309 89.6845 230.603 89.6845Z" fill="#E373FF"/>
<path d="M212.299 100.256C212.592 100.256 212.83 100.018 212.83 99.7246C212.83 99.4312 212.592 99.1934 212.299 99.1934C212.005 99.1934 211.768 99.4312 211.768 99.7246C211.768 100.018 212.005 100.256 212.299 100.256Z" fill="#E373FF"/>
<path d="M206.197 103.777C206.491 103.777 206.728 103.539 206.728 103.246C206.728 102.952 206.491 102.714 206.197 102.714C205.904 102.714 205.666 102.952 205.666 103.246C205.666 103.539 205.904 103.777 206.197 103.777Z" fill="#E373FF"/>
<path d="M236.704 86.1557C236.997 86.1557 237.235 85.9179 237.235 85.6245C237.235 85.3311 236.997 85.0933 236.704 85.0933C236.411 85.0933 236.173 85.3311 236.173 85.6245C236.173 85.9179 236.411 86.1557 236.704 86.1557Z" fill="#E373FF"/>
<path d="M242.812 82.6342C243.106 82.6342 243.344 82.3964 243.344 82.103C243.344 81.8096 243.106 81.5718 242.812 81.5718C242.519 81.5718 242.281 81.8096 242.281 82.103C242.281 82.3964 242.519 82.6342 242.812 82.6342Z" fill="#E373FF"/>
<path d="M248.914 79.1132C249.207 79.1132 249.445 78.8754 249.445 78.582C249.445 78.2886 249.207 78.0508 248.914 78.0508C248.621 78.0508 248.383 78.2886 248.383 78.582C248.383 78.8754 248.621 79.1132 248.914 79.1132Z" fill="#E373FF"/>
<path d="M230.603 96.727C230.896 96.727 231.134 96.4892 231.134 96.1958C231.134 95.9024 230.896 95.6646 230.603 95.6646C230.309 95.6646 230.071 95.9024 230.071 96.1958C230.071 96.4892 230.309 96.727 230.603 96.727Z" fill="#E373FF"/>
<path d="M224.501 100.256C224.794 100.256 225.032 100.018 225.032 99.7246C225.032 99.4312 224.794 99.1934 224.501 99.1934C224.208 99.1934 223.97 99.4312 223.97 99.7246C223.97 100.018 224.208 100.256 224.501 100.256Z" fill="#E373FF"/>
<path d="M236.704 93.206C236.997 93.206 237.235 92.9682 237.235 92.6748C237.235 92.3814 236.997 92.1436 236.704 92.1436C236.411 92.1436 236.173 92.3814 236.173 92.6748C236.173 92.9682 236.411 93.206 236.704 93.206Z" fill="#E373FF"/>
<path d="M218.399 103.777C218.693 103.777 218.931 103.539 218.931 103.246C218.931 102.952 218.693 102.714 218.399 102.714C218.106 102.714 217.868 102.952 217.868 103.246C217.868 103.539 218.106 103.777 218.399 103.777Z" fill="#E373FF"/>
<path d="M242.812 89.6845C243.106 89.6845 243.344 89.4467 243.344 89.1533C243.344 88.8599 243.106 88.6221 242.812 88.6221C242.519 88.6221 242.281 88.8599 242.281 89.1533C242.281 89.4467 242.519 89.6845 242.812 89.6845Z" fill="#E373FF"/>
<path d="M248.914 86.1557C249.207 86.1557 249.445 85.9179 249.445 85.6245C249.445 85.3311 249.207 85.0933 248.914 85.0933C248.621 85.0933 248.383 85.3311 248.383 85.6245C248.383 85.9179 248.621 86.1557 248.914 86.1557Z" fill="#E373FF"/>
<path d="M255.016 82.6342C255.309 82.6342 255.547 82.3964 255.547 82.103C255.547 81.8096 255.309 81.5718 255.016 81.5718C254.722 81.5718 254.484 81.8096 254.484 82.103C254.484 82.3964 254.722 82.6342 255.016 82.6342Z" fill="#E373FF"/>
<path d="M181.784 40.3573C182.078 40.3573 182.315 40.1195 182.315 39.8261C182.315 39.5328 182.078 39.2949 181.784 39.2949C181.491 39.2949 181.253 39.5328 181.253 39.8261C181.253 40.1195 181.491 40.3573 181.784 40.3573Z" fill="#E373FF"/>
<path d="M151.269 57.9706C151.563 57.9706 151.801 57.7328 151.801 57.4394C151.801 57.146 151.563 56.9082 151.269 56.9082C150.976 56.9082 150.738 57.146 150.738 57.4394C150.738 57.7328 150.976 57.9706 151.269 57.9706Z" fill="#E373FF"/>
<path d="M157.378 61.4999C157.671 61.4999 157.909 61.2621 157.909 60.9687C157.909 60.6753 157.671 60.4375 157.378 60.4375C157.085 60.4375 156.847 60.6753 156.847 60.9687C156.847 61.2621 157.085 61.4999 157.378 61.4999Z" fill="#E373FF"/>
<path d="M145.168 61.4999C145.461 61.4999 145.699 61.2621 145.699 60.9687C145.699 60.6753 145.461 60.4375 145.168 60.4375C144.875 60.4375 144.637 60.6753 144.637 60.9687C144.637 61.2621 144.875 61.4999 145.168 61.4999Z" fill="#E373FF"/>
<path d="M151.269 65.0209C151.563 65.0209 151.801 64.7831 151.801 64.4897C151.801 64.1963 151.563 63.9585 151.269 63.9585C150.976 63.9585 150.738 64.1963 150.738 64.4897C150.738 64.7831 150.976 65.0209 151.269 65.0209Z" fill="#E373FF"/>
<path d="M157.378 68.5419C157.671 68.5419 157.909 68.3041 157.909 68.0107C157.909 67.7173 157.671 67.4795 157.378 67.4795C157.085 67.4795 156.847 67.7173 156.847 68.0107C156.847 68.3041 157.085 68.5419 157.378 68.5419Z" fill="#E373FF"/>
<path d="M145.168 68.5419C145.461 68.5419 145.699 68.3041 145.699 68.0107C145.699 67.7173 145.461 67.4795 145.168 67.4795C144.875 67.4795 144.637 67.7173 144.637 68.0107C144.637 68.3041 144.875 68.5419 145.168 68.5419Z" fill="#E373FF"/>
<path d="M151.269 72.0634C151.563 72.0634 151.801 71.8256 151.801 71.5322C151.801 71.2388 151.563 71.001 151.269 71.001C150.976 71.001 150.738 71.2388 150.738 71.5322C150.738 71.8256 150.976 72.0634 151.269 72.0634Z" fill="#E373FF"/>
<path d="M139.066 65.0209C139.36 65.0209 139.598 64.7831 139.598 64.4897C139.598 64.1963 139.36 63.9585 139.066 63.9585C138.773 63.9585 138.535 64.1963 138.535 64.4897C138.535 64.7831 138.773 65.0209 139.066 65.0209Z" fill="#E373FF"/>
<path d="M157.378 75.5922C157.671 75.5922 157.909 75.3544 157.909 75.061C157.909 74.7676 157.671 74.5298 157.378 74.5298C157.085 74.5298 156.847 74.7676 156.847 75.061C156.847 75.3544 157.085 75.5922 157.378 75.5922Z" fill="#E373FF"/>
<path d="M145.168 54.4496C145.461 54.4496 145.699 54.2118 145.699 53.9184C145.699 53.625 145.461 53.3872 145.168 53.3872C144.875 53.3872 144.637 53.625 144.637 53.9184C144.637 54.2118 144.875 54.4496 145.168 54.4496Z" fill="#E373FF"/>
<path d="M139.066 57.9706C139.36 57.9706 139.598 57.7328 139.598 57.4394C139.598 57.146 139.36 56.9082 139.066 56.9082C138.773 56.9082 138.535 57.146 138.535 57.4394C138.535 57.7328 138.773 57.9706 139.066 57.9706Z" fill="#E373FF"/>
<path d="M157.378 47.3998C157.671 47.3998 157.909 47.162 157.909 46.8686C157.909 46.5752 157.671 46.3374 157.378 46.3374C157.085 46.3374 156.847 46.5752 156.847 46.8686C156.847 47.162 157.085 47.3998 157.378 47.3998Z" fill="#E373FF"/>
<path d="M151.269 50.9282C151.563 50.9282 151.801 50.6903 151.801 50.3969C151.801 50.1036 151.563 49.8657 151.269 49.8657C150.976 49.8657 150.738 50.1036 150.738 50.3969C150.738 50.6903 150.976 50.9282 151.269 50.9282Z" fill="#E373FF"/>
<path d="M163.479 43.8783C163.773 43.8783 164.011 43.6405 164.011 43.3471C164.011 43.0537 163.773 42.8159 163.479 42.8159C163.186 42.8159 162.948 43.0537 162.948 43.3471C162.948 43.6405 163.186 43.8783 163.479 43.8783Z" fill="#E373FF"/>
<path d="M132.965 61.4999C133.258 61.4999 133.496 61.2621 133.496 60.9687C133.496 60.6753 133.258 60.4375 132.965 60.4375C132.671 60.4375 132.434 60.6753 132.434 60.9687C132.434 61.2621 132.671 61.4999 132.965 61.4999Z" fill="#E373FF"/>
<path d="M145.168 40.3573C145.461 40.3573 145.699 40.1195 145.699 39.8261C145.699 39.5328 145.461 39.2949 145.168 39.2949C144.875 39.2949 144.637 39.5328 144.637 39.8261C144.637 40.1195 144.875 40.3573 145.168 40.3573Z" fill="#E373FF"/>
<path d="M139.066 43.8783C139.36 43.8783 139.598 43.6405 139.598 43.3471C139.598 43.0537 139.36 42.8159 139.066 42.8159C138.773 42.8159 138.535 43.0537 138.535 43.3471C138.535 43.6405 138.773 43.8783 139.066 43.8783Z" fill="#E373FF"/>
<path d="M132.965 47.3998C133.258 47.3998 133.496 47.162 133.496 46.8686C133.496 46.5752 133.258 46.3374 132.965 46.3374C132.671 46.3374 132.434 46.5752 132.434 46.8686C132.434 47.162 132.671 47.3998 132.965 47.3998Z" fill="#E373FF"/>
<path d="M126.863 50.9282C127.157 50.9282 127.394 50.6903 127.394 50.3969C127.394 50.1036 127.157 49.8657 126.863 49.8657C126.57 49.8657 126.332 50.1036 126.332 50.3969C126.332 50.6903 126.57 50.9282 126.863 50.9282Z" fill="#E373FF"/>
<path d="M145.168 47.3998C145.461 47.3998 145.699 47.162 145.699 46.8686C145.699 46.5752 145.461 46.3374 145.168 46.3374C144.875 46.3374 144.637 46.5752 144.637 46.8686C144.637 47.162 144.875 47.3998 145.168 47.3998Z" fill="#E373FF"/>
<path d="M139.066 50.9282C139.36 50.9282 139.598 50.6903 139.598 50.3969C139.598 50.1036 139.36 49.8657 139.066 49.8657C138.773 49.8657 138.535 50.1036 138.535 50.3969C138.535 50.6903 138.773 50.9282 139.066 50.9282Z" fill="#E373FF"/>
<path d="M151.269 43.8783C151.563 43.8783 151.801 43.6405 151.801 43.3471C151.801 43.0537 151.563 42.8159 151.269 42.8159C150.976 42.8159 150.738 43.0537 150.738 43.3471C150.738 43.6405 150.976 43.8783 151.269 43.8783Z" fill="#E373FF"/>
<path d="M132.965 54.4496C133.258 54.4496 133.496 54.2118 133.496 53.9184C133.496 53.625 133.258 53.3872 132.965 53.3872C132.671 53.3872 132.434 53.625 132.434 53.9184C132.434 54.2118 132.671 54.4496 132.965 54.4496Z" fill="#E373FF"/>
<path d="M126.863 57.9706C127.157 57.9706 127.394 57.7328 127.394 57.4394C127.394 57.146 127.157 56.9082 126.863 56.9082C126.57 56.9082 126.332 57.146 126.332 57.4394C126.332 57.7328 126.57 57.9706 126.863 57.9706Z" fill="#E373FF"/>
<path d="M169.581 40.3573C169.874 40.3573 170.112 40.1195 170.112 39.8261C170.112 39.5328 169.874 39.2949 169.581 39.2949C169.288 39.2949 169.05 39.5328 169.05 39.8261C169.05 40.1195 169.288 40.3573 169.581 40.3573Z" fill="#E373FF"/>
<path d="M157.378 33.3071C157.671 33.3071 157.909 33.0692 157.909 32.7758C157.909 32.4825 157.671 32.2446 157.378 32.2446C157.085 32.2446 156.847 32.4825 156.847 32.7758C156.847 33.0692 157.085 33.3071 157.378 33.3071Z" fill="#E373FF"/>
<path d="M151.269 36.8359C151.563 36.8359 151.801 36.598 151.801 36.3047C151.801 36.0113 151.563 35.7734 151.269 35.7734C150.976 35.7734 150.738 36.0113 150.738 36.3047C150.738 36.598 150.976 36.8359 151.269 36.8359Z" fill="#E373FF"/>
<path d="M157.378 40.3573C157.671 40.3573 157.909 40.1195 157.909 39.8261C157.909 39.5328 157.671 39.2949 157.378 39.2949C157.085 39.2949 156.847 39.5328 156.847 39.8261C156.847 40.1195 157.085 40.3573 157.378 40.3573Z" fill="#E373FF"/>
<path d="M163.479 36.8359C163.773 36.8359 164.011 36.598 164.011 36.3047C164.011 36.0113 163.773 35.7734 163.479 35.7734C163.186 35.7734 162.948 36.0113 162.948 36.3047C162.948 36.598 163.186 36.8359 163.479 36.8359Z" fill="#E373FF"/>
<path d="M175.683 36.8359C175.976 36.8359 176.214 36.598 176.214 36.3047C176.214 36.0113 175.976 35.7734 175.683 35.7734C175.389 35.7734 175.151 36.0113 175.151 36.3047C175.151 36.598 175.389 36.8359 175.683 36.8359Z" fill="#E373FF"/>
<path d="M163.479 29.7861C163.773 29.7861 164.011 29.5482 164.011 29.2548C164.011 28.9615 163.773 28.7236 163.479 28.7236C163.186 28.7236 162.948 28.9615 162.948 29.2548C162.948 29.5482 163.186 29.7861 163.479 29.7861Z" fill="#E373FF"/>
<path d="M169.581 33.3071C169.874 33.3071 170.112 33.0692 170.112 32.7758C170.112 32.4825 169.874 32.2446 169.581 32.2446C169.288 32.2446 169.05 32.4825 169.05 32.7758C169.05 33.0692 169.288 33.3071 169.581 33.3071Z" fill="#E373FF"/>
<path d="M120.762 54.4496C121.055 54.4496 121.293 54.2118 121.293 53.9184C121.293 53.625 121.055 53.3872 120.762 53.3872C120.468 53.3872 120.23 53.625 120.23 53.9184C120.23 54.2118 120.468 54.4496 120.762 54.4496Z" fill="#E373FF"/>
<path d="M220.441 88.5538C217.922 87.0967 217.914 84.729 220.411 83.272C222.908 81.8149 226.975 81.8149 229.487 83.272L246.478 93.0843C248.998 94.5414 249.005 96.9091 246.509 98.3661C244.012 99.8232 239.944 99.8232 237.425 98.3661L220.434 88.5538H220.441Z" fill="#232323"/>
<path d="M176.077 54.6544C173.557 53.1973 173.55 50.8296 176.047 49.3726C178.543 47.9155 182.611 47.9155 185.123 49.3726L202.114 59.1849C204.634 60.6419 204.641 63.0096 202.144 64.4667C199.648 65.9237 195.58 65.9237 193.061 64.4667L176.069 54.6544H176.077Z" fill="#232323"/>
<path d="M142.277 79.9786C139.758 78.5215 139.75 76.1538 142.247 74.6968C144.743 73.2397 148.811 73.2397 151.323 74.6968L181.39 92.06C183.909 93.517 183.917 95.8847 181.42 97.3418C178.923 98.7988 174.856 98.7988 172.336 97.3418L142.27 79.9786H142.277Z" fill="#232323"/>
<path d="M97.6092 94.5338C95.0897 93.0767 95.0821 90.709 97.5788 89.252C100.076 87.7949 104.143 87.7949 106.655 89.252L123.646 99.0643C126.166 100.521 126.173 102.889 123.677 104.346C121.18 105.803 117.112 105.803 114.593 104.346L97.6016 94.5338H97.6092Z" fill="#232323"/>
<path d="M165.073 120.427C162.554 118.97 162.546 116.602 165.043 115.145C167.539 113.688 171.607 113.688 174.119 115.145L191.11 124.957C193.63 126.414 193.637 128.782 191.141 130.239C188.644 131.696 184.576 131.696 182.057 130.239L165.065 120.427H165.073Z" fill="#232323"/>
<path d="M187.035 48.2647C188.826 49.3044 189.714 50.6628 189.714 52.0211C189.714 53.3795 188.834 54.7152 187.073 55.7397C183.537 57.8038 177.777 57.8038 174.218 55.7397C172.427 54.7 171.539 53.3416 171.539 51.9832C171.539 50.6248 172.419 49.2892 174.18 48.2571C177.716 46.1929 183.469 46.1929 187.028 48.2571L187.035 48.2647Z" fill="#6A36CA"/>
<path d="M176.108 25.4907C178.627 24.0337 182.687 24.0337 185.184 25.4907C186.436 26.2193 187.059 27.1754 187.051 28.1316V52.0136C187.051 52.9698 186.414 53.926 185.154 54.6545C182.634 56.1116 178.574 56.1116 176.07 54.6545C174.818 53.926 174.203 52.9698 174.203 52.0136V28.1316C174.203 27.1754 174.841 26.2193 176.1 25.4907H176.108Z" fill="#9B66FF"/>
<path d="M185.184 25.4907C187.704 26.9478 187.711 29.3155 185.214 30.7725C182.718 32.2296 178.65 32.2296 176.131 30.7725C173.611 29.3155 173.604 26.9478 176.1 25.4907C178.597 24.0337 182.665 24.0337 185.177 25.4907H185.184Z" fill="#666BFF"/>
<path d="M174.241 28.1318C174.241 29.088 174.878 30.0442 176.138 30.7727C177.382 31.4937 179.006 31.8579 180.638 31.8655V55.7475C178.991 55.7475 177.337 55.3832 176.085 54.6547C174.832 53.9262 174.218 52.97 174.218 52.0138V28.1318H174.248H174.241Z" fill="#232323"/>
<path d="M174.241 28.1318C174.241 29.088 174.878 30.0442 176.138 30.7727C177.382 31.4937 179.006 31.8579 180.638 31.8655V55.7475C178.991 55.7475 177.337 55.3832 176.085 54.6547C174.832 53.9262 174.218 52.97 174.218 52.0138V28.1318H174.248H174.241Z" fill="url(#paint2_linear_38_203)"/>
<path d="M176.108 1.09279C178.627 -0.364263 182.687 -0.364263 185.184 1.09279C186.436 1.82131 187.059 2.7775 187.051 3.73369V28.1317C187.051 29.0879 186.414 30.0441 185.154 30.7726C182.634 32.2296 178.574 32.2296 176.07 30.7726C174.818 30.0441 174.203 29.0879 174.203 28.1317V3.73369C174.203 2.7775 174.841 1.82131 176.1 1.09279H176.108Z" fill="#232323"/>
<path d="M176.108 1.09279C178.627 -0.364263 182.687 -0.364263 185.184 1.09279C186.436 1.82131 187.059 2.7775 187.051 3.73369V28.1317C187.051 29.0879 186.414 30.0441 185.154 30.7726C182.634 32.2296 178.574 32.2296 176.07 30.7726C174.818 30.0441 174.203 29.0879 174.203 28.1317V3.73369C174.203 2.7775 174.841 1.82131 176.1 1.09279H176.108Z" fill="url(#paint3_linear_38_203)"/>
<path d="M185.184 1.09279C187.704 2.54984 187.711 4.91754 185.214 6.37459C182.718 7.83165 178.65 7.83165 176.131 6.37459C173.611 4.91754 173.604 2.54984 176.1 1.09279C178.597 -0.364263 182.665 -0.364263 185.177 1.09279H185.184Z" fill="#B48CFF"/>
<path d="M174.241 3.73389C174.241 4.69008 174.878 5.64626 176.138 6.37479C177.382 7.09573 179.006 7.45999 180.638 7.46758V31.8732C178.991 31.8732 177.337 31.5089 176.085 30.7804C174.832 30.0519 174.218 29.0957 174.218 28.1395V3.74148H174.248L174.241 3.73389Z" fill="#9B66FF"/>
<path d="M207.457 83.9854L169.172 79.7812" stroke="#7D78FF" stroke-width="0.75888" stroke-linecap="round" stroke-linejoin="round"/>
<path d="M64.4531 70.4619L102.45 92.1431L127.584 83.7575" stroke="url(#paint4_linear_38_203)" stroke-width="0.75888" stroke-linecap="round" stroke-linejoin="round"/>
<path d="M237.638 93.2056L251.457 101.181" stroke="#7D78FF" stroke-width="0.75888" stroke-linecap="round" stroke-linejoin="round"/>
<path d="M237.554 78.5746C241.06 80.6084 242.813 83.2721 242.813 85.9358C242.813 88.5994 241.09 91.2176 237.637 93.2286C230.701 97.2735 219.424 97.281 212.443 93.2286C208.937 91.1948 207.184 88.5311 207.184 85.8751C207.184 83.219 208.914 80.5933 212.367 78.5746C219.295 74.5298 230.572 74.5298 237.554 78.5746Z" stroke="#7D78FF" stroke-width="0.75888" stroke-linecap="round" stroke-linejoin="round"/>
<path d="M162.494 68.1853C166.865 70.72 169.05 74.0439 169.05 77.3678C169.05 80.6916 166.903 83.9548 162.592 86.4667C153.941 91.5133 139.871 91.5209 131.167 86.4667C126.796 83.9321 124.61 80.6082 124.61 77.2919C124.61 73.9756 126.766 70.7048 131.076 68.1853C139.72 63.1388 153.782 63.1388 162.494 68.1853Z" stroke="#E373FF" stroke-width="0.75888" stroke-linecap="round" stroke-linejoin="round"/>
<path d="M153.212 73.6037C154.995 74.6358 155.883 75.9942 155.883 77.345C155.883 78.6958 155.003 80.0314 153.25 81.0483C149.721 83.1049 143.991 83.1049 140.44 81.0483C138.656 80.0163 137.769 78.6579 137.769 77.3071C137.769 75.9563 138.649 74.6206 140.402 73.5961C143.923 71.5396 149.66 71.5396 153.204 73.5961L153.212 73.6037Z" fill="#E373FF"/>
<path d="M142.307 7.80128C144.827 6.34423 148.887 6.34423 151.383 7.80128C152.635 8.52981 153.258 9.486 153.25 10.4422V77.3375C153.25 78.2937 152.613 79.2499 151.353 79.9784C148.833 81.4354 144.773 81.4354 142.269 79.9784C141.017 79.2499 140.402 78.2937 140.402 77.3375V10.4422C140.402 9.486 141.04 8.52981 142.3 7.80128H142.307Z" fill="#E373FF"/>
<path d="M151.383 7.80128C153.903 9.25833 153.91 11.626 151.414 13.0831C148.917 14.5401 144.849 14.5401 142.33 13.0831C139.81 11.626 139.803 9.25833 142.3 7.80128C144.796 6.34423 148.864 6.34423 151.376 7.80128H151.383Z" fill="#EDA5FF"/>
<path d="M140.433 10.4424C140.433 11.3986 141.07 12.3548 142.33 13.0833C143.575 13.8042 145.199 14.1685 146.83 14.1761V81.079C145.184 81.079 143.529 80.7147 142.277 79.9862C141.025 79.2577 140.41 78.3015 140.41 77.3453V10.45H140.441L140.433 10.4424Z" fill="#232323"/>
<path d="M140.433 10.4424C140.433 11.3986 141.07 12.3548 142.33 13.0833C143.575 13.8042 145.199 14.1685 146.83 14.1761V81.079C145.184 81.079 143.529 80.7147 142.277 79.9862C141.025 79.2577 140.41 78.3015 140.41 77.3453V10.45H140.441L140.433 10.4424Z" fill="url(#paint5_linear_38_203)"/>
<path d="M176.123 113.984C177.937 115.039 178.84 116.412 178.84 117.793C178.84 119.174 177.944 120.525 176.161 121.565C172.571 123.659 166.736 123.659 163.131 121.565C161.317 120.518 160.414 119.137 160.414 117.755C160.414 116.374 161.31 115.023 163.093 113.976C166.675 111.882 172.511 111.882 176.123 113.976V113.984Z" fill="#E373FF"/>
<path d="M165.104 69.1265C167.623 67.6694 171.684 67.6694 174.18 69.1265C175.432 69.855 176.055 70.8112 176.047 71.7674V117.786C176.047 118.742 175.41 119.698 174.15 120.427C171.63 121.884 167.57 121.884 165.066 120.427C163.814 119.698 163.199 118.742 163.199 117.786V71.7674C163.199 70.8112 163.837 69.855 165.096 69.1265H165.104Z" fill="#E373FF"/>
<path d="M173.982 69.4552L174.07 69.5065H174.076C175.205 70.1855 175.693 71.0139 175.696 71.7693C175.7 72.543 175.197 73.3927 174.019 74.0801C172.843 74.7666 171.272 75.1211 169.677 75.1211C168.083 75.1211 166.506 74.7667 165.317 74.0793C164.127 73.3911 163.614 72.5399 163.61 71.7655C163.607 70.9918 164.11 70.1421 165.288 69.4547C166.464 68.7681 168.035 68.4137 169.629 68.4137C171.222 68.4137 172.797 68.7681 173.982 69.4552Z" fill="#232323" stroke="#E373FF" stroke-width="0.76"/>
<path d="M163.237 71.7671C163.237 72.7233 163.874 73.6795 165.134 74.408C166.378 75.1289 168.002 75.4932 169.634 75.5008V121.519C167.987 121.519 166.333 121.155 165.081 120.426C163.829 119.698 163.214 118.742 163.214 117.786V71.7671H163.244H163.237Z" fill="#232323"/>
<path d="M163.237 71.7671C163.237 72.7233 163.874 73.6795 165.134 74.408C166.378 75.1289 168.002 75.4932 169.634 75.5008V121.519C167.987 121.519 166.333 121.155 165.081 120.426C163.829 119.698 163.214 118.742 163.214 117.786V71.7671H163.244H163.237Z" fill="url(#paint6_linear_38_203)"/>
<path d="M165.104 47.4375C167.623 45.9805 171.684 45.9805 174.18 47.4375C175.432 48.166 176.055 49.1222 176.047 50.0784V66.8876C176.047 67.8438 175.41 68.8 174.15 69.5285C171.63 70.9856 167.57 70.9856 165.066 69.5285C163.814 68.8 163.199 67.8438 163.199 66.8876V50.0784C163.199 49.1222 163.837 48.166 165.096 47.4375H165.104Z" fill="#232323"/>
<path d="M165.104 47.4375C167.623 45.9805 171.684 45.9805 174.18 47.4375C175.432 48.166 176.055 49.1222 176.047 50.0784V66.8876C176.047 67.8438 175.41 68.8 174.15 69.5285C171.63 70.9856 167.57 70.9856 165.066 69.5285C163.814 68.8 163.199 67.8438 163.199 66.8876V50.0784C163.199 49.1222 163.837 48.166 165.096 47.4375H165.104Z" fill="url(#paint7_linear_38_203)"/>
<path d="M174.18 47.4375C176.7 48.8946 176.707 51.2623 174.211 52.7193C171.714 54.1764 167.646 54.1764 165.127 52.7193C162.607 51.2623 162.6 48.8946 165.096 47.4375C167.593 45.9805 171.661 45.9805 174.173 47.4375H174.18Z" fill="#EDA5FF"/>
<path d="M163.237 50.0786C163.237 51.0348 163.874 51.991 165.134 52.7195C166.378 53.4405 168.002 53.8047 169.634 53.8123V70.6291C167.987 70.6291 166.333 70.2648 165.081 69.5363C163.829 68.8078 163.214 67.8516 163.214 66.8954V50.0862H163.244L163.237 50.0786Z" fill="#E373FF"/>
<path d="M231.528 82.0883C233.35 83.1431 234.26 84.5319 234.26 85.9131C234.26 87.2942 233.365 88.6602 231.566 89.7075C227.962 91.8096 222.088 91.8171 218.46 89.7075C216.639 88.6526 215.729 87.2639 215.729 85.8827C215.729 84.5015 216.624 83.1355 218.423 82.0883C222.027 79.9862 227.893 79.9862 231.528 82.0883Z" fill="#5853DF"/>
<path d="M220.472 37.2534C222.992 35.7964 227.052 35.7964 229.548 37.2534C230.801 37.982 231.423 38.9381 231.415 39.8943V85.9128C231.415 86.869 230.778 87.8252 229.518 88.5537C226.999 90.0108 222.939 90.0108 220.434 88.5537C219.182 87.8252 218.567 86.869 218.567 85.9128V39.8943C218.567 38.9381 219.205 37.982 220.465 37.2534H220.472Z" fill="#7D78FF"/>
<path d="M229.357 37.5821L229.445 37.6334H229.451C230.58 38.3124 231.068 39.1409 231.071 39.8962C231.075 40.6699 230.572 41.5196 229.394 42.207C228.218 42.8936 226.647 43.248 225.052 43.248C223.458 43.248 221.881 42.8936 220.692 42.2063C219.502 41.518 218.989 40.6668 218.985 39.8925C218.982 39.1188 219.485 38.269 220.663 37.5816C221.839 36.8951 223.41 36.5406 225.004 36.5406C226.597 36.5406 228.172 36.895 229.357 37.5821Z" fill="#232323" stroke="#7D78FF" stroke-width="0.76"/>
<path d="M218.605 39.8945C218.605 40.8507 219.242 41.8069 220.502 42.5354C221.747 43.2564 223.371 43.6206 225.002 43.6282V89.6467C223.355 89.6467 221.701 89.2825 220.449 88.5539C219.197 87.8254 218.582 86.8692 218.582 85.913V39.8945H218.612H218.605Z" fill="#232323"/>
<path d="M218.605 39.8945C218.605 40.8507 219.242 41.8069 220.502 42.5354C221.747 43.2564 223.371 43.6206 225.002 43.6282V89.6467C223.355 89.6467 221.701 89.2825 220.449 88.5539C219.197 87.8254 218.582 86.8692 218.582 85.913V39.8945H218.612H218.605Z" fill="url(#paint8_linear_38_203)"/>
<path d="M220.509 13.1665C223.029 11.7095 227.089 11.7095 229.585 13.1665C230.838 13.895 231.46 14.8512 231.452 15.8074V25.0278C231.452 25.984 230.815 26.9402 229.555 27.6687C227.036 29.1258 222.976 29.1258 220.471 27.6687C219.219 26.9402 218.604 25.984 218.604 25.0278V15.8074C218.604 14.8512 219.242 13.895 220.502 13.1665H220.509Z" fill="#232323"/>
<path d="M220.509 13.1665C223.029 11.7095 227.089 11.7095 229.585 13.1665C230.838 13.895 231.46 14.8512 231.452 15.8074V25.0278C231.452 25.984 230.815 26.9402 229.555 27.6687C227.036 29.1258 222.976 29.1258 220.471 27.6687C219.219 26.9402 218.604 25.984 218.604 25.0278V15.8074C218.604 14.8512 219.242 13.895 220.502 13.1665H220.509Z" fill="url(#paint9_linear_38_203)"/>
<path d="M229.585 13.1665C232.105 14.6236 232.113 16.9913 229.616 18.4483C227.119 19.9054 223.052 19.9054 220.532 18.4483C218.013 16.9913 218.005 14.6236 220.502 13.1665C222.998 11.7095 227.066 11.7095 229.578 13.1665H229.585Z" fill="#A4A0FF"/>
<path d="M218.643 15.8076C218.643 16.7638 219.28 17.72 220.54 18.4485C221.785 19.1695 223.409 19.5337 225.04 19.5413V28.7693C223.393 28.7693 221.739 28.405 220.487 27.6765C219.235 26.948 218.62 25.9918 218.62 25.0356V15.8152H218.65L218.643 15.8076Z" fill="#7D78FF"/>
<path d="M108.53 88.1669C110.305 89.199 111.193 90.5498 111.193 91.9006C111.193 93.2514 110.32 94.5794 108.567 95.5963C105.054 97.6453 99.3319 97.6529 95.7955 95.5963C94.0197 94.5642 93.1318 93.2134 93.1318 91.8626C93.1318 90.5118 94.0045 89.1838 95.7576 88.1593C99.2712 86.1103 104.986 86.1103 108.53 88.1593V88.1669Z" fill="#5853DF"/>
<path d="M97.6392 69.4146C100.159 67.9575 104.219 67.9575 106.715 69.4146C107.968 70.1431 108.59 71.0993 108.582 72.0555V91.885C108.582 92.8412 107.945 93.7974 106.685 94.5259C104.166 95.983 100.106 95.983 97.6012 94.5259C96.3491 93.7974 95.7344 92.8412 95.7344 91.885V72.0555C95.7344 71.0993 96.3718 70.1431 97.6316 69.4146H97.6392Z" fill="#7D78FF"/>
<path d="M106.715 69.4146C109.235 70.8716 109.242 73.2393 106.746 74.6964C104.249 76.1534 100.181 76.1534 97.6619 74.6964C95.1424 73.2393 95.1348 70.8716 97.6315 69.4146C100.128 67.9575 104.196 67.9575 106.708 69.4146H106.715Z" fill="#666BFF"/>
<path d="M95.765 72.0635C95.765 73.0197 96.4024 73.9759 97.6622 74.7044C98.9067 75.4253 100.531 75.7896 102.162 75.7972V95.6267C100.516 95.6267 98.8612 95.2624 97.609 94.5339C96.3569 93.8054 95.7422 92.8492 95.7422 91.893V72.0635H95.7725H95.765Z" fill="#232323"/>
<path d="M95.765 72.0635C95.765 73.0197 96.4024 73.9759 97.6622 74.7044C98.9067 75.4253 100.531 75.7896 102.162 75.7972V95.6267C100.516 95.6267 98.8612 95.2624 97.609 94.5339C96.3569 93.8054 95.7422 92.8492 95.7422 91.893V72.0635H95.7725H95.765Z" fill="url(#paint10_linear_38_203)"/>
<path d="M97.6392 45.7759C100.159 44.3188 104.219 44.3188 106.715 45.7759C107.968 46.5044 108.59 47.4606 108.582 48.4168V72.0559C108.582 73.0121 107.945 73.9683 106.685 74.6968C104.166 76.1539 100.106 76.1539 97.6012 74.6968C96.3491 73.9683 95.7344 73.0121 95.7344 72.0559V48.4168C95.7344 47.4606 96.3718 46.5044 97.6316 45.7759H97.6392Z" fill="#232323"/>
<path d="M97.6392 45.7759C100.159 44.3188 104.219 44.3188 106.715 45.7759C107.968 46.5044 108.59 47.4606 108.582 48.4168V72.0559C108.582 73.0121 107.945 73.9683 106.685 74.6968C104.166 76.1539 100.106 76.1539 97.6012 74.6968C96.3491 73.9683 95.7344 73.0121 95.7344 72.0559V48.4168C95.7344 47.4606 96.3718 46.5044 97.6316 45.7759H97.6392Z" fill="url(#paint11_linear_38_203)"/>
<path d="M106.715 45.7759C109.235 47.2329 109.242 49.6007 106.746 51.0577C104.249 52.5148 100.181 52.5148 97.6619 51.0577C95.1424 49.6007 95.1348 47.2329 97.6315 45.7759C100.128 44.3188 104.196 44.3188 106.708 45.7759H106.715Z" fill="#A4A0FF"/>
<path d="M95.765 48.4165C95.765 49.3727 96.4024 50.3289 97.6622 51.0574C98.9067 51.7783 100.531 52.1426 102.162 52.1502V75.7969C100.516 75.7969 98.8612 75.4326 97.609 74.7041C96.3569 73.9756 95.7422 73.0194 95.7422 72.0632V48.4241H95.7725L95.765 48.4165Z" fill="#7D78FF"/>
<path d="M163.479 151.981V162.302L283.587 92.9551V82.6343L163.479 151.981Z" fill="#E373FF"/>
<path d="M163.48 151.981V162.302L43.3721 92.9551V82.6343L163.48 151.981Z" fill="#232323"/>
<path d="M251.457 101.182L252.694 101.895C255.107 103.291 256.595 105.864 256.595 108.649V167.5C256.595 170.3 258.09 172.881 260.518 174.269L322.602 209.8" stroke="#7D78FF" stroke-width="0.75888" stroke-linecap="round" stroke-linejoin="round"/>
</g>
<defs>
<linearGradient id="paint0_linear_38_203" x1="163.294" y1="97.3865" x2="163.294" y2="157.886" gradientUnits="userSpaceOnUse">
<stop stop-color="#6B1F7E"/>
<stop offset="1" stop-color="#191919"/>
</linearGradient>
<linearGradient id="paint1_linear_38_203" x1="118.137" y1="82.6346" x2="194.951" y2="82.6346" gradientUnits="userSpaceOnUse">
<stop stop-color="#6B1F7E"/>
<stop offset="0.05" stop-color="#6B1F7E" stop-opacity="0.6889"/>
<stop offset="0.13" stop-color="#6B1F7E" stop-opacity="0.3364"/>
<stop offset="0.2" stop-color="#6B1F7E" stop-opacity="0.1369"/>
<stop offset="0.28" stop-color="#6B1F7E" stop-opacity="0.0441"/>
<stop offset="0.34" stop-color="#6B1F7E" stop-opacity="0.01"/>
<stop offset="0.4" stop-color="#6B1F7E" stop-opacity="0.01"/>
<stop offset="0.45" stop-color="#6B1F7E" stop-opacity="0"/>
</linearGradient>
<linearGradient id="paint2_linear_38_203" x1="173.907" y1="42.2259" x2="180.668" y2="42.2259" gradientUnits="userSpaceOnUse">
<stop stop-opacity="0"/>
<stop offset="1" stop-color="#9B66FF"/>
</linearGradient>
<linearGradient id="paint3_linear_38_203" x1="181.041" y1="16.263" x2="187.112" y2="16.263" gradientUnits="userSpaceOnUse">
<stop stop-color="#9B66FF"/>
<stop offset="1" stop-opacity="0"/>
</linearGradient>
<linearGradient id="paint4_linear_38_203" x1="127.615" y1="83.7043" x2="96.0188" y2="92.1431" gradientUnits="userSpaceOnUse">
<stop stop-color="#E373FF"/>
<stop offset="1" stop-color="#7D78FF"/>
</linearGradient>
<linearGradient id="paint5_linear_38_203" x1="140.516" y1="46.5196" x2="146.861" y2="46.4929" gradientUnits="userSpaceOnUse">
<stop stop-opacity="0"/>
<stop offset="1" stop-color="#E373FF"/>
</linearGradient>
<linearGradient id="paint6_linear_38_203" x1="162.523" y1="97.1589" x2="169.664" y2="97.1589" gradientUnits="userSpaceOnUse">
<stop stop-opacity="0"/>
<stop offset="1" stop-color="#E373FF"/>
</linearGradient>
<linearGradient id="paint7_linear_38_203" x1="170.037" y1="58.7347" x2="176.108" y2="58.7347" gradientUnits="userSpaceOnUse">
<stop stop-color="#E373FF"/>
<stop offset="1" stop-opacity="0"/>
</linearGradient>
<linearGradient id="paint8_linear_38_203" x1="218.681" y1="65.2864" x2="225.032" y2="65.2864" gradientUnits="userSpaceOnUse">
<stop stop-opacity="0"/>
<stop offset="1" stop-color="#7D78FF"/>
</linearGradient>
<linearGradient id="paint9_linear_38_203" x1="225.442" y1="20.5906" x2="231.513" y2="20.5906" gradientUnits="userSpaceOnUse">
<stop stop-color="#7D78FF"/>
<stop offset="1" stop-opacity="0"/>
</linearGradient>
<linearGradient id="paint10_linear_38_203" x1="95.7422" y1="84.0842" x2="102.193" y2="84.0894" gradientUnits="userSpaceOnUse">
<stop stop-opacity="0"/>
<stop offset="1" stop-color="#7D78FF"/>
</linearGradient>
<linearGradient id="paint11_linear_38_203" x1="102.572" y1="60.5588" x2="108.643" y2="60.5588" gradientUnits="userSpaceOnUse">
<stop stop-color="#7D78FF"/>
<stop offset="1" stop-opacity="0"/>
</linearGradient>
</defs>
</svg>
