<svg width="158" height="161" viewBox="0 0 158 161" fill="none" xmlns="http://www.w3.org/2000/svg">
<path d="M64.5 71.0998C64.3 71.3998 64.2 71.5998 64 71.7998C62.2 74.7998 60.3 77.6999 58.5 80.6999C56.6 83.7999 54.6 86.8998 52.7 89.9998C51.5 91.8998 50.3 93.7999 49.1 95.6999C47.7 97.9999 46.2 100.3 44.8 102.7C43.5 104.7 42.3 106.8 41 108.8C39.7 110.9 38.3 113.1 37 115.2C35.6 117.5 34.2 119.7 32.8 122C32.4 122.6 32.1 123.2 31.7 123.7C31.7 123.8 31.5 124 31.5 124.1C31.5 124.2 31.5 124.3 31.5 124.4C31.5 124.4 31.6 124.5 31.7 124.6C33.1 126.2 34.6 127.7 36.1 129.1C37.5 130.4 38.9 131.6 40.4 132.7C41.8 133.8 43.3 134.8 44.8 135.8C47.1 137.3 49.5 138.6 52 139.8C53.6 140.6 55.3 141.3 57 141.9C59.4 142.8 62 143.5 64.5 144.1C66.1 144.5 67.7 144.8 69.4 145C70.7 145.2 72 145.4 73.4 145.5C74.7 145.6 75.9 145.7 77.2 145.7C78.8 145.7 80.4 145.7 82 145.7C83.3 145.7 84.7 145.5 86 145.4C87.1 145.3 88.1 145.2 89.2 145C90.1 144.8 91 144.7 91.9 144.5C94.3 144 96.6 143.4 98.9 142.6C100.9 142 102.8 141.2 104.7 140.4C106.4 139.7 108 138.8 109.6 138C112.3 136.5 114.8 134.9 117.3 133C119 131.7 120.6 130.3 122.2 128.9C122.5 128.6 122.9 128.3 123.2 128C124.3 127.2 125.5 126.7 126.8 126.6C129.3 126.4 131.3 127.3 132.9 129.2C134.8 131.5 135.1 134 134 136.7C133.7 137.6 133.1 138.4 132.5 139C131.8 139.7 131 140.4 130.3 141.1C128.5 142.7 126.6 144.2 124.6 145.6C122.4 147.2 120.1 148.7 117.7 150.1C116.2 151 114.6 151.8 113 152.6C110.3 153.9 107.6 155.1 104.7 156.1C102.3 156.9 99.9 157.7 97.4 158.3C95.2 158.8 93.1 159.3 90.9 159.6C89.1 159.9 87.2 160.1 85.4 160.3C82 160.6 78.6 160.6 75.2 160.5C73.8 160.5 72.4 160.3 71.1 160.2C69.7 160 68.4 159.9 67 159.7C65.4 159.5 63.8 159.2 62.2 158.8C59.3 158.2 56.4 157.3 53.6 156.4C51.1 155.5 48.7 154.5 46.3 153.4C43.9 152.3 41.5 151 39.2 149.6C36.7 148.1 34.4 146.5 32.1 144.8C30.6 143.6 29.1 142.4 27.6 141.1C26.2 139.9 24.9 138.7 23.7 137.4C23.2 136.9 22.7 136.3 22.1 135.8C20.8 134.4 19.5 132.9 18.3 131.4C16.6 129.3 15 127.1 13.5 124.8C12.1 122.6 10.8 120.4 9.6 118.2C8.2 115.6 7 112.8 5.9 110C5 107.6 4.2 105.2 3.5 102.7C3 100.8 2.5 98.7998 2.1 96.7998C1.7 94.9998 1.4 93.2998 1.2 91.4998C1.2 90.7998 1 89.9998 0.900002 89.2998C0.900002 88.4998 0.700001 87.6998 0.700001 86.7998C0.700001 85.6998 0.6 84.5998 0.5 83.5998C0.5 83.3998 0.5 83.0998 0.5 82.8998C0.5 81.5998 0.5 80.3998 0.5 79.0998C0.5 77.8998 0.500001 76.5998 0.700001 75.3998C0.700001 74.7998 0.799999 74.1998 0.799999 73.5998C0.799999 72.6998 0.999998 71.8998 1.1 70.9998C1.3 69.5998 1.5 68.1998 1.7 66.7998C2.1 64.7998 2.5 62.7998 3 60.7998C3.6 58.4998 4.3 56.0998 5.1 53.8998C6.1 51.1998 7.2 48.5998 8.4 45.9998C10.2 42.2998 12.2 38.7998 14.5 35.3998C16.3 32.7998 18.2 30.2998 20.3 27.8998C22 25.8998 23.8 24.0998 25.7 22.2998C27.4 20.6998 29.3 19.0998 31.2 17.5998C33.8 15.5998 36.5 13.6998 39.3 12.0998C42.5 10.1998 45.7 8.59984 49.1 7.09984C51.1 6.29984 53.1 5.49983 55.2 4.79983C57.8 3.99983 60.4 3.29985 63 2.69985C65.1 2.29985 67.2 1.89985 69.3 1.59985C70.9 1.39985 72.6 1.29985 74.2 1.09985C76.8 0.899845 79.3 0.999845 81.9 1.09985C83.4 1.09985 84.9 1.29983 86.5 1.39983C87.7 1.49983 88.8 1.59983 90 1.79983C92 2.09983 94 2.49983 95.9 2.89983C98.1 3.39983 100.2 3.99985 102.3 4.69985C104 5.19985 105.6 5.79984 107.3 6.49984C109.2 7.29984 111.1 8.09984 113 8.99984C113.8 9.39984 114.5 9.79985 115.3 10.1999C117.6 11.3999 119.7 12.6998 121.9 14.0998C124 15.4998 126 16.9998 127.9 18.5998C129.1 19.5998 130.2 20.5998 131.4 21.5998C132.8 22.8998 134.2 24.2999 135.5 25.6999C136.4 26.5999 137.2 27.4998 138 28.4998C139.3 29.9998 140.6 31.5999 141.8 33.1999C143.6 35.5999 145.3 38.1998 146.8 40.7998C147.6 42.1998 148.4 43.5998 149.1 45.0998C150.1 47.1998 151.1 49.2998 151.9 51.4998C153.2 54.6998 154.2 58.0998 155.1 61.3998C155.6 63.4998 156.1 65.4998 156.4 67.5998C156.6 69.0998 156.8 70.5998 157 72.0998C157.1 73.1998 157.2 74.3998 157.3 75.4998C157.3 77.2998 157.5 79.0998 157.4 80.9998C157.4 81.1998 157.4 81.2998 157.4 81.4998C157.4 83.0998 157.4 84.6998 157.2 86.2998C157 88.5998 156.6 90.7998 155.9 92.9998C155 96.0998 153.7 98.9998 151.8 101.6C150 104.3 147.7 106.5 145.1 108.4C142.8 110 140.3 111.2 137.5 111.8C136.4 112.1 135.3 112.3 134.1 112.4C133 112.5 131.9 112.5 130.7 112.4C129.2 112.4 127.7 112.1 126.2 111.7C123.6 111 121.1 109.9 118.9 108.2C117.5 107.1 116.2 105.9 115 104.5C113 102 111.5 99.1998 110.5 96.0998C110.1 94.7998 109.7 93.5998 109.5 92.2998C109.3 91.0998 109.1 89.8998 109 88.5998C108.9 87.1998 108.9 85.7998 108.9 84.3998C108.9 79.9998 108.9 75.5999 108.9 71.1999C108.9 70.9999 109 70.6998 108.8 70.5998C108.6 70.5998 108.5 70.8998 108.4 71.0998C107.5 72.5998 106.5 74.0998 105.6 75.5998C104.4 77.4998 103.2 79.4998 102 81.3998C100.8 83.3998 99.5 85.3998 98.3 87.4998C97.3 89.1998 96.2 90.8998 95.2 92.5998C93.1 95.9998 91 99.3998 88.9 102.7C87.5 105 85.8 107.2 83.8 109C82.4 110.3 80.9 111.3 79.1 111.9C77.9 112.3 76.7 112.5 75.5 112.5C72.9 112.5 70.7 111.5 68.9 109.7C67.6 108.4 66.6 106.8 66 105.1C65.4 103.6 65.1 102.1 64.8 100.6C64.5 98.6998 64.4 96.7998 64.4 94.8998C64.4 87.1998 64.4 79.4999 64.4 71.6999C64.4 71.4999 64.4 71.1998 64.4 70.7998L64.5 71.0998ZM79.1 91.1999C79.3 91.1999 79.3 90.9998 79.3 90.8998C79.9 89.8998 80.6 88.7998 81.2 87.7998C82.5 85.6998 83.8 83.4998 85.1 81.3998C86.5 79.1998 87.9 76.8998 89.2 74.6999C90.1 73.2999 90.9 71.8998 91.8 70.4998C92.6 69.1998 93.4 67.8998 94.2 66.5998C95.4 64.6998 96.5 62.7998 97.9 60.8998C99.1 59.1998 100.4 57.5998 101.9 56.0998C103.2 54.8998 104.5 53.6998 106.1 52.8998C107.5 52.0998 109 51.5998 110.6 51.3998C113.2 51.1998 115.6 51.7998 117.7 53.3998C118.9 54.2998 119.9 55.4998 120.8 56.7998C122 58.6998 122.7 60.7998 123.1 62.9998C123.4 64.6998 123.5 66.4998 123.5 68.2998C123.5 73.8998 123.5 79.4998 123.5 85.0998C123.5 86.5998 123.6 88.1999 123.9 89.6999C124.2 91.3998 124.8 92.9998 125.7 94.4998C126.6 95.7998 127.7 96.7998 129.2 97.3998C129.7 97.5998 130.2 97.6998 130.7 97.7998C132.4 97.9998 134 97.7998 135.5 97.0998C137.8 95.9998 139.5 94.1998 140.8 91.8998C141.8 90.0998 142.3 88.0998 142.6 85.9998C142.7 85.0998 142.8 84.1998 142.8 83.2998C142.8 81.8998 142.8 80.4998 142.8 79.0998C142.8 78.5998 142.8 78.1999 142.8 77.6999C142.8 76.4999 142.6 75.1998 142.5 73.9998C142.5 72.7998 142.2 71.5998 142 70.3998C141.6 68.1998 141.2 65.9998 140.6 63.8998C140 61.5998 139.2 59.2998 138.4 57.0998C137.4 54.5998 136.3 52.1998 135 49.7998C134.1 48.1998 133.2 46.5998 132.2 44.9998C131 43.1998 129.8 41.4998 128.4 39.7998C127.1 38.1998 125.8 36.6999 124.4 35.1999C122.7 33.4999 120.9 31.8998 119.1 30.2998C116.9 28.4998 114.6 26.8998 112.2 25.3998C110.2 24.1998 108.2 23.0998 106.1 21.9998C104 20.9998 101.8 20.0998 99.6 19.2998C96.6 18.2998 93.5 17.3998 90.4 16.8998C89.7 16.7998 89 16.5998 88.3 16.4998C87.1 16.2998 85.8 16.1998 84.6 16.0998C83.3 16.0998 82 15.8998 80.7 15.8998C78.7 15.8998 76.7 15.8998 74.7 15.9998C74 15.9998 73.3 15.9999 72.5 16.1999C70.6 16.3999 68.7 16.6998 66.8 17.0998C64.7 17.4998 62.6 17.9999 60.6 18.6999C57.9 19.4999 55.3 20.4999 52.7 21.6999C50.6 22.6999 48.5 23.7998 46.5 24.9998C44.8 25.9998 43.1 27.0998 41.5 28.2998C39 30.0998 36.8 32.0999 34.6 34.1999C33.9 34.7999 33.3 35.4999 32.7 36.1999C31.8 37.0999 31 37.9998 30.2 38.9998C28.3 41.1998 26.6 43.5998 25.1 46.0998C24 47.8998 23 49.6998 22 51.5998C20.5 54.5998 19.2 57.6998 18.2 60.9998C17.5 63.2998 16.9 65.5998 16.4 67.8998C15.8 70.6998 15.5 73.5998 15.2 76.3998C15.1 77.5998 15.1 78.7998 15.1 79.9998C15.1 81.4998 15.1 82.9998 15.1 84.4998C15.1 85.3998 15.1 86.1998 15.3 87.0998C15.4 88.3998 15.6 89.6998 15.8 90.9998C16.1 93.2998 16.6 95.4999 17.2 97.6999C17.6 99.3998 18.2 101.1 18.7 102.8C19.7 105.6 20.8 108.2 22.1 110.8C22.1 110.9 22.2 111.1 22.3 111.2C22.3 111.2 22.4 111.2 22.5 111.2C22.5 111.2 22.6 111 22.7 110.9C23.6 109.5 24.4 108.1 25.3 106.7C27 104 28.6 101.4 30.3 98.6999C31.8 96.2999 33.3 93.8998 34.7 91.5998C36.3 88.9998 38 86.2999 39.6 83.6999C40.5 82.1999 41.5 80.6999 42.4 79.1999C43.7 76.9999 45.1 74.8998 46.4 72.6999C47.8 70.4999 49.1 68.2998 50.5 66.0998C52.2 63.3998 53.8 60.7998 55.5 58.0998C56.6 56.3998 57.7 54.5998 58.7 52.8998C59.8 51.1998 61 49.4998 62.5 48.0998C63.1 47.5998 63.7 46.9998 64.4 46.5998C66.3 45.3998 68.3 44.8998 70.5 45.2998C73.2 45.7998 75.3 47.1998 76.7 49.4998C77.4 50.6998 77.9 51.8999 78.2 53.1999C78.7 55.1999 78.9 57.1998 78.9 59.2998C78.9 69.5998 78.9 79.9998 78.9 90.2998C78.9 90.4998 78.9 90.6998 78.9 90.8998V91.0998L79.1 91.1999Z" fill="white"/>
</svg>
