<svg width="148" height="143" viewBox="0 0 148 143" fill="none" xmlns="http://www.w3.org/2000/svg">
<path d="M63.8 40.4004C70.4275 40.4004 75.8 35.0278 75.8 28.4004C75.8 21.773 70.4275 16.4004 63.8 16.4004C57.1726 16.4004 51.8 21.773 51.8 28.4004C51.8 35.0278 57.1726 40.4004 63.8 40.4004Z" fill="white" stroke="white" stroke-width="0.5" stroke-linecap="round" stroke-linejoin="round"/>
<path d="M133.8 22.9999C127.3 19.7999 103.9 11.8999 103.9 11.8999C103.1 11.6999 102.3 11.3999 101.4 11.0999C100.3 8.49993 98 4.89992 93.1 2.79992C86.6 -0.100085 80 1.69992 77 2.79992C66.3 0.299916 54 0.0999155 39.7 6.79992C7.80004 21.7999 17.6 42.3999 11 75.6999C7.70003 92.1999 0.900024 103 0.900024 103C23.9 132.1 54.3 145.6 92.9 141.7C92.9 141.7 79.8 116.9 128.1 68.7999C145.6 52.1999 146.6 46.9999 147.2 40.3999C147.8 33.7999 140.2 26.1999 133.8 23.0999V22.9999ZM125.4 41.4999C127.4 41.4999 129.1 43.1999 129.1 45.1999C129.1 47.1999 127.4 48.8999 125.4 48.8999C123.4 48.8999 121.7 47.1999 121.7 45.1999C121.7 43.1999 123.4 41.4999 125.4 41.4999ZM63.8 45.1999C54.5 45.1999 47 37.6999 47 28.3999C47 19.0999 54.5 11.5999 63.8 11.5999C73.1 11.5999 80.6 19.0999 80.6 28.3999C80.6 37.6999 73.1 45.1999 63.8 45.1999ZM96.7 70.8999C81 71.2999 77.5 63.3999 77.5 63.3999C97.1 73.8999 131.3 60.9999 140.8 53.4999C140.8 53.4999 125.8 70.0999 96.6 70.8999H96.7Z" fill="white" stroke="white" stroke-width="0.5" stroke-linecap="round" stroke-linejoin="round"/>
</svg>
