<svg width="320" height="200" viewBox="0 0 320 200" fill="none" xmlns="http://www.w3.org/2000/svg">
<mask id="mask0_38_699" style="mask-type:alpha" maskUnits="userSpaceOnUse" x="0" y="0" width="320" height="200">
<rect width="320" height="200" rx="6" fill="#232323"/>
</mask>
<g mask="url(#mask0_38_699)">
<path d="M210.855 173.59L146.995 136.72L33.2549 202.39L108.895 246.06L286.495 143.52L274.715 136.72L210.855 173.59Z" fill="url(#paint0_linear_38_699)"/>
<path d="M210.855 86.25L135.215 129.92L210.855 173.59L286.495 129.92L210.855 86.25Z" fill="url(#paint1_linear_38_699)"/>
<path d="M210.854 173.59L286.494 129.92" stroke="#E373FF" stroke-miterlimit="10"/>
<path d="M135.215 129.92L210.855 173.59" stroke="#E373FF" stroke-miterlimit="10" stroke-linecap="round"/>
<path d="M218.895 130.62C219.282 130.62 219.595 130.307 219.595 129.92C219.595 129.534 219.282 129.22 218.895 129.22C218.509 129.22 218.195 129.534 218.195 129.92C218.195 130.307 218.509 130.62 218.895 130.62Z" fill="#E373FF"/>
<path d="M226.935 135.26C227.322 135.26 227.635 134.947 227.635 134.56C227.635 134.174 227.322 133.86 226.935 133.86C226.549 133.86 226.235 134.174 226.235 134.56C226.235 134.947 226.549 135.26 226.935 135.26Z" fill="#E373FF"/>
<path d="M218.895 139.91C219.282 139.91 219.595 139.597 219.595 139.21C219.595 138.824 219.282 138.51 218.895 138.51C218.509 138.51 218.195 138.824 218.195 139.21C218.195 139.597 218.509 139.91 218.895 139.91Z" fill="#E373FF"/>
<path d="M234.975 139.91C235.362 139.91 235.675 139.597 235.675 139.21C235.675 138.824 235.362 138.51 234.975 138.51C234.589 138.51 234.275 138.824 234.275 139.21C234.275 139.597 234.589 139.91 234.975 139.91Z" fill="#E373FF"/>
<path d="M226.935 144.55C227.322 144.55 227.635 144.237 227.635 143.85C227.635 143.464 227.322 143.15 226.935 143.15C226.549 143.15 226.235 143.464 226.235 143.85C226.235 144.237 226.549 144.55 226.935 144.55Z" fill="#E373FF"/>
<path d="M218.895 149.19C219.282 149.19 219.595 148.877 219.595 148.49C219.595 148.103 219.282 147.79 218.895 147.79C218.509 147.79 218.195 148.103 218.195 148.49C218.195 148.877 218.509 149.19 218.895 149.19Z" fill="#E373FF"/>
<path d="M234.975 149.19C235.362 149.19 235.675 148.877 235.675 148.49C235.675 148.103 235.362 147.79 234.975 147.79C234.589 147.79 234.275 148.103 234.275 148.49C234.275 148.877 234.589 149.19 234.975 149.19Z" fill="#E373FF"/>
<path d="M226.935 153.84C227.322 153.84 227.635 153.527 227.635 153.14C227.635 152.753 227.322 152.44 226.935 152.44C226.549 152.44 226.235 152.753 226.235 153.14C226.235 153.527 226.549 153.84 226.935 153.84Z" fill="#E373FF"/>
<path d="M243.025 144.55C243.412 144.55 243.725 144.237 243.725 143.85C243.725 143.464 243.412 143.15 243.025 143.15C242.639 143.15 242.325 143.464 242.325 143.85C242.325 144.237 242.639 144.55 243.025 144.55Z" fill="#E373FF"/>
<path d="M218.895 158.48C219.282 158.48 219.595 158.167 219.595 157.78C219.595 157.393 219.282 157.08 218.895 157.08C218.509 157.08 218.195 157.393 218.195 157.78C218.195 158.167 218.509 158.48 218.895 158.48Z" fill="#E373FF"/>
<path d="M202.815 130.62C203.202 130.62 203.515 130.307 203.515 129.92C203.515 129.534 203.202 129.22 202.815 129.22C202.429 129.22 202.115 129.534 202.115 129.92C202.115 130.307 202.429 130.62 202.815 130.62Z" fill="#E373FF"/>
<path d="M226.935 116.69C227.322 116.69 227.635 116.377 227.635 115.99C227.635 115.603 227.322 115.29 226.935 115.29C226.549 115.29 226.235 115.603 226.235 115.99C226.235 116.377 226.549 116.69 226.935 116.69Z" fill="#9B66FF"/>
<path d="M234.975 121.34C235.362 121.34 235.675 121.027 235.675 120.64C235.675 120.253 235.362 119.94 234.975 119.94C234.589 119.94 234.275 120.253 234.275 120.64C234.275 121.027 234.589 121.34 234.975 121.34Z" fill="#E373FF"/>
<path d="M226.935 125.98C227.322 125.98 227.635 125.667 227.635 125.28C227.635 124.893 227.322 124.58 226.935 124.58C226.549 124.58 226.235 124.893 226.235 125.28C226.235 125.667 226.549 125.98 226.935 125.98Z" fill="#E373FF"/>
<path d="M234.975 130.62C235.362 130.62 235.675 130.307 235.675 129.92C235.675 129.534 235.362 129.22 234.975 129.22C234.589 129.22 234.275 129.534 234.275 129.92C234.275 130.307 234.589 130.62 234.975 130.62Z" fill="#E373FF"/>
<path d="M251.065 130.62C251.452 130.62 251.765 130.307 251.765 129.92C251.765 129.534 251.452 129.22 251.065 129.22C250.679 129.22 250.365 129.534 250.365 129.92C250.365 130.307 250.679 130.62 251.065 130.62Z" fill="#E373FF"/>
<path d="M243.025 135.26C243.412 135.26 243.725 134.947 243.725 134.56C243.725 134.174 243.412 133.86 243.025 133.86C242.639 133.86 242.325 134.174 242.325 134.56C242.325 134.947 242.639 135.26 243.025 135.26Z" fill="#7D78FF"/>
<path d="M251.065 139.91C251.452 139.91 251.765 139.597 251.765 139.21C251.765 138.824 251.452 138.51 251.065 138.51C250.679 138.51 250.365 138.824 250.365 139.21C250.365 139.597 250.679 139.91 251.065 139.91Z" fill="#E373FF"/>
<path d="M259.105 135.26C259.492 135.26 259.805 134.947 259.805 134.56C259.805 134.174 259.492 133.86 259.105 133.86C258.719 133.86 258.405 134.174 258.405 134.56C258.405 134.947 258.719 135.26 259.105 135.26Z" fill="#E373FF"/>
<path d="M218.895 121.34C219.282 121.34 219.595 121.027 219.595 120.64C219.595 120.253 219.282 119.94 218.895 119.94C218.509 119.94 218.195 120.253 218.195 120.64C218.195 121.027 218.509 121.34 218.895 121.34Z" fill="#E373FF"/>
<path d="M251.065 121.34C251.452 121.34 251.765 121.027 251.765 120.64C251.765 120.253 251.452 119.94 251.065 119.94C250.679 119.94 250.365 120.253 250.365 120.64C250.365 121.027 250.679 121.34 251.065 121.34Z" fill="#E373FF"/>
<path d="M259.105 125.98C259.492 125.98 259.805 125.667 259.805 125.28C259.805 124.893 259.492 124.58 259.105 124.58C258.719 124.58 258.405 124.893 258.405 125.28C258.405 125.667 258.719 125.98 259.105 125.98Z" fill="#E373FF"/>
<path d="M267.145 130.62C267.532 130.62 267.845 130.307 267.845 129.92C267.845 129.534 267.532 129.22 267.145 129.22C266.759 129.22 266.445 129.534 266.445 129.92C266.445 130.307 266.759 130.62 267.145 130.62Z" fill="#E373FF"/>
<path d="M234.975 112.05C235.362 112.05 235.675 111.737 235.675 111.35C235.675 110.964 235.362 110.65 234.975 110.65C234.589 110.65 234.275 110.964 234.275 111.35C234.275 111.737 234.589 112.05 234.975 112.05Z" fill="#E373FF"/>
<path d="M194.775 135.26C195.162 135.26 195.475 134.947 195.475 134.56C195.475 134.174 195.162 133.86 194.775 133.86C194.389 133.86 194.075 134.174 194.075 134.56C194.075 134.947 194.389 135.26 194.775 135.26Z" fill="#E373FF"/>
<path d="M202.815 139.91C203.202 139.91 203.515 139.597 203.515 139.21C203.515 138.824 203.202 138.51 202.815 138.51C202.429 138.51 202.115 138.824 202.115 139.21C202.115 139.597 202.429 139.91 202.815 139.91Z" fill="#E373FF"/>
<path d="M186.735 139.91C187.122 139.91 187.435 139.597 187.435 139.21C187.435 138.824 187.122 138.51 186.735 138.51C186.349 138.51 186.035 138.824 186.035 139.21C186.035 139.597 186.349 139.91 186.735 139.91Z" fill="#E373FF"/>
<path d="M194.775 144.55C195.162 144.55 195.475 144.237 195.475 143.85C195.475 143.464 195.162 143.15 194.775 143.15C194.389 143.15 194.075 143.464 194.075 143.85C194.075 144.237 194.389 144.55 194.775 144.55Z" fill="#E373FF"/>
<path d="M202.815 149.19C203.202 149.19 203.515 148.877 203.515 148.49C203.515 148.103 203.202 147.79 202.815 147.79C202.429 147.79 202.115 148.103 202.115 148.49C202.115 148.877 202.429 149.19 202.815 149.19Z" fill="#E373FF"/>
<path d="M186.735 149.19C187.122 149.19 187.435 148.877 187.435 148.49C187.435 148.103 187.122 147.79 186.735 147.79C186.349 147.79 186.035 148.103 186.035 148.49C186.035 148.877 186.349 149.19 186.735 149.19Z" fill="#E373FF"/>
<path d="M194.775 153.84C195.162 153.84 195.475 153.527 195.475 153.14C195.475 152.753 195.162 152.44 194.775 152.44C194.389 152.44 194.075 152.753 194.075 153.14C194.075 153.527 194.389 153.84 194.775 153.84Z" fill="#E373FF"/>
<path d="M178.685 144.55C179.072 144.55 179.385 144.237 179.385 143.85C179.385 143.464 179.072 143.15 178.685 143.15C178.299 143.15 177.985 143.464 177.985 143.85C177.985 144.237 178.299 144.55 178.685 144.55Z" fill="#E373FF"/>
<path d="M202.815 158.48C203.202 158.48 203.515 158.167 203.515 157.78C203.515 157.393 203.202 157.08 202.815 157.08C202.429 157.08 202.115 157.393 202.115 157.78C202.115 158.167 202.429 158.48 202.815 158.48Z" fill="#E373FF"/>
<path d="M186.735 130.62C187.122 130.62 187.435 130.307 187.435 129.92C187.435 129.534 187.122 129.22 186.735 129.22C186.349 129.22 186.035 129.534 186.035 129.92C186.035 130.307 186.349 130.62 186.735 130.62Z" fill="#E373FF"/>
<path d="M178.685 135.26C179.072 135.26 179.385 134.947 179.385 134.56C179.385 134.174 179.072 133.86 178.685 133.86C178.299 133.86 177.985 134.174 177.985 134.56C177.985 134.947 178.299 135.26 178.685 135.26Z" fill="#E373FF"/>
<path d="M202.815 121.34C203.202 121.34 203.515 121.027 203.515 120.64C203.515 120.253 203.202 119.94 202.815 119.94C202.429 119.94 202.115 120.253 202.115 120.64C202.115 121.027 202.429 121.34 202.815 121.34Z" fill="#E373FF"/>
<path d="M194.775 125.98C195.162 125.98 195.475 125.667 195.475 125.28C195.475 124.893 195.162 124.58 194.775 124.58C194.389 124.58 194.075 124.893 194.075 125.28C194.075 125.667 194.389 125.98 194.775 125.98Z" fill="#E373FF"/>
<path d="M170.645 139.91C171.032 139.91 171.345 139.597 171.345 139.21C171.345 138.824 171.032 138.51 170.645 138.51C170.259 138.51 169.945 138.824 169.945 139.21C169.945 139.597 170.259 139.91 170.645 139.91Z" fill="#E373FF"/>
<path d="M186.735 112.05C187.122 112.05 187.435 111.737 187.435 111.35C187.435 110.964 187.122 110.65 186.735 110.65C186.349 110.65 186.035 110.964 186.035 111.35C186.035 111.737 186.349 112.05 186.735 112.05Z" fill="#E373FF"/>
<path d="M178.685 116.69C179.072 116.69 179.385 116.377 179.385 115.99C179.385 115.603 179.072 115.29 178.685 115.29C178.299 115.29 177.985 115.603 177.985 115.99C177.985 116.377 178.299 116.69 178.685 116.69Z" fill="#E373FF"/>
<path d="M170.645 121.34C171.032 121.34 171.345 121.027 171.345 120.64C171.345 120.253 171.032 119.94 170.645 119.94C170.259 119.94 169.945 120.253 169.945 120.64C169.945 121.027 170.259 121.34 170.645 121.34Z" fill="#E373FF"/>
<path d="M162.605 125.98C162.992 125.98 163.305 125.667 163.305 125.28C163.305 124.893 162.992 124.58 162.605 124.58C162.219 124.58 161.905 124.893 161.905 125.28C161.905 125.667 162.219 125.98 162.605 125.98Z" fill="#E373FF"/>
<path d="M186.735 121.34C187.122 121.34 187.435 121.027 187.435 120.64C187.435 120.253 187.122 119.94 186.735 119.94C186.349 119.94 186.035 120.253 186.035 120.64C186.035 121.027 186.349 121.34 186.735 121.34Z" fill="#E373FF"/>
<path d="M178.685 125.98C179.072 125.98 179.385 125.667 179.385 125.28C179.385 124.893 179.072 124.58 178.685 124.58C178.299 124.58 177.985 124.893 177.985 125.28C177.985 125.667 178.299 125.98 178.685 125.98Z" fill="#E373FF"/>
<path d="M194.775 116.69C195.162 116.69 195.475 116.377 195.475 115.99C195.475 115.603 195.162 115.29 194.775 115.29C194.389 115.29 194.075 115.603 194.075 115.99C194.075 116.377 194.389 116.69 194.775 116.69Z" fill="#E373FF"/>
<path d="M170.645 130.62C171.032 130.62 171.345 130.307 171.345 129.92C171.345 129.534 171.032 129.22 170.645 129.22C170.259 129.22 169.945 129.534 169.945 129.92C169.945 130.307 170.259 130.62 170.645 130.62Z" fill="#E373FF"/>
<path d="M162.605 135.26C162.992 135.26 163.305 134.947 163.305 134.56C163.305 134.174 162.992 133.86 162.605 133.86C162.219 133.86 161.905 134.174 161.905 134.56C161.905 134.947 162.219 135.26 162.605 135.26Z" fill="#E373FF"/>
<path d="M218.895 112.05C219.282 112.05 219.595 111.737 219.595 111.35C219.595 110.964 219.282 110.65 218.895 110.65C218.509 110.65 218.195 110.964 218.195 111.35C218.195 111.737 218.509 112.05 218.895 112.05Z" fill="#E373FF"/>
<path d="M202.815 102.77C203.202 102.77 203.515 102.457 203.515 102.07C203.515 101.684 203.202 101.37 202.815 101.37C202.429 101.37 202.115 101.684 202.115 102.07C202.115 102.457 202.429 102.77 202.815 102.77Z" fill="#E373FF"/>
<path d="M194.775 107.41C195.162 107.41 195.475 107.097 195.475 106.71C195.475 106.324 195.162 106.01 194.775 106.01C194.389 106.01 194.075 106.324 194.075 106.71C194.075 107.097 194.389 107.41 194.775 107.41Z" fill="#E373FF"/>
<path d="M202.815 112.05C203.202 112.05 203.515 111.737 203.515 111.35C203.515 110.964 203.202 110.65 202.815 110.65C202.429 110.65 202.115 110.964 202.115 111.35C202.115 111.737 202.429 112.05 202.815 112.05Z" fill="#E373FF"/>
<path d="M218.895 102.77C219.282 102.77 219.595 102.457 219.595 102.07C219.595 101.684 219.282 101.37 218.895 101.37C218.509 101.37 218.195 101.684 218.195 102.07C218.195 102.457 218.509 102.77 218.895 102.77Z" fill="#E373FF"/>
<path d="M154.565 130.62C154.952 130.62 155.265 130.307 155.265 129.92C155.265 129.534 154.952 129.22 154.565 129.22C154.179 129.22 153.865 129.534 153.865 129.92C153.865 130.307 154.179 130.62 154.565 130.62Z" fill="#E373FF"/>
<path d="M178.685 115.29V96.02" stroke="#E373FF" stroke-linecap="round" stroke-linejoin="round"/>
<path d="M243.024 134.56V90.6699" stroke="#7D78FF" stroke-linecap="round" stroke-linejoin="round"/>
<path d="M227 115.89V81" stroke="#9B66FF" stroke-linecap="round" stroke-linejoin="round"/>
<path d="M247.015 86.6802H239.035V94.6602H247.015V86.6802Z" fill="#7D78FF"/>
<path d="M182.675 92.73H174.695V100.71H182.675V92.73Z" fill="#E373FF"/>
<path d="M206.925 115.99H198.945V123.97H206.925V115.99Z" fill="#1D1420"/>
<path d="M198.945 131.96H190.965V139.94H198.945V131.96Z" fill="#1D1420"/>
<path d="M198.945 123.97H190.965V131.95H198.945V123.97Z" fill="#1D1420"/>
<path d="M222.885 131.96H214.905V139.94H222.885V131.96Z" fill="#1D1420"/>
<path d="M230.865 131.96H222.885V139.94H230.865V131.96Z" fill="#1D1420"/>
<path d="M222.885 123.97H214.905V131.95H222.885V123.97Z" fill="#1D1420"/>
<path d="M230.98 74H223V81.98H230.98V74Z" fill="#9B66FF"/>
<path d="M135.215 69.75V129.92" stroke="#E373FF" stroke-miterlimit="10" stroke-linecap="round"/>
<path d="M135.215 0V70L210.855 113.67V43.67L135.215 0Z" fill="url(#paint2_linear_38_699)"/>
<path d="M210.855 43.67L135.215 0" stroke="url(#paint3_linear_38_699)" stroke-miterlimit="10" stroke-linecap="round"/>
<path d="M178.875 39.6C184.365 36.43 193.255 41.57 198.745 51.07C204.235 60.57 204.235 70.85 198.745 74.02C193.255 77.19 184.365 72.05 178.875 62.55C173.385 53.05 173.385 42.77 178.875 39.6ZM181.315 61.14C185.455 68.31 192.175 72.19 196.315 69.8C200.455 67.41 200.455 59.65 196.315 52.48C192.175 45.31 185.455 41.43 181.315 43.82C177.175 46.21 177.175 53.97 181.315 61.14Z" fill="url(#paint4_linear_38_699)"/>
<path opacity="0.7" d="M122.045 61.6902L164.795 86.3802V47.0902L122.045 22.4102V61.6902Z" stroke="#E373FF" stroke-linecap="round" stroke-linejoin="round"/>
<path opacity="0.7" d="M122.045 16.1603L164.795 40.8503V28.4603L122.045 3.78027V16.1603Z" stroke="#E373FF" stroke-linecap="round" stroke-linejoin="round"/>
<path d="M188.815 40.5898L188.785 44.5498C191.505 46.1098 194.235 48.8798 196.315 52.4798C198.455 56.1898 199.485 60.0398 199.405 63.2398L202.855 65.3298C202.945 61.0998 201.585 55.9798 198.745 51.0798C196.005 46.3298 192.405 42.6698 188.805 40.5898H188.815Z" fill="#E373FF"/>
<path d="M125.245 10.5498L131.705 14.2798" stroke="#D4C4F5" stroke-linecap="round" stroke-linejoin="round"/>
<path d="M125.245 30.1699L133.845 35.1299" stroke="#D4C4F5" stroke-linecap="round" stroke-linejoin="round"/>
<path d="M125.245 13.6597L128.475 15.5297" stroke="#D4C4F5" stroke-linecap="round" stroke-linejoin="round"/>
<path d="M138.825 18.3896L145.285 22.1196" stroke="#D4C4F5" stroke-linecap="round" stroke-linejoin="round"/>
<path d="M138.825 21.5098L142.055 23.3698" stroke="#D4C4F5" stroke-linecap="round" stroke-linejoin="round"/>
<path d="M152.405 26.2295L158.865 29.9595" stroke="#D4C4F5" stroke-linecap="round" stroke-linejoin="round"/>
<path d="M152.405 29.3496L155.635 31.2096" stroke="#D4C4F5" stroke-linecap="round" stroke-linejoin="round"/>
<path d="M144.725 56.1499V60.6799" stroke="#D4C4F5" stroke-linecap="round" stroke-linejoin="round"/>
<path d="M149.315 52.1396V71.3297" stroke="#D4C4F5" stroke-linecap="round" stroke-linejoin="round"/>
<path d="M153.905 48.75V73.99" stroke="#D4C4F5" stroke-linecap="round" stroke-linejoin="round"/>
<path d="M158.505 63.9697V76.6397" stroke="#D4C4F5" stroke-linecap="round" stroke-linejoin="round"/>
<path d="M210.854 43.6699V173.59" stroke="#E373FF" stroke-miterlimit="10" stroke-linecap="round"/>
<path d="M83.6849 185.23L123.475 208.2L129.805 204.83L188.055 235.74L156.565 250.83L76.0449 197.21L83.6849 185.23Z" fill="#232323"/>
<path d="M73.0244 182.57L73.5944 189.67C74.2944 193.67 79.1744 193.71 79.4644 191.37C79.7444 189.03 79.7644 182.57 79.7644 182.57" fill="#353535"/>
<path d="M73.585 189.67L73.655 194.31C73.715 198.31 79.335 197.97 80.295 195.16L83.685 185.24L79.755 182.58C79.755 182.58 79.735 189.04 79.455 191.38C79.175 193.72 74.285 193.68 73.585 189.68V189.67Z" fill="#353535"/>
<path d="M58.8553 50.8398L57.4253 67.9998C57.2153 70.5298 59.0853 72.9798 61.5953 73.4298L68.6153 74.6998L64.9653 50.8398H58.8553Z" fill="#232323"/>
<path d="M145.295 64.97L148.735 60.84L147.935 60.27L138.965 66.95L135.385 68.98L138.585 73.62L142.735 72.33L146.495 72.65L148.985 68.03L145.295 64.97Z" fill="#232323"/>
<path d="M137.445 68.19V62.9499C137.445 62.9499 139.555 62.5599 139.955 65.3799C140.355 68.1999 140.485 68.73 140.485 68.73L137.445 68.19Z" fill="#232323"/>
<path d="M96.6145 99.42L65.8545 91.77C65.3645 94.97 65.4845 100.19 66.1045 103.37L72.2145 134.37L69.4445 147.94L73.0145 182.57H79.7445L86.9545 128.02L89.2445 128.86L99.1245 154.4L97.8045 162.78L106.375 200.59L114.435 199.09L107.195 104.57L96.6045 99.42H96.6145Z" fill="#232323"/>
<path d="M89.2549 128.86L99.1349 154.4L97.8049 162.77L106.385 200.58" stroke="#A0A0A0" stroke-miterlimit="10"/>
<path d="M65.8545 91.7598C65.3645 94.9598 65.4845 100.18 66.1045 103.36L72.2145 134.36L69.4445 147.93L73.0145 182.56" stroke="#A0A0A0" stroke-miterlimit="10"/>
<path d="M107.195 104.57L104.525 69.7401L108.235 60.9001L104.935 54.3101C103.905 52.2401 101.415 49.6201 99.4047 48.4701L80.9347 37.8901L66.5547 38.7001C64.2447 38.8301 61.8247 40.7501 61.1747 42.9601L58.8447 50.8301L61.3747 52.5301L67.8247 78.7201L65.8447 91.7601L89.4547 105.39C93.3847 107.66 99.9647 107.94 104.075 106.02L107.195 104.56V104.57Z" fill="#3A3A3A"/>
<path d="M99.0145 75.47C97.2645 77.76 98.9345 79.71 100.594 82.2C102.254 84.69 103.064 88.19 98.9045 91.51C94.7445 94.84 96.7745 100.57 99.5945 101.94C102.424 103.31 103.244 106.36 103.244 106.36L107.194 104.55L105.344 80.37L99.0145 75.46V75.47Z" fill="#3A3A3A"/>
<path d="M99.0645 150.3L104.104 153.13C104.104 153.13 98.6945 162.45 101.634 167.77C104.574 173.09 104.074 176.86 104.074 176.86" stroke="#A0A0A0" stroke-linecap="round" stroke-linejoin="round"/>
<path d="M72.2148 134.37L73.7648 138.6L79.8648 143.26L79.3148 145.64C79.3148 145.64 74.9948 143.34 72.2248 145.64" stroke="#A0A0A0" stroke-linecap="round" stroke-linejoin="round"/>
<path d="M108.245 60.8899L115.685 78.3199L135.385 68.9699L138.575 73.6099L116.455 89.3999C114.065 91.1099 110.675 90.5699 108.925 88.1999L94.7354 68.9699L108.235 60.8799L108.245 60.8899Z" fill="#232323"/>
<path d="M73.6045 40.6099L75.1845 30.3799L86.2845 31.2899L86.2645 40.9299L89.5045 43.3299L82.8645 44.0199L73.6045 40.6099Z" fill="#232323"/>
<path d="M82.8645 33.7201C88.6911 33.7201 93.4145 28.9967 93.4145 23.1701C93.4145 17.3435 88.6911 12.6201 82.8645 12.6201C77.0378 12.6201 72.3145 17.3435 72.3145 23.1701C72.3145 28.9967 77.0378 33.7201 82.8645 33.7201Z" fill="#232323"/>
<path d="M92.9446 10.9099L85.2446 9.12988L84.0246 11.9799L83.1746 11.8199C78.9846 11.0499 74.7146 12.6899 72.1346 16.0799C69.5446 19.4699 69.0846 24.0199 70.9346 27.8499L74.0246 34.2699L79.8446 36.7199L81.8146 28.3499L83.5746 24.3199L85.6846 23.5199C86.8646 23.0699 87.7946 21.6699 87.7546 20.4099L87.7246 19.3999C87.6846 18.1399 88.5946 16.7099 89.7646 16.2299L90.2846 16.0099C91.4546 15.5299 92.5346 14.1099 92.7046 12.8599L92.9646 10.8999L92.9446 10.9099Z" fill="#353535"/>
<path d="M84.0246 11.9899L83.1746 11.8299C78.9846 11.0599 74.7146 12.6999 72.1346 16.0899C69.5446 19.4799 69.0846 24.0299 70.9346 27.8599L74.0246 34.2799" stroke="#3A3A3A" stroke-miterlimit="10"/>
<path d="M92.9451 10.9099L85.2451 9.12988" stroke="#3A3A3A" stroke-miterlimit="10"/>
<path d="M82.8649 29.1502C84.3063 29.1502 85.4749 27.9816 85.4749 26.5402C85.4749 25.0987 84.3063 23.9302 82.8649 23.9302C81.4234 23.9302 80.2549 25.0987 80.2549 26.5402C80.2549 27.9816 81.4234 29.1502 82.8649 29.1502Z" fill="#232323"/>
<path d="M82.415 36.3499L87.685 37.3399C89.705 37.7199 91.595 36.3699 91.895 34.3399L93.325 24.6499L88.325 25.7499L82.425 36.3499H82.415Z" fill="#232323"/>
<path d="M86.2648 40.9302L74.0648 37.4102L73.3848 41.7502L82.8648 44.9602L91.0648 43.6702L86.2648 40.9302Z" fill="#232323"/>
<path d="M115.685 78.3199C117.225 81.6199 121.255 80.6499 122.485 77.5799C123.715 74.5099 127.125 72.8999 127.125 72.8999L115.685 78.3299V78.3199Z" fill="#353535"/>
<path d="M96.4053 71.2202L105.595 83.6802" stroke="#232323" stroke-linecap="round" stroke-linejoin="round"/>
<path d="M88.8252 72.5898L98.0152 85.0499" stroke="#232323" stroke-linecap="round" stroke-linejoin="round"/>
<path d="M106.354 200.34L108.274 208.83C109.254 208.92 110.364 209.17 111.184 209.79C113.064 211.2 113.864 209.55 114.474 207.34C115.084 205.13 116.024 202.4 116.024 202.4H116.034C115.184 201.51 114.594 200.37 114.434 199.08" fill="#353535"/>
</g>
<defs>
<linearGradient id="paint0_linear_38_699" x1="159.875" y1="203.691" x2="286" y2="137" gradientUnits="userSpaceOnUse">
<stop stop-color="#191919"/>
<stop offset="1" stop-color="#6B1F7E"/>
</linearGradient>
<linearGradient id="paint1_linear_38_699" x1="135" y1="130" x2="182" y2="157" gradientUnits="userSpaceOnUse">
<stop stop-color="#6B1F7E"/>
<stop offset="1" stop-color="#191919"/>
</linearGradient>
<linearGradient id="paint2_linear_38_699" x1="165" y1="48" x2="135" y2="2.38674e-06" gradientUnits="userSpaceOnUse">
<stop stop-color="#191919"/>
<stop offset="0.05" stop-color="#2C0835"/>
<stop offset="0.24" stop-color="#621375"/>
<stop offset="0.42" stop-color="#9218B1"/>
<stop offset="0.59" stop-color="#A31BC5"/>
<stop offset="0.75" stop-color="#B629D9"/>
<stop offset="0.89" stop-color="#D851FA"/>
<stop offset="1" stop-color="#E373FF"/>
</linearGradient>
<linearGradient id="paint3_linear_38_699" x1="173.049" y1="13.82" x2="173.049" y2="30.7387" gradientUnits="userSpaceOnUse">
<stop stop-color="#A877FF"/>
<stop offset="0.400016" stop-color="#A78DFB"/>
<stop offset="0.650016" stop-color="#D688FD"/>
<stop offset="0.960016" stop-color="#D4C4F5"/>
</linearGradient>
<linearGradient id="paint4_linear_38_699" x1="188.815" y1="50.149" x2="188.815" y2="64.2096" gradientUnits="userSpaceOnUse">
<stop stop-color="#A877FF"/>
<stop offset="0.400016" stop-color="#A78DFB"/>
<stop offset="0.650016" stop-color="#D688FD"/>
<stop offset="0.960016" stop-color="#D4C4F5"/>
</linearGradient>
</defs>
</svg>
