<svg width="252" height="112" viewBox="0 0 252 112" fill="none" xmlns="http://www.w3.org/2000/svg">
<path d="M26.8998 111.2V0.0996094H0.299805V22.6996L23.1998 39.7996H0.299805V111.9H26.8998" fill="white"/>
<path d="M26.8998 111.2V0.0996094H0.299805V22.6996L23.1998 39.7996H0.299805V111.9H26.8998" stroke="white" stroke-width="0.2" stroke-miterlimit="10"/>
<path d="M186.4 0.0996094C201.7 0.0996094 214.1 11.8996 214.1 28.0996V71.5996L188.1 54.5996V40.0996C188.1 30.0996 185.4 27.1996 175.4 27.1996H65.2999L28.8999 0.0996094H186.4Z" fill="white" stroke="white" stroke-width="0.2" stroke-miterlimit="10"/>
<path d="M93.2996 111.9C77.9996 111.9 65.5996 100.1 65.5996 83.9004V40.4004L91.5996 57.4004V71.9004C91.5996 81.9004 94.2996 84.8004 104.3 84.8004H214.4L250.8 111.9H93.2996Z" fill="white" stroke="white" stroke-width="0.2" stroke-miterlimit="10"/>
</svg>
