<svg width="206" height="140" viewBox="0 0 206 140" fill="none" xmlns="http://www.w3.org/2000/svg">
<path d="M13.6 138.1C10.2 138.1 6.69995 136.8 4.09995 134.2C-1.10005 129 -1.10005 120.4 4.09995 115.2L114.9 4.4C120.1 -0.8 128.6 -0.8 133.9 4.4C139.2 9.6 139.1 18.2 133.9 23.4L23.1 134.2C20.5 136.8 17 138.1 13.6 138.1Z" fill="white"/>
<path d="M191.8 139.199C184.4 139.199 178.4 133.199 178.4 125.799V46.2991L90.6 134.099C85.4 139.299 76.9 139.299 71.6 134.099C66.4 128.899 66.4 120.299 71.6 115.099L182.4 4.29909C186.2 0.499089 192 -0.700905 197 1.3991C202 3.49909 205.3 8.39909 205.3 13.7991V125.699C205.3 133.099 199.3 139.099 191.9 139.099L191.8 139.199Z" fill="white"/>
</svg>
