<svg width="126" height="126" viewBox="0 0 126 126" fill="none" xmlns="http://www.w3.org/2000/svg">
<path d="M82.4001 0.400391H39.1001C37.2001 0.400391 35.3001 1.2004 34.0001 2.6004L3.30008 34.7004C1.60008 36.5004 0.600098 38.9004 0.600098 41.3004V85.2004C0.600098 87.8004 1.60009 90.4004 3.50009 92.3004L34.0001 123.5C34.9001 124.4 36.5001 123.8 36.5001 122.5V57.3004C36.5001 54.2004 37.7001 51.2004 39.8001 48.9004L83.3001 2.6004C84.1001 1.7004 83.5001 0.400391 82.3001 0.400391H82.4001Z" fill="white"/>
<path d="M43.5001 125.6H86.8001C88.7001 125.6 90.6001 124.8 91.9001 123.4L122.6 91.3C124.3 89.5 125.3 87.1 125.3 84.7V40.8C125.3 38.2 124.3 35.6 122.4 33.7L91.9001 2.50002C91.0001 1.60002 89.4001 2.20002 89.4001 3.50002V68.7C89.4001 71.8 88.2001 74.8 86.1001 77.1L42.6001 123.4C41.8001 124.3 42.4001 125.6 43.6001 125.6H43.5001Z" fill="white"/>
</svg>
