<svg width="596" height="465" viewBox="0 0 596 465" fill="none" xmlns="http://www.w3.org/2000/svg">
<g clip-path="url(#clip0_1287_4679)">
<path d="M256.227 221.054C254.145 219.085 251.352 218 248.361 218H232.153V221.065H248.361C252.904 221.065 256.463 224.455 256.463 228.783C256.463 233.11 252.904 236.5 248.361 236.5H238.601C236.993 236.5 235.566 236.957 234.475 237.824C232.833 239.126 232 241.236 232 244.096V248H235.065V244.096C235.065 242.219 235.507 240.917 236.379 240.225C237.067 239.68 237.967 239.565 238.6 239.565H248.361C251.351 239.565 254.145 238.481 256.227 236.511C258.356 234.497 259.528 231.753 259.528 228.783C259.528 225.813 258.356 223.068 256.227 221.054H256.227Z" fill="#EBEBEB"/>
<path d="M248.664 229.982H238.312C234.359 230.141 232.009 232.236 232 237.16C232.834 234.438 234.938 233.067 238.312 233.048H248.664C251.103 233.048 253.087 231.146 253.087 228.808C253.087 226.47 251.103 224.568 248.664 224.568H232.218V227.634H248.664C249.413 227.634 250.021 228.161 250.021 228.808C250.021 229.456 249.413 229.982 248.664 229.982Z" fill="#EBEBEB"/>
</g>
<path d="M277.662 224.006C280.567 224.006 282.614 226.431 282.614 229.008C282.614 232.141 280.567 234.212 277.662 234.212H274.605C273.191 234.212 271.725 235.273 271.725 236.789C271.725 236.738 271.725 241.69 271.725 241.69H269.527V224.006H277.662ZM274.858 232.292C274.858 232.292 277.586 232.292 277.662 232.292C279.329 232.292 280.416 230.6 280.416 229.134C280.416 227.492 279.329 225.951 277.662 225.951H271.725V236.789C271.725 232.292 273.645 232.292 274.858 232.292Z" fill="#EBEBEB"/>
<path d="M288.783 228.351C291.108 228.351 293.684 229.488 293.684 232.04V241.69H291.461V237.698V232.014C291.461 234.768 290.35 235.147 289.769 235.147H288.177C286.889 235.147 285.499 235.854 285.499 237.698C285.499 239.012 286.535 240.073 288.177 240.073C289.819 240.073 291.461 239.012 291.461 237.698C291.461 241.235 289.39 241.993 288.026 241.993C285.423 241.993 283.301 240.2 283.301 237.698C283.301 235.046 285.499 233.378 288.177 233.378H290.148C290.906 233.378 291.512 232.747 291.461 231.913C291.386 230.675 290.299 230.271 288.783 230.271C287.722 230.271 286.788 230.701 286.409 231.61H284.11C284.969 228.831 287.268 228.351 288.783 228.351Z" fill="#EBEBEB"/>
<path d="M296.391 228.68H298.589V241.715H296.391V228.68ZM301.343 228.376C301.949 228.376 302.555 228.477 303.086 228.68V230.726C303.086 230.726 302.48 230.423 301.343 230.423C299.372 230.423 298.589 231.964 298.589 233.505C298.589 230.221 300.004 228.376 301.343 228.376Z" fill="#EBEBEB"/>
<path d="M309.31 228.351C311.634 228.351 314.211 229.488 314.211 232.04V241.69H311.988V237.698V232.014C311.988 234.768 310.876 235.147 310.295 235.147H308.703C307.415 235.147 306.026 235.854 306.026 237.698C306.026 239.012 307.061 240.073 308.703 240.073C310.346 240.073 311.988 239.012 311.988 237.698C311.988 241.235 309.916 241.993 308.552 241.993C305.95 241.993 303.828 240.2 303.828 237.698C303.828 235.046 306.026 233.378 308.703 233.378H310.674C311.432 233.378 312.038 232.747 311.988 231.913C311.912 230.675 310.826 230.271 309.31 230.271C308.249 230.271 307.314 230.701 306.935 231.61H304.636C305.495 228.831 307.794 228.351 309.31 228.351Z" fill="#EBEBEB"/>
<path d="M319.115 241.715H316.917V224.031H319.115V241.715Z" fill="#EBEBEB"/>
<path d="M324.124 241.715H321.926V224.031H324.124V241.715Z" fill="#EBEBEB"/>
<path d="M338.252 235.172C338.252 235.324 338.252 235.45 338.252 235.602H328.5C328.652 238.482 330.319 240.073 332.315 240.098C333.856 240.098 335.22 239.138 335.827 237.37H338.024C337.317 240.326 335.119 241.993 332.315 241.993C328.904 241.968 326.403 239.517 326.403 235.172C326.403 230.827 328.955 228.351 332.315 228.351C335.675 228.351 338.252 230.852 338.252 235.172ZM328.627 233.833H336.029C335.599 231.635 334.109 230.271 332.315 230.246C330.547 230.271 329.056 231.661 328.627 233.833Z" fill="#EBEBEB"/>
<path d="M342.676 241.715H340.478V224.031H342.676V241.715Z" fill="#EBEBEB"/>
<path d="M354.127 224.031L359.962 241.69H357.613L355.844 236.41H348.291L346.573 241.69H344.249L349.908 224.031H354.127ZM348.922 234.465H355.213L352.03 224.915L348.922 234.465Z" fill="#EBEBEB"/>
<path d="M363.797 241.69H361.599V224.031H363.797V241.69Z" fill="#EBEBEB"/>
<path d="M371.5 224.5H417.692C423.879 224.5 429.717 221.637 433.505 216.745L520.995 103.755C524.783 98.8634 530.621 96 536.808 96H583M371.5 236.5H418.178C424.087 236.5 429.694 239.113 433.495 243.639L521.005 347.861C524.806 352.387 530.413 355 536.322 355H583" stroke="#A0A0A0" stroke-opacity="0.5" stroke-linecap="round" stroke-linejoin="bevel"/>
<path d="M225.5 224.5H179.308C173.121 224.5 167.283 221.637 163.495 216.745L76.0051 103.755C72.2172 98.8634 66.3785 96 60.1916 96H14M225.5 236.5H178.822C172.913 236.5 167.306 239.113 163.505 243.639L75.9945 347.861C72.1944 352.387 66.5874 355 60.6779 355H14" stroke="#A0A0A0" stroke-opacity="0.5" stroke-linecap="round" stroke-linejoin="bevel"/>
<defs>
<clipPath id="clip0_1287_4679">
<rect width="27.528" height="30" fill="white" transform="translate(232 218)"/>
</clipPath>
</defs>
</svg>
