<svg width="320" height="200" viewBox="0 0 320 200" fill="none" xmlns="http://www.w3.org/2000/svg">
<mask id="mask0_38_536" style="mask-type:alpha" maskUnits="userSpaceOnUse" x="0" y="0" width="320" height="200">
<rect width="320" height="200" rx="6" fill="#232323"/>
</mask>
<g mask="url(#mask0_38_536)">
<path d="M160.246 19L21.6797 99L160.246 179L298.813 99L160.246 19Z" fill="url(#paint0_linear_38_536)"/>
<path d="M297.924 99L160.246 178.487L22.5686 99L160.246 19.5132L297.924 99Z" stroke="#666BFF" stroke-opacity="0.15" stroke-width="0.888889"/>
<path d="M159.8 143.88L71.7996 93.0703L60.0195 99.8603L159.8 157.47L259.61 99.8503L247.83 93.0503L159.8 143.88Z" fill="url(#paint1_linear_38_536)"/>
<path d="M60 86.2601L159.8 143.88L259.61 86.2601L159.8 28.6401L60 86.2601Z" fill="url(#paint2_linear_38_536)"/>
<path d="M60 86.2603L159.8 143.88L259.61 86.2603" stroke="#E373FF" stroke-linecap="round" stroke-linejoin="round"/>
<path d="M135.679 82.3097C136.066 82.3097 136.38 81.9963 136.38 81.6097C136.38 81.2231 136.066 80.9097 135.679 80.9097C135.293 80.9097 134.979 81.2231 134.979 81.6097C134.979 81.9963 135.293 82.3097 135.679 82.3097Z" fill="#E373FF"/>
<path d="M143.719 86.96C144.106 86.96 144.419 86.6467 144.419 86.2601C144.419 85.8735 144.106 85.5601 143.719 85.5601C143.333 85.5601 143.02 85.8735 143.02 86.2601C143.02 86.6467 143.333 86.96 143.719 86.96Z" fill="#E373FF"/>
<path d="M135.679 91.5997C136.066 91.5997 136.38 91.2863 136.38 90.8997C136.38 90.5131 136.066 90.1997 135.679 90.1997C135.293 90.1997 134.979 90.5131 134.979 90.8997C134.979 91.2863 135.293 91.5997 135.679 91.5997Z" fill="#E373FF"/>
<path d="M151.76 91.5997C152.146 91.5997 152.459 91.2863 152.459 90.8997C152.459 90.5131 152.146 90.1997 151.76 90.1997C151.373 90.1997 151.06 90.5131 151.06 90.8997C151.06 91.2863 151.373 91.5997 151.76 91.5997Z" fill="#E373FF"/>
<path d="M143.719 96.2399C144.106 96.2399 144.419 95.9265 144.419 95.5399C144.419 95.1533 144.106 94.8398 143.719 94.8398C143.333 94.8398 143.02 95.1533 143.02 95.5399C143.02 95.9265 143.333 96.2399 143.719 96.2399Z" fill="#E373FF"/>
<path d="M135.679 100.88C136.066 100.88 136.38 100.567 136.38 100.18C136.38 99.7934 136.066 99.48 135.679 99.48C135.293 99.48 134.979 99.7934 134.979 100.18C134.979 100.567 135.293 100.88 135.679 100.88Z" fill="#E373FF"/>
<path d="M159.8 96.2399C160.186 96.2399 160.5 95.9265 160.5 95.5399C160.5 95.1533 160.186 94.8398 159.8 94.8398C159.413 94.8398 159.1 95.1533 159.1 95.5399C159.1 95.9265 159.413 96.2399 159.8 96.2399Z" fill="#E373FF"/>
<path d="M151.76 100.88C152.146 100.88 152.459 100.567 152.459 100.18C152.459 99.7934 152.146 99.48 151.76 99.48C151.373 99.48 151.06 99.7934 151.06 100.18C151.06 100.567 151.373 100.88 151.76 100.88Z" fill="#E373FF"/>
<path d="M143.719 105.53C144.106 105.53 144.419 105.216 144.419 104.83C144.419 104.443 144.106 104.13 143.719 104.13C143.333 104.13 143.02 104.443 143.02 104.83C143.02 105.216 143.333 105.53 143.719 105.53Z" fill="#E373FF"/>
<path d="M135.679 110.17C136.066 110.17 136.38 109.857 136.38 109.47C136.38 109.083 136.066 108.77 135.679 108.77C135.293 108.77 134.979 109.083 134.979 109.47C134.979 109.857 135.293 110.17 135.679 110.17Z" fill="#E373FF"/>
<path d="M159.8 105.53C160.186 105.53 160.5 105.216 160.5 104.83C160.5 104.443 160.186 104.13 159.8 104.13C159.413 104.13 159.1 104.443 159.1 104.83C159.1 105.216 159.413 105.53 159.8 105.53Z" fill="#E373FF"/>
<path d="M151.76 110.17C152.146 110.17 152.459 109.857 152.459 109.47C152.459 109.083 152.146 108.77 151.76 108.77C151.373 108.77 151.06 109.083 151.06 109.47C151.06 109.857 151.373 110.17 151.76 110.17Z" fill="#E373FF"/>
<path d="M167.85 100.88C168.236 100.88 168.55 100.567 168.55 100.18C168.55 99.7934 168.236 99.48 167.85 99.48C167.463 99.48 167.149 99.7934 167.149 100.18C167.149 100.567 167.463 100.88 167.85 100.88Z" fill="#E373FF"/>
<path d="M143.719 114.81C144.106 114.81 144.419 114.496 144.419 114.11C144.419 113.723 144.106 113.41 143.719 113.41C143.333 113.41 143.02 113.723 143.02 114.11C143.02 114.496 143.333 114.81 143.719 114.81Z" fill="#E373FF"/>
<path d="M135.679 119.45C136.066 119.45 136.38 119.136 136.38 118.75C136.38 118.363 136.066 118.05 135.679 118.05C135.293 118.05 134.979 118.363 134.979 118.75C134.979 119.136 135.293 119.45 135.679 119.45Z" fill="#E373FF"/>
<path d="M127.639 86.96C128.026 86.96 128.34 86.6467 128.34 86.2601C128.34 85.8735 128.026 85.5601 127.639 85.5601C127.253 85.5601 126.939 85.8735 126.939 86.2601C126.939 86.6467 127.253 86.96 127.639 86.96Z" fill="#E373FF"/>
<path d="M151.76 73.0298C152.146 73.0298 152.459 72.7165 152.459 72.3299C152.459 71.9433 152.146 71.6299 151.76 71.6299C151.373 71.6299 151.06 71.9433 151.06 72.3299C151.06 72.7165 151.373 73.0298 151.76 73.0298Z" fill="#E373FF"/>
<path d="M159.8 77.67C160.186 77.67 160.5 77.3566 160.5 76.97C160.5 76.5834 160.186 76.27 159.8 76.27C159.413 76.27 159.1 76.5834 159.1 76.97C159.1 77.3566 159.413 77.67 159.8 77.67Z" fill="#E373FF"/>
<path d="M151.76 82.3097C152.146 82.3097 152.459 81.9963 152.459 81.6097C152.459 81.2231 152.146 80.9097 151.76 80.9097C151.373 80.9097 151.06 81.2231 151.06 81.6097C151.06 81.9963 151.373 82.3097 151.76 82.3097Z" fill="#E373FF"/>
<path d="M167.85 82.3097C168.236 82.3097 168.55 81.9963 168.55 81.6097C168.55 81.2231 168.236 80.9097 167.85 80.9097C167.463 80.9097 167.149 81.2231 167.149 81.6097C167.149 81.9963 167.463 82.3097 167.85 82.3097Z" fill="#E373FF"/>
<path d="M159.8 86.96C160.186 86.96 160.5 86.6467 160.5 86.2601C160.5 85.8735 160.186 85.5601 159.8 85.5601C159.413 85.5601 159.1 85.8735 159.1 86.2601C159.1 86.6467 159.413 86.96 159.8 86.96Z" fill="#E373FF"/>
<path d="M175.889 86.96C176.276 86.96 176.59 86.6467 176.59 86.2601C176.59 85.8735 176.276 85.5601 175.889 85.5601C175.503 85.5601 175.189 85.8735 175.189 86.2601C175.189 86.6467 175.503 86.96 175.889 86.96Z" fill="#E373FF"/>
<path d="M167.85 91.5997C168.236 91.5997 168.55 91.2863 168.55 90.8997C168.55 90.5131 168.236 90.1997 167.85 90.1997C167.463 90.1997 167.149 90.5131 167.149 90.8997C167.149 91.2863 167.463 91.5997 167.85 91.5997Z" fill="#E373FF"/>
<path d="M175.889 96.2399C176.276 96.2399 176.59 95.9265 176.59 95.5399C176.59 95.1533 176.276 94.8398 175.889 94.8398C175.503 94.8398 175.189 95.1533 175.189 95.5399C175.189 95.9265 175.503 96.2399 175.889 96.2399Z" fill="#E373FF"/>
<path d="M183.929 91.5997C184.316 91.5997 184.63 91.2863 184.63 90.8997C184.63 90.5131 184.316 90.1997 183.929 90.1997C183.543 90.1997 183.229 90.5131 183.229 90.8997C183.229 91.2863 183.543 91.5997 183.929 91.5997Z" fill="#E373FF"/>
<path d="M191.969 86.96C192.356 86.96 192.669 86.6467 192.669 86.2601C192.669 85.8735 192.356 85.5601 191.969 85.5601C191.583 85.5601 191.27 85.8735 191.27 86.2601C191.27 86.6467 191.583 86.96 191.969 86.96Z" fill="#E373FF"/>
<path d="M200.01 82.3097C200.396 82.3097 200.709 81.9963 200.709 81.6097C200.709 81.2231 200.396 80.9097 200.01 80.9097C199.623 80.9097 199.31 81.2231 199.31 81.6097C199.31 81.9963 199.623 82.3097 200.01 82.3097Z" fill="#E373FF"/>
<path d="M143.719 77.67C144.106 77.67 144.419 77.3566 144.419 76.97C144.419 76.5834 144.106 76.27 143.719 76.27C143.333 76.27 143.02 76.5834 143.02 76.97C143.02 77.3566 143.333 77.67 143.719 77.67Z" fill="#E373FF"/>
<path d="M167.85 73.0298C168.236 73.0298 168.55 72.7165 168.55 72.3299C168.55 71.9433 168.236 71.6299 167.85 71.6299C167.463 71.6299 167.149 71.9433 167.149 72.3299C167.149 72.7165 167.463 73.0298 167.85 73.0298Z" fill="#E373FF"/>
<path d="M175.889 77.67C176.276 77.67 176.59 77.3566 176.59 76.97C176.59 76.5834 176.276 76.27 175.889 76.27C175.503 76.27 175.189 76.5834 175.189 76.97C175.189 77.3566 175.503 77.67 175.889 77.67Z" fill="#E373FF"/>
<path d="M183.929 82.3097C184.316 82.3097 184.63 81.9963 184.63 81.6097C184.63 81.2231 184.316 80.9097 183.929 80.9097C183.543 80.9097 183.229 81.2231 183.229 81.6097C183.229 81.9963 183.543 82.3097 183.929 82.3097Z" fill="#E373FF"/>
<path d="M159.8 68.38C160.186 68.38 160.5 68.0666 160.5 67.68C160.5 67.2934 160.186 66.98 159.8 66.98C159.413 66.98 159.1 67.2934 159.1 67.68C159.1 68.0666 159.413 68.38 159.8 68.38Z" fill="#E373FF"/>
<path d="M119.6 91.5997C119.986 91.5997 120.3 91.2863 120.3 90.8997C120.3 90.5131 119.986 90.1997 119.6 90.1997C119.213 90.1997 118.899 90.5131 118.899 90.8997C118.899 91.2863 119.213 91.5997 119.6 91.5997Z" fill="#E373FF"/>
<path d="M127.639 96.2399C128.026 96.2399 128.34 95.9265 128.34 95.5399C128.34 95.1533 128.026 94.8398 127.639 94.8398C127.253 94.8398 126.939 95.1533 126.939 95.5399C126.939 95.9265 127.253 96.2399 127.639 96.2399Z" fill="#E373FF"/>
<path d="M111.559 96.2399C111.946 96.2399 112.259 95.9265 112.259 95.5399C112.259 95.1533 111.946 94.8398 111.559 94.8398C111.173 94.8398 110.859 95.1533 110.859 95.5399C110.859 95.9265 111.173 96.2399 111.559 96.2399Z" fill="#E373FF"/>
<path d="M119.6 100.88C119.986 100.88 120.3 100.567 120.3 100.18C120.3 99.7934 119.986 99.48 119.6 99.48C119.213 99.48 118.899 99.7934 118.899 100.18C118.899 100.567 119.213 100.88 119.6 100.88Z" fill="#E373FF"/>
<path d="M127.639 105.53C128.026 105.53 128.34 105.216 128.34 104.83C128.34 104.443 128.026 104.13 127.639 104.13C127.253 104.13 126.939 104.443 126.939 104.83C126.939 105.216 127.253 105.53 127.639 105.53Z" fill="#E373FF"/>
<path d="M111.559 105.53C111.946 105.53 112.259 105.216 112.259 104.83C112.259 104.443 111.946 104.13 111.559 104.13C111.173 104.13 110.859 104.443 110.859 104.83C110.859 105.216 111.173 105.53 111.559 105.53Z" fill="#E373FF"/>
<path d="M119.6 110.17C119.986 110.17 120.3 109.857 120.3 109.47C120.3 109.083 119.986 108.77 119.6 108.77C119.213 108.77 118.899 109.083 118.899 109.47C118.899 109.857 119.213 110.17 119.6 110.17Z" fill="#E373FF"/>
<path d="M103.51 100.88C103.896 100.88 104.209 100.567 104.209 100.18C104.209 99.7934 103.896 99.48 103.51 99.48C103.123 99.48 102.81 99.7934 102.81 100.18C102.81 100.567 103.123 100.88 103.51 100.88Z" fill="#E373FF"/>
<path d="M127.639 114.81C128.026 114.81 128.34 114.496 128.34 114.11C128.34 113.723 128.026 113.41 127.639 113.41C127.253 113.41 126.939 113.723 126.939 114.11C126.939 114.496 127.253 114.81 127.639 114.81Z" fill="#E373FF"/>
<path d="M111.559 86.96C111.946 86.96 112.259 86.6467 112.259 86.2601C112.259 85.8735 111.946 85.5601 111.559 85.5601C111.173 85.5601 110.859 85.8735 110.859 86.2601C110.859 86.6467 111.173 86.96 111.559 86.96Z" fill="#E373FF"/>
<path d="M103.51 91.5997C103.896 91.5997 104.209 91.2863 104.209 90.8997C104.209 90.5131 103.896 90.1997 103.51 90.1997C103.123 90.1997 102.81 90.5131 102.81 90.8997C102.81 91.2863 103.123 91.5997 103.51 91.5997Z" fill="#E373FF"/>
<path d="M127.639 77.67C128.026 77.67 128.34 77.3566 128.34 76.97C128.34 76.5834 128.026 76.27 127.639 76.27C127.253 76.27 126.939 76.5834 126.939 76.97C126.939 77.3566 127.253 77.67 127.639 77.67Z" fill="#E373FF"/>
<path d="M119.6 82.3097C119.986 82.3097 120.3 81.9963 120.3 81.6097C120.3 81.2231 119.986 80.9097 119.6 80.9097C119.213 80.9097 118.899 81.2231 118.899 81.6097C118.899 81.9963 119.213 82.3097 119.6 82.3097Z" fill="#E373FF"/>
<path d="M135.679 73.0298C136.066 73.0298 136.38 72.7165 136.38 72.3299C136.38 71.9433 136.066 71.6299 135.679 71.6299C135.293 71.6299 134.979 71.9433 134.979 72.3299C134.979 72.7165 135.293 73.0298 135.679 73.0298Z" fill="#E373FF"/>
<path d="M95.4695 96.2399C95.8561 96.2399 96.1694 95.9265 96.1694 95.5399C96.1694 95.1533 95.8561 94.8398 95.4695 94.8398C95.0829 94.8398 94.7695 95.1533 94.7695 95.5399C94.7695 95.9265 95.0829 96.2399 95.4695 96.2399Z" fill="#E373FF"/>
<path d="M111.559 68.38C111.946 68.38 112.259 68.0666 112.259 67.68C112.259 67.2934 111.946 66.98 111.559 66.98C111.173 66.98 110.859 67.2934 110.859 67.68C110.859 68.0666 111.173 68.38 111.559 68.38Z" fill="#E373FF"/>
<path d="M103.51 73.0298C103.896 73.0298 104.209 72.7165 104.209 72.3299C104.209 71.9433 103.896 71.6299 103.51 71.6299C103.123 71.6299 102.81 71.9433 102.81 72.3299C102.81 72.7165 103.123 73.0298 103.51 73.0298Z" fill="#E373FF"/>
<path d="M95.4695 77.67C95.8561 77.67 96.1694 77.3566 96.1694 76.97C96.1694 76.5834 95.8561 76.27 95.4695 76.27C95.0829 76.27 94.7695 76.5834 94.7695 76.97C94.7695 77.3566 95.0829 77.67 95.4695 77.67Z" fill="#E373FF"/>
<path d="M87.4294 82.3097C87.816 82.3097 88.1296 81.9963 88.1296 81.6097C88.1296 81.2231 87.816 80.9097 87.4294 80.9097C87.0428 80.9097 86.7295 81.2231 86.7295 81.6097C86.7295 81.9963 87.0428 82.3097 87.4294 82.3097Z" fill="#E373FF"/>
<path d="M111.559 77.67C111.946 77.67 112.259 77.3566 112.259 76.97C112.259 76.5834 111.946 76.27 111.559 76.27C111.173 76.27 110.859 76.5834 110.859 76.97C110.859 77.3566 111.173 77.67 111.559 77.67Z" fill="#E373FF"/>
<path d="M103.51 82.3097C103.896 82.3097 104.209 81.9963 104.209 81.6097C104.209 81.2231 103.896 80.9097 103.51 80.9097C103.123 80.9097 102.81 81.2231 102.81 81.6097C102.81 81.9963 103.123 82.3097 103.51 82.3097Z" fill="#E373FF"/>
<path d="M119.6 73.0298C119.986 73.0298 120.3 72.7165 120.3 72.3299C120.3 71.9433 119.986 71.6299 119.6 71.6299C119.213 71.6299 118.899 71.9433 118.899 72.3299C118.899 72.7165 119.213 73.0298 119.6 73.0298Z" fill="#E373FF"/>
<path d="M95.4695 86.96C95.8561 86.96 96.1694 86.6467 96.1694 86.2601C96.1694 85.8735 95.8561 85.5601 95.4695 85.5601C95.0829 85.5601 94.7695 85.8735 94.7695 86.2601C94.7695 86.6467 95.0829 86.96 95.4695 86.96Z" fill="#E373FF"/>
<path d="M87.4294 91.5997C87.816 91.5997 88.1296 91.2863 88.1296 90.8997C88.1296 90.5131 87.816 90.1997 87.4294 90.1997C87.0428 90.1997 86.7295 90.5131 86.7295 90.8997C86.7295 91.2863 87.0428 91.5997 87.4294 91.5997Z" fill="#E373FF"/>
<path d="M143.719 68.38C144.106 68.38 144.419 68.0666 144.419 67.68C144.419 67.2934 144.106 66.98 143.719 66.98C143.333 66.98 143.02 67.2934 143.02 67.68C143.02 68.0666 143.333 68.38 143.719 68.38Z" fill="#E373FF"/>
<path d="M127.639 59.0997C128.026 59.0997 128.34 58.7863 128.34 58.3997C128.34 58.0131 128.026 57.6997 127.639 57.6997C127.253 57.6997 126.939 58.0131 126.939 58.3997C126.939 58.7863 127.253 59.0997 127.639 59.0997Z" fill="#E373FF"/>
<path d="M119.6 63.7399C119.986 63.7399 120.3 63.4265 120.3 63.0399C120.3 62.6533 119.986 62.3398 119.6 62.3398C119.213 62.3398 118.899 62.6533 118.899 63.0399C118.899 63.4265 119.213 63.7399 119.6 63.7399Z" fill="#E373FF"/>
<path d="M127.639 68.38C128.026 68.38 128.34 68.0666 128.34 67.68C128.34 67.2934 128.026 66.98 127.639 66.98C127.253 66.98 126.939 67.2934 126.939 67.68C126.939 68.0666 127.253 68.38 127.639 68.38Z" fill="#E373FF"/>
<path d="M135.679 63.7399C136.066 63.7399 136.38 63.4265 136.38 63.0399C136.38 62.6533 136.066 62.3398 135.679 62.3398C135.293 62.3398 134.979 62.6533 134.979 63.0399C134.979 63.4265 135.293 63.7399 135.679 63.7399Z" fill="#E373FF"/>
<path d="M151.76 63.7399C152.146 63.7399 152.459 63.4265 152.459 63.0399C152.459 62.6533 152.146 62.3398 151.76 62.3398C151.373 62.3398 151.06 62.6533 151.06 63.0399C151.06 63.4265 151.373 63.7399 151.76 63.7399Z" fill="#E373FF"/>
<path d="M135.679 54.46C136.066 54.46 136.38 54.1467 136.38 53.7601C136.38 53.3735 136.066 53.0601 135.679 53.0601C135.293 53.0601 134.979 53.3735 134.979 53.7601C134.979 54.1467 135.293 54.46 135.679 54.46Z" fill="#E373FF"/>
<path d="M143.719 59.0997C144.106 59.0997 144.419 58.7863 144.419 58.3997C144.419 58.0131 144.106 57.6997 143.719 57.6997C143.333 57.6997 143.02 58.0131 143.02 58.3997C143.02 58.7863 143.333 59.0997 143.719 59.0997Z" fill="#E373FF"/>
<path d="M175.889 59.0997C176.276 59.0997 176.59 58.7863 176.59 58.3997C176.59 58.0131 176.276 57.6997 175.889 57.6997C175.503 57.6997 175.189 58.0131 175.189 58.3997C175.189 58.7863 175.503 59.0997 175.889 59.0997Z" fill="#E373FF"/>
<path d="M183.929 63.7399C184.316 63.7399 184.63 63.4265 184.63 63.0399C184.63 62.6533 184.316 62.3398 183.929 62.3398C183.543 62.3398 183.229 62.6533 183.229 63.0399C183.229 63.4265 183.543 63.7399 183.929 63.7399Z" fill="#E373FF"/>
<path d="M175.889 68.38C176.276 68.38 176.59 68.0666 176.59 67.68C176.59 67.2934 176.276 66.98 175.889 66.98C175.503 66.98 175.189 67.2934 175.189 67.68C175.189 68.0666 175.503 68.38 175.889 68.38Z" fill="#E373FF"/>
<path d="M191.969 68.38C192.356 68.38 192.669 68.0666 192.669 67.68C192.669 67.2934 192.356 66.98 191.969 66.98C191.583 66.98 191.27 67.2934 191.27 67.68C191.27 68.0666 191.583 68.38 191.969 68.38Z" fill="#E373FF"/>
<path d="M183.929 73.0298C184.316 73.0298 184.63 72.7165 184.63 72.3299C184.63 71.9433 184.316 71.6299 183.929 71.6299C183.543 71.6299 183.229 71.9433 183.229 72.3299C183.229 72.7165 183.543 73.0298 183.929 73.0298Z" fill="#E373FF"/>
<path d="M200.01 73.0298C200.396 73.0298 200.709 72.7165 200.709 72.3299C200.709 71.9433 200.396 71.6299 200.01 71.6299C199.623 71.6299 199.31 71.9433 199.31 72.3299C199.31 72.7165 199.623 73.0298 200.01 73.0298Z" fill="#E373FF"/>
<path d="M191.969 77.67C192.356 77.67 192.669 77.3566 192.669 76.97C192.669 76.5834 192.356 76.27 191.969 76.27C191.583 76.27 191.27 76.5834 191.27 76.97C191.27 77.3566 191.583 77.67 191.969 77.67Z" fill="#E373FF"/>
<path d="M208.05 77.67C208.436 77.67 208.75 77.3566 208.75 76.97C208.75 76.5834 208.436 76.27 208.05 76.27C207.663 76.27 207.35 76.5834 207.35 76.97C207.35 77.3566 207.663 77.67 208.05 77.67Z" fill="#E373FF"/>
<path d="M216.09 73.0298C216.476 73.0298 216.79 72.7165 216.79 72.3299C216.79 71.9433 216.476 71.6299 216.09 71.6299C215.703 71.6299 215.39 71.9433 215.39 72.3299C215.39 72.7165 215.703 73.0298 216.09 73.0298Z" fill="#E373FF"/>
<path d="M167.85 63.7399C168.236 63.7399 168.55 63.4265 168.55 63.0399C168.55 62.6533 168.236 62.3398 167.85 62.3398C167.463 62.3398 167.149 62.6533 167.149 63.0399C167.149 63.4265 167.463 63.7399 167.85 63.7399Z" fill="#E373FF"/>
<path d="M191.969 59.0997C192.356 59.0997 192.669 58.7863 192.669 58.3997C192.669 58.0131 192.356 57.6997 191.969 57.6997C191.583 57.6997 191.27 58.0131 191.27 58.3997C191.27 58.7863 191.583 59.0997 191.969 59.0997Z" fill="#E373FF"/>
<path d="M200.01 63.7399C200.396 63.7399 200.709 63.4265 200.709 63.0399C200.709 62.6533 200.396 62.3398 200.01 62.3398C199.623 62.3398 199.31 62.6533 199.31 63.0399C199.31 63.4265 199.623 63.7399 200.01 63.7399Z" fill="#E373FF"/>
<path d="M208.05 68.38C208.436 68.38 208.75 68.0666 208.75 67.68C208.75 67.2934 208.436 66.98 208.05 66.98C207.663 66.98 207.35 67.2934 207.35 67.68C207.35 68.0666 207.663 68.38 208.05 68.38Z" fill="#E373FF"/>
<path d="M175.889 105.53C176.276 105.53 176.59 105.216 176.59 104.83C176.59 104.443 176.276 104.13 175.889 104.13C175.503 104.13 175.189 104.443 175.189 104.83C175.189 105.216 175.503 105.53 175.889 105.53Z" fill="#E373FF"/>
<path d="M167.85 110.17C168.236 110.17 168.55 109.857 168.55 109.47C168.55 109.083 168.236 108.77 167.85 108.77C167.463 108.77 167.149 109.083 167.149 109.47C167.149 109.857 167.463 110.17 167.85 110.17Z" fill="#E373FF"/>
<path d="M159.8 114.81C160.186 114.81 160.5 114.496 160.5 114.11C160.5 113.723 160.186 113.41 159.8 113.41C159.413 113.41 159.1 113.723 159.1 114.11C159.1 114.496 159.413 114.81 159.8 114.81Z" fill="#E373FF"/>
<path d="M183.929 110.17C184.316 110.17 184.63 109.857 184.63 109.47C184.63 109.083 184.316 108.77 183.929 108.77C183.543 108.77 183.229 109.083 183.229 109.47C183.229 109.857 183.543 110.17 183.929 110.17Z" fill="#E373FF"/>
<path d="M175.889 114.81C176.276 114.81 176.59 114.496 176.59 114.11C176.59 113.723 176.276 113.41 175.889 113.41C175.503 113.41 175.189 113.723 175.189 114.11C175.189 114.496 175.503 114.81 175.889 114.81Z" fill="#E373FF"/>
<path d="M167.85 119.45C168.236 119.45 168.55 119.136 168.55 118.75C168.55 118.363 168.236 118.05 167.85 118.05C167.463 118.05 167.149 118.363 167.149 118.75C167.149 119.136 167.463 119.45 167.85 119.45Z" fill="#E373FF"/>
<path d="M159.8 124.1C160.186 124.1 160.5 123.786 160.5 123.4C160.5 123.013 160.186 122.7 159.8 122.7C159.413 122.7 159.1 123.013 159.1 123.4C159.1 123.786 159.413 124.1 159.8 124.1Z" fill="#E373FF"/>
<path d="M183.929 119.45C184.316 119.45 184.63 119.136 184.63 118.75C184.63 118.363 184.316 118.05 183.929 118.05C183.543 118.05 183.229 118.363 183.229 118.75C183.229 119.136 183.543 119.45 183.929 119.45Z" fill="#E373FF"/>
<path d="M175.889 124.1C176.276 124.1 176.59 123.786 176.59 123.4C176.59 123.013 176.276 122.7 175.889 122.7C175.503 122.7 175.189 123.013 175.189 123.4C175.189 123.786 175.503 124.1 175.889 124.1Z" fill="#E373FF"/>
<path d="M191.969 114.81C192.356 114.81 192.669 114.496 192.669 114.11C192.669 113.723 192.356 113.41 191.969 113.41C191.583 113.41 191.27 113.723 191.27 114.11C191.27 114.496 191.583 114.81 191.969 114.81Z" fill="#E373FF"/>
<path d="M167.85 128.74C168.236 128.74 168.55 128.426 168.55 128.04C168.55 127.653 168.236 127.34 167.85 127.34C167.463 127.34 167.149 127.653 167.149 128.04C167.149 128.426 167.463 128.74 167.85 128.74Z" fill="#E373FF"/>
<path d="M159.8 133.38C160.186 133.38 160.5 133.067 160.5 132.68C160.5 132.293 160.186 131.98 159.8 131.98C159.413 131.98 159.1 132.293 159.1 132.68C159.1 133.067 159.413 133.38 159.8 133.38Z" fill="#E373FF"/>
<path d="M191.969 96.2399C192.356 96.2399 192.669 95.9265 192.669 95.5399C192.669 95.1533 192.356 94.8398 191.969 94.8398C191.583 94.8398 191.27 95.1533 191.27 95.5399C191.27 95.9265 191.583 96.2399 191.969 96.2399Z" fill="#E373FF"/>
<path d="M183.929 100.88C184.316 100.88 184.63 100.567 184.63 100.18C184.63 99.7934 184.316 99.48 183.929 99.48C183.543 99.48 183.229 99.7934 183.229 100.18C183.229 100.567 183.543 100.88 183.929 100.88Z" fill="#E373FF"/>
<path d="M200.01 100.88C200.396 100.88 200.709 100.567 200.709 100.18C200.709 99.7934 200.396 99.48 200.01 99.48C199.623 99.48 199.31 99.7934 199.31 100.18C199.31 100.567 199.623 100.88 200.01 100.88Z" fill="#E373FF"/>
<path d="M191.969 105.53C192.356 105.53 192.669 105.216 192.669 104.83C192.669 104.443 192.356 104.13 191.969 104.13C191.583 104.13 191.27 104.443 191.27 104.83C191.27 105.216 191.583 105.53 191.969 105.53Z" fill="#E373FF"/>
<path d="M200.01 110.17C200.396 110.17 200.709 109.857 200.709 109.47C200.709 109.083 200.396 108.77 200.01 108.77C199.623 108.77 199.31 109.083 199.31 109.47C199.31 109.857 199.623 110.17 200.01 110.17Z" fill="#E373FF"/>
<path d="M208.05 105.53C208.436 105.53 208.75 105.216 208.75 104.83C208.75 104.443 208.436 104.13 208.05 104.13C207.663 104.13 207.35 104.443 207.35 104.83C207.35 105.216 207.663 105.53 208.05 105.53Z" fill="#E373FF"/>
<path d="M216.09 100.88C216.476 100.88 216.79 100.567 216.79 100.18C216.79 99.7934 216.476 99.48 216.09 99.48C215.703 99.48 215.39 99.7934 215.39 100.18C215.39 100.567 215.703 100.88 216.09 100.88Z" fill="#E373FF"/>
<path d="M224.139 96.2399C224.526 96.2399 224.84 95.9265 224.84 95.5399C224.84 95.1533 224.526 94.8398 224.139 94.8398C223.753 94.8398 223.439 95.1533 223.439 95.5399C223.439 95.9265 223.753 96.2399 224.139 96.2399Z" fill="#E373FF"/>
<path d="M191.969 86.96C192.356 86.96 192.669 86.6467 192.669 86.2601C192.669 85.8735 192.356 85.5601 191.969 85.5601C191.583 85.5601 191.27 85.8735 191.27 86.2601C191.27 86.6467 191.583 86.96 191.969 86.96Z" fill="#E373FF"/>
<path d="M200.01 91.5997C200.396 91.5997 200.709 91.2863 200.709 90.8997C200.709 90.5131 200.396 90.1997 200.01 90.1997C199.623 90.1997 199.31 90.5131 199.31 90.8997C199.31 91.2863 199.623 91.5997 200.01 91.5997Z" fill="#E373FF"/>
<path d="M208.05 96.2399C208.436 96.2399 208.75 95.9265 208.75 95.5399C208.75 95.1533 208.436 94.8398 208.05 94.8398C207.663 94.8398 207.35 95.1533 207.35 95.5399C207.35 95.9265 207.663 96.2399 208.05 96.2399Z" fill="#E373FF"/>
<path d="M151.76 119.45C152.146 119.45 152.459 119.136 152.459 118.75C152.459 118.363 152.146 118.05 151.76 118.05C151.373 118.05 151.06 118.363 151.06 118.75C151.06 119.136 151.373 119.45 151.76 119.45Z" fill="#E373FF"/>
<path d="M143.719 124.1C144.106 124.1 144.419 123.786 144.419 123.4C144.419 123.013 144.106 122.7 143.719 122.7C143.333 122.7 143.02 123.013 143.02 123.4C143.02 123.786 143.333 124.1 143.719 124.1Z" fill="#E373FF"/>
<path d="M151.76 128.74C152.146 128.74 152.459 128.426 152.459 128.04C152.459 127.653 152.146 127.34 151.76 127.34C151.373 127.34 151.06 127.653 151.06 128.04C151.06 128.426 151.373 128.74 151.76 128.74Z" fill="#E373FF"/>
<path d="M216.09 82.3097C216.476 82.3097 216.79 81.9963 216.79 81.6097C216.79 81.2231 216.476 80.9097 216.09 80.9097C215.703 80.9097 215.39 81.2231 215.39 81.6097C215.39 81.9963 215.703 82.3097 216.09 82.3097Z" fill="#E373FF"/>
<path d="M208.05 86.96C208.436 86.96 208.75 86.6467 208.75 86.2601C208.75 85.8735 208.436 85.5601 208.05 85.5601C207.663 85.5601 207.35 85.8735 207.35 86.2601C207.35 86.6467 207.663 86.96 208.05 86.96Z" fill="#E373FF"/>
<path d="M224.139 86.96C224.526 86.96 224.84 86.6467 224.84 86.2601C224.84 85.8735 224.526 85.5601 224.139 85.5601C223.753 85.5601 223.439 85.8735 223.439 86.2601C223.439 86.6467 223.753 86.96 224.139 86.96Z" fill="#E373FF"/>
<path d="M216.09 91.5997C216.476 91.5997 216.79 91.2863 216.79 90.8997C216.79 90.5131 216.476 90.1997 216.09 90.1997C215.703 90.1997 215.39 90.5131 215.39 90.8997C215.39 91.2863 215.703 91.5997 216.09 91.5997Z" fill="#E373FF"/>
<path d="M232.179 91.5997C232.566 91.5997 232.88 91.2863 232.88 90.8997C232.88 90.5131 232.566 90.1997 232.179 90.1997C231.793 90.1997 231.479 90.5131 231.479 90.8997C231.479 91.2863 231.793 91.5997 232.179 91.5997Z" fill="#E373FF"/>
<path d="M240.219 86.96C240.606 86.96 240.919 86.6467 240.919 86.2601C240.919 85.8735 240.606 85.5601 240.219 85.5601C239.833 85.5601 239.52 85.8735 239.52 86.2601C239.52 86.6467 239.833 86.96 240.219 86.96Z" fill="#E373FF"/>
<path d="M224.139 77.67C224.526 77.67 224.84 77.3566 224.84 76.97C224.84 76.5834 224.526 76.27 224.139 76.27C223.753 76.27 223.439 76.5834 223.439 76.97C223.439 77.3566 223.753 77.67 224.139 77.67Z" fill="#E373FF"/>
<path d="M232.179 82.3097C232.566 82.3097 232.88 81.9963 232.88 81.6097C232.88 81.2231 232.566 80.9097 232.179 80.9097C231.793 80.9097 231.479 81.2231 231.479 81.6097C231.479 81.9963 231.793 82.3097 232.179 82.3097Z" fill="#E373FF"/>
<path d="M183.929 54.46C184.316 54.46 184.63 54.1467 184.63 53.7601C184.63 53.3735 184.316 53.0601 183.929 53.0601C183.543 53.0601 183.229 53.3735 183.229 53.7601C183.229 54.1467 183.543 54.46 183.929 54.46Z" fill="#E373FF"/>
<path d="M159.8 59.0997C160.186 59.0997 160.5 58.7863 160.5 58.3997C160.5 58.0131 160.186 57.6997 159.8 57.6997C159.413 57.6997 159.1 58.0131 159.1 58.3997C159.1 58.7863 159.413 59.0997 159.8 59.0997Z" fill="#E373FF"/>
<path d="M167.85 54.46C168.236 54.46 168.55 54.1467 168.55 53.7601C168.55 53.3735 168.236 53.0601 167.85 53.0601C167.463 53.0601 167.149 53.3735 167.149 53.7601C167.149 54.1467 167.463 54.46 167.85 54.46Z" fill="#E373FF"/>
<path d="M151.76 45.17C152.146 45.17 152.459 44.8566 152.459 44.47C152.459 44.0834 152.146 43.77 151.76 43.77C151.373 43.77 151.06 44.0834 151.06 44.47C151.06 44.8566 151.373 45.17 151.76 45.17Z" fill="#E373FF"/>
<path d="M143.719 49.8097C144.106 49.8097 144.419 49.4963 144.419 49.1097C144.419 48.7231 144.106 48.4097 143.719 48.4097C143.333 48.4097 143.02 48.7231 143.02 49.1097C143.02 49.4963 143.333 49.8097 143.719 49.8097Z" fill="#E373FF"/>
<path d="M151.76 54.46C152.146 54.46 152.459 54.1467 152.459 53.7601C152.459 53.3735 152.146 53.0601 151.76 53.0601C151.373 53.0601 151.06 53.3735 151.06 53.7601C151.06 54.1467 151.373 54.46 151.76 54.46Z" fill="#E373FF"/>
<path d="M159.8 49.8097C160.186 49.8097 160.5 49.4963 160.5 49.1097C160.5 48.7231 160.186 48.4097 159.8 48.4097C159.413 48.4097 159.1 48.7231 159.1 49.1097C159.1 49.4963 159.413 49.8097 159.8 49.8097Z" fill="#E373FF"/>
<path d="M175.889 49.8097C176.276 49.8097 176.59 49.4963 176.59 49.1097C176.59 48.7231 176.276 48.4097 175.889 48.4097C175.503 48.4097 175.189 48.7231 175.189 49.1097C175.189 49.4963 175.503 49.8097 175.889 49.8097Z" fill="#E373FF"/>
<path d="M159.8 40.5298C160.186 40.5298 160.5 40.2165 160.5 39.8299C160.5 39.4433 160.186 39.1299 159.8 39.1299C159.413 39.1299 159.1 39.4433 159.1 39.8299C159.1 40.2165 159.413 40.5298 159.8 40.5298Z" fill="#E373FF"/>
<path d="M167.85 45.17C168.236 45.17 168.55 44.8566 168.55 44.47C168.55 44.0834 168.236 43.77 167.85 43.77C167.463 43.77 167.149 44.0834 167.149 44.47C167.149 44.8566 167.463 45.17 167.85 45.17Z" fill="#E373FF"/>
<path d="M79.3894 86.96C79.776 86.96 80.0896 86.6467 80.0896 86.2601C80.0896 85.8735 79.776 85.5601 79.3894 85.5601C79.0028 85.5601 78.6895 85.8735 78.6895 86.2601C78.6895 86.6467 79.0028 86.96 79.3894 86.96Z" fill="#E373FF"/>
<path d="M195.6 65.48L184.94 71.63C191.22 75.31 195.1 80.38 195.1 85.97C195.1 97.24 179.35 106.37 159.92 106.37V115.09C187.66 115.09 210.14 102.05 210.14 85.97C210.14 77.98 204.59 70.74 195.6 65.48Z" fill="#191919"/>
<path d="M159.92 56.8501V65.5701C169.71 65.5701 178.57 67.8901 184.95 71.6401L195.61 65.4901C186.51 60.1601 173.88 56.8601 159.93 56.8601L159.92 56.8501Z" fill="#191919"/>
<path d="M142.159 68.3601C147.369 66.5901 153.439 65.5701 159.909 65.5701V56.8501C150.659 56.8501 142.009 58.3001 134.569 60.8301L142.159 68.3601Z" fill="#191919"/>
<path d="M124.729 85.97C124.729 78.46 131.739 71.9 142.159 68.36L134.57 60.8301C119.69 65.8801 109.689 75.25 109.689 85.97C109.689 87.42 109.879 88.8501 110.229 90.2501L125.11 88.97C124.86 87.99 124.729 86.99 124.729 85.97Z" fill="#191919"/>
<path d="M159.919 115.09C177.099 115.09 192.259 110.08 201.319 102.45L188.919 97.51C182.579 102.86 171.959 106.36 159.919 106.36C142.249 106.36 127.619 98.8 125.119 88.96L110.239 90.24C113.809 104.29 134.689 115.08 159.919 115.08V115.09Z" fill="#191919"/>
<path d="M195.6 60.3101L184.94 66.46C191.22 70.14 195.1 75.21 195.1 80.8C195.1 92.07 179.35 101.2 159.92 101.2V109.92C187.66 109.92 210.14 96.8801 210.14 80.8C210.14 72.81 204.59 65.5701 195.6 60.3101Z" fill="#3A3A3A"/>
<path d="M142.159 54.7297C147.369 52.9597 153.439 51.9398 159.909 51.9398V37.2297L134.569 32.4897V47.1998L142.159 54.7297Z" fill="#6B36CF"/>
<path d="M142.159 40.0198C147.369 38.2498 153.439 37.2297 159.909 37.2297V28.5098C150.659 28.5098 142.009 29.9597 134.569 32.4897L142.159 40.0198Z" fill="#9B66FF"/>
<path d="M134.569 32.4897L142.159 40.0198C147.369 38.2498 153.439 37.2297 159.909 37.2297" stroke="#232323" stroke-linecap="round" stroke-linejoin="round"/>
<path d="M112.449 66.96L109.689 66.09V80.8C109.689 82.26 109.879 83.68 110.229 85.08L120.1 84.23V58.02C115.61 62.45 112.439 66.96 112.439 66.96H112.449Z" fill="#4C47E5"/>
<path d="M124.729 80.8C124.729 73.29 131.739 66.73 142.159 63.19V48.48L131.409 50.19C127.399 51.55 123.39 54.76 120.1 58.02V84.23L125.11 83.8C124.86 82.82 124.729 81.82 124.729 80.8Z" fill="url(#paint3_linear_38_536)"/>
<path d="M124.729 66.0901C124.729 58.5801 131.739 52.0202 142.159 48.4802L134.57 40.9502C119.69 46.0002 109.689 55.3701 109.689 66.0901C109.689 67.5401 109.879 68.9702 110.229 70.3702L125.11 69.0901C124.86 68.1101 124.729 67.1101 124.729 66.0901Z" fill="#7D78FF"/>
<path d="M110.239 70.37L125.119 69.09C124.869 68.11 124.739 67.11 124.739 66.09C124.739 58.58 131.749 52.02 142.169 48.48" stroke="#232323" stroke-linecap="round" stroke-linejoin="round"/>
<path d="M188.919 96.1198C182.409 101.26 171.959 101.38 159.919 101.38C142.249 101.38 127.619 97.4098 125.119 87.5698L110.239 79.5098V85.0997C113.819 99.1397 134.699 109.92 159.909 109.92C177.089 109.92 192.249 104.91 201.309 97.2797V91.7097L188.909 96.1198H188.919Z" fill="url(#paint4_linear_38_536)"/>
<path d="M159.919 104.35C177.099 104.35 192.259 99.3397 201.319 91.7097L188.919 86.7698C182.579 92.1198 171.959 95.6198 159.919 95.6198C142.249 95.6198 127.619 88.0597 125.119 78.2197L110.239 79.4998C113.809 93.5498 134.689 104.34 159.919 104.34V104.35Z" fill="#E373FF"/>
<path d="M110.239 79.5098C113.809 93.5598 134.689 104.35 159.919 104.35C177.099 104.35 192.259 99.3397 201.319 91.7097" stroke="#232323" stroke-linecap="round" stroke-linejoin="round"/>
<path d="M163.489 17.71V26.43C173.279 26.43 182.139 28.75 188.519 32.5L199.179 26.35C190.079 21.02 177.449 17.72 163.499 17.72L163.489 17.71Z" stroke="#E373FF" stroke-linecap="round" stroke-linejoin="round"/>
<path d="M163.489 3V11.72C173.279 11.72 182.139 14.04 188.519 17.79L199.179 11.64C190.079 6.31001 177.449 3.01001 163.499 3.01001L163.489 3Z" stroke="#E373FF" stroke-linecap="round" stroke-linejoin="round"/>
<path d="M188.51 17.7798V32.4899L199.17 26.3398V11.6299L188.51 17.7798Z" stroke="#E373FF" stroke-linecap="round" stroke-linejoin="round"/>
<path d="M163.489 11.7197V26.4297" stroke="#E373FF" stroke-linecap="round" stroke-linejoin="round"/>
</g>
<defs>
<linearGradient id="paint0_linear_38_536" x1="160.246" y1="117" x2="160.246" y2="179" gradientUnits="userSpaceOnUse">
<stop stop-color="#191919"/>
<stop offset="1" stop-color="#6B1F7E"/>
</linearGradient>
<linearGradient id="paint1_linear_38_536" x1="159.815" y1="31.5002" x2="159.815" y2="157.47" gradientUnits="userSpaceOnUse">
<stop stop-color="#6B1F7E"/>
<stop offset="1" stop-color="#191919"/>
</linearGradient>
<linearGradient id="paint2_linear_38_536" x1="100.31" y1="86.2601" x2="299.91" y2="86.2601" gradientUnits="userSpaceOnUse">
<stop stop-color="#6B1F7E"/>
<stop offset="0.05" stop-color="#6B1F7E" stop-opacity="0.83"/>
<stop offset="0.13" stop-color="#6B1F7E" stop-opacity="0.58"/>
<stop offset="0.2" stop-color="#6B1F7E" stop-opacity="0.37"/>
<stop offset="0.28" stop-color="#6B1F7E" stop-opacity="0.21"/>
<stop offset="0.34" stop-color="#6B1F7E" stop-opacity="0.09"/>
<stop offset="0.4" stop-color="#6B1F7E" stop-opacity="0.02"/>
<stop offset="0.45" stop-color="#6B1F7E" stop-opacity="0"/>
</linearGradient>
<linearGradient id="paint3_linear_38_536" x1="143.5" y1="59.5" x2="127" y2="59.5" gradientUnits="userSpaceOnUse">
<stop stop-color="#7D78FF"/>
<stop offset="1" stop-color="#4C47E5"/>
</linearGradient>
<linearGradient id="paint4_linear_38_536" x1="155.999" y1="102.5" x2="110.239" y2="94.7148" gradientUnits="userSpaceOnUse">
<stop stop-color="#E373FF"/>
<stop offset="1" stop-color="#EFB0FF"/>
</linearGradient>
</defs>
</svg>
