<svg width="321" height="200" viewBox="0 0 321 200" fill="none" xmlns="http://www.w3.org/2000/svg">
<path d="M159.978 64.4492L55.9785 124.506L159.978 184.55L263.978 124.506L159.978 64.4492Z" fill="url(#paint0_linear_1287_8536)"/>
<path d="M171.035 125.472C171.568 125.472 172.001 125.039 172.001 124.505C172.001 123.972 171.568 123.539 171.035 123.539C170.501 123.539 170.068 123.972 170.068 124.505C170.068 125.039 170.501 125.472 171.035 125.472Z" fill="#E373FF"/>
<path d="M159.978 131.854C160.512 131.854 160.944 131.422 160.944 130.888C160.944 130.354 160.512 129.922 159.978 129.922C159.444 129.922 159.012 130.354 159.012 130.888C159.012 131.422 159.444 131.854 159.978 131.854Z" fill="#E373FF"/>
<path d="M182.089 131.854C182.623 131.854 183.056 131.422 183.056 130.888C183.056 130.354 182.623 129.922 182.089 129.922C181.556 129.922 181.123 130.354 181.123 130.888C181.123 131.422 181.556 131.854 182.089 131.854Z" fill="#7D78FF"/>
<path d="M171.035 138.235C171.568 138.235 172.001 137.803 172.001 137.269C172.001 136.735 171.568 136.303 171.035 136.303C170.501 136.303 170.068 136.735 170.068 137.269C170.068 137.803 170.501 138.235 171.035 138.235Z" fill="#E373FF"/>
<path d="M159.978 144.618C160.512 144.618 160.944 144.186 160.944 143.652C160.944 143.118 160.512 142.686 159.978 142.686C159.444 142.686 159.012 143.118 159.012 143.652C159.012 144.186 159.444 144.618 159.978 144.618Z" fill="#E373FF"/>
<path d="M193.146 138.235C193.68 138.235 194.112 137.803 194.112 137.269C194.112 136.735 193.68 136.303 193.146 136.303C192.612 136.303 192.18 136.735 192.18 137.269C192.18 137.803 192.612 138.235 193.146 138.235Z" fill="#E373FF"/>
<path d="M182.089 144.618C182.623 144.618 183.056 144.186 183.056 143.652C183.056 143.118 182.623 142.686 182.089 142.686C181.556 142.686 181.123 143.118 181.123 143.652C181.123 144.186 181.556 144.618 182.089 144.618Z" fill="#E373FF"/>
<path d="M171.035 151.001C171.568 151.001 172.001 150.568 172.001 150.035C172.001 149.501 171.568 149.068 171.035 149.068C170.501 149.068 170.068 149.501 170.068 150.035C170.068 150.568 170.501 151.001 171.035 151.001Z" fill="#E373FF"/>
<path d="M159.978 157.382C160.512 157.382 160.944 156.949 160.944 156.416C160.944 155.882 160.512 155.449 159.978 155.449C159.444 155.449 159.012 155.882 159.012 156.416C159.012 156.949 159.444 157.382 159.978 157.382Z" fill="#E373FF"/>
<path d="M193.146 151.001C193.68 151.001 194.112 150.568 194.112 150.035C194.112 149.501 193.68 149.068 193.146 149.068C192.612 149.068 192.18 149.501 192.18 150.035C192.18 150.568 192.612 151.001 193.146 151.001Z" fill="#E373FF"/>
<path d="M182.089 157.382C182.623 157.382 183.056 156.949 183.056 156.416C183.056 155.882 182.623 155.449 182.089 155.449C181.556 155.449 181.123 155.882 181.123 156.416C181.123 156.949 181.556 157.382 182.089 157.382Z" fill="#E373FF"/>
<path d="M204.203 144.618C204.736 144.618 205.169 144.186 205.169 143.652C205.169 143.118 204.736 142.686 204.203 142.686C203.669 142.686 203.236 143.118 203.236 143.652C203.236 144.186 203.669 144.618 204.203 144.618Z" fill="#9B66FF"/>
<path d="M171.035 163.765C171.568 163.765 172.001 163.332 172.001 162.798C172.001 162.265 171.568 161.832 171.035 161.832C170.501 161.832 170.068 162.265 170.068 162.798C170.068 163.332 170.501 163.765 171.035 163.765Z" fill="#E373FF"/>
<path d="M159.978 170.157C160.512 170.157 160.944 169.725 160.944 169.191C160.944 168.657 160.512 168.225 159.978 168.225C159.444 168.225 159.012 168.657 159.012 169.191C159.012 169.725 159.444 170.157 159.978 170.157Z" fill="#E373FF"/>
<path d="M204.203 119.079C204.736 119.079 205.169 118.646 205.169 118.113C205.169 117.579 204.736 117.146 204.203 117.146C203.669 117.146 203.236 117.579 203.236 118.113C203.236 118.646 203.669 119.079 204.203 119.079Z" fill="#E373FF"/>
<path d="M193.146 125.472C193.68 125.472 194.112 125.039 194.112 124.505C194.112 123.972 193.68 123.539 193.146 123.539C192.612 123.539 192.18 123.972 192.18 124.505C192.18 125.039 192.612 125.472 193.146 125.472Z" fill="#7D78FF"/>
<path d="M215.259 125.472C215.793 125.472 216.226 125.039 216.226 124.505C216.226 123.972 215.793 123.539 215.259 123.539C214.726 123.539 214.293 123.972 214.293 124.505C214.293 125.039 214.726 125.472 215.259 125.472Z" fill="#E373FF"/>
<path d="M215.259 138.235C215.793 138.235 216.226 137.803 216.226 137.269C216.226 136.735 215.793 136.303 215.259 136.303C214.726 136.303 214.293 136.735 214.293 137.269C214.293 137.803 214.726 138.235 215.259 138.235Z" fill="#E373FF"/>
<path d="M226.314 131.854C226.848 131.854 227.28 131.422 227.28 130.888C227.28 130.354 226.848 129.922 226.314 129.922C225.78 129.922 225.348 130.354 225.348 130.888C225.348 131.422 225.78 131.854 226.314 131.854Z" fill="#E373FF"/>
<path d="M204.203 106.313C204.736 106.313 205.169 105.881 205.169 105.347C205.169 104.814 204.736 104.381 204.203 104.381C203.669 104.381 203.236 104.814 203.236 105.347C203.236 105.881 203.669 106.313 204.203 106.313Z" fill="#E373FF"/>
<path d="M215.259 112.696C215.793 112.696 216.226 112.264 216.226 111.73C216.226 111.196 215.793 110.764 215.259 110.764C214.726 110.764 214.293 111.196 214.293 111.73C214.293 112.264 214.726 112.696 215.259 112.696Z" fill="#E373FF"/>
<path d="M226.314 119.079C226.848 119.079 227.28 118.646 227.28 118.113C227.28 117.579 226.848 117.146 226.314 117.146C225.78 117.146 225.348 117.579 225.348 118.113C225.348 118.646 225.78 119.079 226.314 119.079Z" fill="#E373FF"/>
<path d="M237.382 125.472C237.916 125.472 238.349 125.039 238.349 124.505C238.349 123.972 237.916 123.539 237.382 123.539C236.849 123.539 236.416 123.972 236.416 124.505C236.416 125.039 236.849 125.472 237.382 125.472Z" fill="#7D78FF"/>
<path d="M148.921 138.235C149.455 138.235 149.888 137.803 149.888 137.269C149.888 136.735 149.455 136.303 148.921 136.303C148.388 136.303 147.955 136.735 147.955 137.269C147.955 137.803 148.388 138.235 148.921 138.235Z" fill="#9B66FF"/>
<path d="M126.808 138.235C127.342 138.235 127.774 137.803 127.774 137.269C127.774 136.735 127.342 136.303 126.808 136.303C126.274 136.303 125.842 136.735 125.842 137.269C125.842 137.803 126.274 138.235 126.808 138.235Z" fill="#E373FF"/>
<path d="M137.865 144.618C138.398 144.618 138.831 144.186 138.831 143.652C138.831 143.118 138.398 142.686 137.865 142.686C137.331 142.686 136.898 143.118 136.898 143.652C136.898 144.186 137.331 144.618 137.865 144.618Z" fill="#9B66FF"/>
<path d="M148.921 151.001C149.455 151.001 149.888 150.568 149.888 150.035C149.888 149.501 149.455 149.068 148.921 149.068C148.388 149.068 147.955 149.501 147.955 150.035C147.955 150.568 148.388 151.001 148.921 151.001Z" fill="#E373FF"/>
<path d="M126.808 151.001C127.342 151.001 127.774 150.568 127.774 150.035C127.774 149.501 127.342 149.068 126.808 149.068C126.274 149.068 125.842 149.501 125.842 150.035C125.842 150.568 126.274 151.001 126.808 151.001Z" fill="#E373FF"/>
<path d="M137.865 157.382C138.398 157.382 138.831 156.949 138.831 156.416C138.831 155.882 138.398 155.449 137.865 155.449C137.331 155.449 136.898 155.882 136.898 156.416C136.898 156.949 137.331 157.382 137.865 157.382Z" fill="#E373FF"/>
<path d="M115.753 144.618C116.287 144.618 116.72 144.186 116.72 143.652C116.72 143.118 116.287 142.686 115.753 142.686C115.22 142.686 114.787 143.118 114.787 143.652C114.787 144.186 115.22 144.618 115.753 144.618Z" fill="#E373FF"/>
<path d="M148.921 163.765C149.455 163.765 149.888 163.332 149.888 162.798C149.888 162.265 149.455 161.832 148.921 161.832C148.388 161.832 147.955 162.265 147.955 162.798C147.955 163.332 148.388 163.765 148.921 163.765Z" fill="#E373FF"/>
<path d="M126.808 125.472C127.342 125.472 127.774 125.039 127.774 124.505C127.774 123.972 127.342 123.539 126.808 123.539C126.274 123.539 125.842 123.972 125.842 124.505C125.842 125.039 126.274 125.472 126.808 125.472Z" fill="#7D78FF"/>
<path d="M115.753 131.854C116.287 131.854 116.72 131.422 116.72 130.888C116.72 130.354 116.287 129.922 115.753 129.922C115.22 129.922 114.787 130.354 114.787 130.888C114.787 131.422 115.22 131.854 115.753 131.854Z" fill="#E373FF"/>
<path d="M137.865 119.079C138.398 119.079 138.831 118.646 138.831 118.113C138.831 117.579 138.398 117.146 137.865 117.146C137.331 117.146 136.898 117.579 136.898 118.113C136.898 118.646 137.331 119.079 137.865 119.079Z" fill="#E373FF"/>
<path d="M104.697 138.235C105.23 138.235 105.663 137.803 105.663 137.269C105.663 136.735 105.23 136.303 104.697 136.303C104.163 136.303 103.73 136.735 103.73 137.269C103.73 137.803 104.163 138.235 104.697 138.235Z" fill="#E373FF"/>
<path d="M115.753 106.313C116.287 106.313 116.72 105.881 116.72 105.347C116.72 104.814 116.287 104.381 115.753 104.381C115.22 104.381 114.787 104.814 114.787 105.347C114.787 105.881 115.22 106.313 115.753 106.313Z" fill="#E373FF"/>
<path d="M104.697 112.696C105.23 112.696 105.663 112.264 105.663 111.73C105.663 111.196 105.23 110.764 104.697 110.764C104.163 110.764 103.73 111.196 103.73 111.73C103.73 112.264 104.163 112.696 104.697 112.696Z" fill="#E373FF"/>
<path d="M93.6401 119.079C94.1738 119.079 94.6064 118.646 94.6064 118.113C94.6064 117.579 94.1738 117.146 93.6401 117.146C93.1064 117.146 92.6738 117.579 92.6738 118.113C92.6738 118.646 93.1064 119.079 93.6401 119.079Z" fill="#7D78FF"/>
<path d="M115.753 119.079C116.287 119.079 116.72 118.646 116.72 118.113C116.72 117.579 116.287 117.146 115.753 117.146C115.22 117.146 114.787 117.579 114.787 118.113C114.787 118.646 115.22 119.079 115.753 119.079Z" fill="#E373FF"/>
<path d="M104.697 125.472C105.23 125.472 105.663 125.039 105.663 124.505C105.663 123.972 105.23 123.539 104.697 123.539C104.163 123.539 103.73 123.972 103.73 124.505C103.73 125.039 104.163 125.472 104.697 125.472Z" fill="#E373FF"/>
<path d="M93.6401 131.854C94.1738 131.854 94.6064 131.422 94.6064 130.888C94.6064 130.354 94.1738 129.922 93.6401 129.922C93.1064 129.922 92.6738 130.354 92.6738 130.888C92.6738 131.422 93.1064 131.854 93.6401 131.854Z" fill="#E373FF"/>
<path d="M82.5737 125.472C83.1074 125.472 83.54 125.039 83.54 124.505C83.54 123.972 83.1074 123.539 82.5737 123.539C82.04 123.539 81.6074 123.972 81.6074 124.505C81.6074 125.039 82.04 125.472 82.5737 125.472Z" fill="#E373FF"/>
<path d="M226.314 67.0449V82.4045C226.314 97.2359 237.371 95.7415 237.371 109.135V124.494" stroke="#666BFF" stroke-linecap="round" stroke-linejoin="round"/>
<path d="M171.033 73.4277V88.7873C171.033 103.619 182.089 102.124 182.089 115.518V130.877" stroke="#666BFF" stroke-linecap="round" stroke-linejoin="round"/>
<path d="M104.697 60.6621V76.0217C104.697 90.8531 93.6406 89.3587 93.6406 102.752V118.112" stroke="#666BFF" stroke-linecap="round" stroke-linejoin="round"/>
<path d="M193.146 124.505V60.6621" stroke="#666BFF" stroke-linecap="round" stroke-linejoin="round"/>
<path d="M126.809 124.505V60.6621" stroke="#666BFF" stroke-linecap="round" stroke-linejoin="round"/>
<path d="M137.865 92.5849V28.7422" stroke="#666BFF" stroke-linecap="round" stroke-linejoin="round"/>
<path d="M182.09 67.0449V82.4045C182.09 97.2359 204.202 114.888 204.202 128.292V143.652" stroke="#9B66FF" stroke-linecap="round" stroke-linejoin="round"/>
<path d="M159.978 79.8086V95.1681C159.978 110 137.865 114.887 137.865 128.281V143.64" stroke="#9B66FF" stroke-linecap="round" stroke-linejoin="round"/>
<path d="M148.922 137.271V73.4277" stroke="#9B66FF" stroke-linecap="round" stroke-linejoin="round"/>
<path d="M159.978 0.617188L55.9785 60.6622L159.978 120.707L263.978 60.6622L159.978 0.617188Z" fill="url(#paint1_linear_1287_8536)"/>
<path d="M263.978 60.6622L159.978 0.617188L55.9785 60.6622" stroke="url(#paint2_linear_1287_8536)" stroke-linecap="round" stroke-linejoin="round"/>
<path d="M159.978 55.247C160.512 55.247 160.944 54.8145 160.944 54.2807C160.944 53.7472 160.512 53.3145 159.978 53.3145C159.444 53.3145 159.012 53.7472 159.012 54.2807C159.012 54.8145 159.444 55.247 159.978 55.247Z" fill="#E373FF"/>
<path d="M171.035 61.6298C171.568 61.6298 172.001 61.1971 172.001 60.6636C172.001 60.1298 171.568 59.6973 171.035 59.6973C170.501 59.6973 170.068 60.1298 170.068 60.6636C170.068 61.1971 170.501 61.6298 171.035 61.6298Z" fill="#E373FF"/>
<path d="M159.978 68.0107C160.512 68.0107 160.944 67.578 160.944 67.0444C160.944 66.5107 160.512 66.0781 159.978 66.0781C159.444 66.0781 159.012 66.5107 159.012 67.0444C159.012 67.578 159.444 68.0107 159.978 68.0107Z" fill="#E373FF"/>
<path d="M182.089 68.0107C182.623 68.0107 183.056 67.578 183.056 67.0444C183.056 66.5107 182.623 66.0781 182.089 66.0781C181.556 66.0781 181.123 66.5107 181.123 67.0444C181.123 67.578 181.556 68.0107 182.089 68.0107Z" fill="#E373FF"/>
<path d="M171.035 74.3935C171.568 74.3935 172.001 73.9608 172.001 73.4272C172.001 72.8935 171.568 72.4609 171.035 72.4609C170.501 72.4609 170.068 72.8935 170.068 73.4272C170.068 73.9608 170.501 74.3935 171.035 74.3935Z" fill="#E373FF"/>
<path d="M159.978 80.7744C160.512 80.7744 160.944 80.3417 160.944 79.8081C160.944 79.2744 160.512 78.8418 159.978 78.8418C159.444 78.8418 159.012 79.2744 159.012 79.8081C159.012 80.3417 159.444 80.7744 159.978 80.7744Z" fill="#E373FF"/>
<path d="M204.203 80.7744C204.736 80.7744 205.169 80.3417 205.169 79.8081C205.169 79.2744 204.736 78.8418 204.203 78.8418C203.669 78.8418 203.236 79.2744 203.236 79.8081C203.236 80.3417 203.669 80.7744 204.203 80.7744Z" fill="#E373FF"/>
<path d="M148.921 61.6298C149.455 61.6298 149.888 61.1971 149.888 60.6636C149.888 60.1298 149.455 59.6973 148.921 59.6973C148.388 59.6973 147.955 60.1298 147.955 60.6636C147.955 61.1971 148.388 61.6298 148.921 61.6298Z" fill="#E373FF"/>
<path d="M182.089 42.4716C182.623 42.4716 183.056 42.0391 183.056 41.5054C183.056 40.9718 182.623 40.5391 182.089 40.5391C181.556 40.5391 181.123 40.9718 181.123 41.5054C181.123 42.0391 181.556 42.4716 182.089 42.4716Z" fill="#E373FF"/>
<path d="M193.146 48.8642C193.68 48.8642 194.112 48.4316 194.112 47.8979C194.112 47.3643 193.68 46.9316 193.146 46.9316C192.612 46.9316 192.18 47.3643 192.18 47.8979C192.18 48.4316 192.612 48.8642 193.146 48.8642Z" fill="#E373FF"/>
<path d="M182.089 55.247C182.623 55.247 183.056 54.8145 183.056 54.2807C183.056 53.7472 182.623 53.3145 182.089 53.3145C181.556 53.3145 181.123 53.7472 181.123 54.2807C181.123 54.8145 181.556 55.247 182.089 55.247Z" fill="#E373FF"/>
<path d="M204.203 55.247C204.736 55.247 205.169 54.8145 205.169 54.2807C205.169 53.7472 204.736 53.3145 204.203 53.3145C203.669 53.3145 203.236 53.7472 203.236 54.2807C203.236 54.8145 203.669 55.247 204.203 55.247Z" fill="#E373FF"/>
<path d="M193.146 61.6298C193.68 61.6298 194.112 61.1971 194.112 60.6636C194.112 60.1298 193.68 59.6973 193.146 59.6973C192.612 59.6973 192.18 60.1298 192.18 60.6636C192.18 61.1971 192.612 61.6298 193.146 61.6298Z" fill="#E373FF"/>
<path d="M215.259 61.6298C215.793 61.6298 216.226 61.1971 216.226 60.6636C216.226 60.1298 215.793 59.6973 215.259 59.6973C214.726 59.6973 214.293 60.1298 214.293 60.6636C214.293 61.1971 214.726 61.6298 215.259 61.6298Z" fill="#E373FF"/>
<path d="M204.203 68.0107C204.736 68.0107 205.169 67.578 205.169 67.0444C205.169 66.5107 204.736 66.0781 204.203 66.0781C203.669 66.0781 203.236 66.5107 203.236 67.0444C203.236 67.578 203.669 68.0107 204.203 68.0107Z" fill="#E373FF"/>
<path d="M215.259 74.3935C215.793 74.3935 216.226 73.9608 216.226 73.4272C216.226 72.8935 215.793 72.4609 215.259 72.4609C214.726 72.4609 214.293 72.8935 214.293 73.4272C214.293 73.9608 214.726 74.3935 215.259 74.3935Z" fill="#E373FF"/>
<path d="M226.314 68.0107C226.848 68.0107 227.28 67.578 227.28 67.0444C227.28 66.5107 226.848 66.0781 226.314 66.0781C225.78 66.0781 225.348 66.5107 225.348 67.0444C225.348 67.578 225.78 68.0107 226.314 68.0107Z" fill="#E373FF"/>
<path d="M171.035 48.8642C171.568 48.8642 172.001 48.4316 172.001 47.8979C172.001 47.3643 171.568 46.9316 171.035 46.9316C170.501 46.9316 170.068 47.3643 170.068 47.8979C170.068 48.4316 170.501 48.8642 171.035 48.8642Z" fill="#E373FF"/>
<path d="M204.203 42.4716C204.736 42.4716 205.169 42.0391 205.169 41.5054C205.169 40.9718 204.736 40.5391 204.203 40.5391C203.669 40.5391 203.236 40.9718 203.236 41.5054C203.236 42.0391 203.669 42.4716 204.203 42.4716Z" fill="#E373FF"/>
<path d="M215.259 48.8642C215.793 48.8642 216.226 48.4316 216.226 47.8979C216.226 47.3643 215.793 46.9316 215.259 46.9316C214.726 46.9316 214.293 47.3643 214.293 47.8979C214.293 48.4316 214.726 48.8642 215.259 48.8642Z" fill="#E373FF"/>
<path d="M226.314 55.247C226.848 55.247 227.28 54.8145 227.28 54.2807C227.28 53.7472 226.848 53.3145 226.314 53.3145C225.78 53.3145 225.348 53.7472 225.348 54.2807C225.348 54.8145 225.78 55.247 226.314 55.247Z" fill="#E373FF"/>
<path d="M237.382 61.6298C237.916 61.6298 238.349 61.1971 238.349 60.6636C238.349 60.1298 237.916 59.6973 237.382 59.6973C236.849 59.6973 236.416 60.1298 236.416 60.6636C236.416 61.1971 236.849 61.6298 237.382 61.6298Z" fill="#E373FF"/>
<path d="M193.146 36.0888C193.68 36.0888 194.112 35.6563 194.112 35.1225C194.112 34.5889 193.68 34.1562 193.146 34.1562C192.612 34.1562 192.18 34.5889 192.18 35.1225C192.18 35.6563 192.612 36.0888 193.146 36.0888Z" fill="#E373FF"/>
<path d="M137.865 68.0107C138.398 68.0107 138.831 67.578 138.831 67.0444C138.831 66.5107 138.398 66.0781 137.865 66.0781C137.331 66.0781 136.898 66.5107 136.898 67.0444C136.898 67.578 137.331 68.0107 137.865 68.0107Z" fill="#E373FF"/>
<path d="M148.921 74.3935C149.455 74.3935 149.888 73.9608 149.888 73.4272C149.888 72.8935 149.455 72.4609 148.921 72.4609C148.388 72.4609 147.955 72.8935 147.955 73.4272C147.955 73.9608 148.388 74.3935 148.921 74.3935Z" fill="#E373FF"/>
<path d="M115.753 80.7744C116.287 80.7744 116.72 80.3417 116.72 79.8081C116.72 79.2744 116.287 78.8418 115.753 78.8418C115.22 78.8418 114.787 79.2744 114.787 79.8081C114.787 80.3417 115.22 80.7744 115.753 80.7744Z" fill="#E373FF"/>
<path d="M126.808 61.6298C127.342 61.6298 127.774 61.1971 127.774 60.6636C127.774 60.1298 127.342 59.6973 126.808 59.6973C126.274 59.6973 125.842 60.1298 125.842 60.6636C125.842 61.1971 126.274 61.6298 126.808 61.6298Z" fill="#E373FF"/>
<path d="M115.753 68.0107C116.287 68.0107 116.72 67.578 116.72 67.0444C116.72 66.5107 116.287 66.0781 115.753 66.0781C115.22 66.0781 114.787 66.5107 114.787 67.0444C114.787 67.578 115.22 68.0107 115.753 68.0107Z" fill="#E373FF"/>
<path d="M148.921 48.8642C149.455 48.8642 149.888 48.4316 149.888 47.8979C149.888 47.3643 149.455 46.9316 148.921 46.9316C148.388 46.9316 147.955 47.3643 147.955 47.8979C147.955 48.4316 148.388 48.8642 148.921 48.8642Z" fill="#E373FF"/>
<path d="M137.865 55.247C138.398 55.247 138.831 54.8145 138.831 54.2807C138.831 53.7472 138.398 53.3145 137.865 53.3145C137.331 53.3145 136.898 53.7472 136.898 54.2807C136.898 54.8145 137.331 55.247 137.865 55.247Z" fill="#E373FF"/>
<path d="M159.978 42.4716C160.512 42.4716 160.944 42.0391 160.944 41.5054C160.944 40.9718 160.512 40.5391 159.978 40.5391C159.444 40.5391 159.012 40.9718 159.012 41.5054C159.012 42.0391 159.444 42.4716 159.978 42.4716Z" fill="#E373FF"/>
<path d="M104.697 74.3935C105.23 74.3935 105.663 73.9608 105.663 73.4272C105.663 72.8935 105.23 72.4609 104.697 72.4609C104.163 72.4609 103.73 72.8935 103.73 73.4272C103.73 73.9608 104.163 74.3935 104.697 74.3935Z" fill="#E373FF"/>
<path d="M126.808 36.0888C127.342 36.0888 127.774 35.6563 127.774 35.1225C127.774 34.5889 127.342 34.1562 126.808 34.1562C126.274 34.1562 125.842 34.5889 125.842 35.1225C125.842 35.6563 126.274 36.0888 126.808 36.0888Z" fill="#E373FF"/>
<path d="M115.753 42.4716C116.287 42.4716 116.72 42.0391 116.72 41.5054C116.72 40.9718 116.287 40.5391 115.753 40.5391C115.22 40.5391 114.787 40.9718 114.787 41.5054C114.787 42.0391 115.22 42.4716 115.753 42.4716Z" fill="#E373FF"/>
<path d="M104.697 48.8642C105.23 48.8642 105.663 48.4316 105.663 47.8979C105.663 47.3643 105.23 46.9316 104.697 46.9316C104.163 46.9316 103.73 47.3643 103.73 47.8979C103.73 48.4316 104.163 48.8642 104.697 48.8642Z" fill="#E373FF"/>
<path d="M93.6401 55.247C94.1738 55.247 94.6064 54.8145 94.6064 54.2807C94.6064 53.7472 94.1738 53.3145 93.6401 53.3145C93.1064 53.3145 92.6738 53.7472 92.6738 54.2807C92.6738 54.8145 93.1064 55.247 93.6401 55.247Z" fill="#E373FF"/>
<path d="M126.808 48.8642C127.342 48.8642 127.774 48.4316 127.774 47.8979C127.774 47.3643 127.342 46.9316 126.808 46.9316C126.274 46.9316 125.842 47.3643 125.842 47.8979C125.842 48.4316 126.274 48.8642 126.808 48.8642Z" fill="#E373FF"/>
<path d="M115.753 55.247C116.287 55.247 116.72 54.8145 116.72 54.2807C116.72 53.7472 116.287 53.3145 115.753 53.3145C115.22 53.3145 114.787 53.7472 114.787 54.2807C114.787 54.8145 115.22 55.247 115.753 55.247Z" fill="#E373FF"/>
<path d="M137.865 42.4716C138.398 42.4716 138.831 42.0391 138.831 41.5054C138.831 40.9718 138.398 40.5391 137.865 40.5391C137.331 40.5391 136.898 40.9718 136.898 41.5054C136.898 42.0391 137.331 42.4716 137.865 42.4716Z" fill="#E373FF"/>
<path d="M104.697 61.6298C105.23 61.6298 105.663 61.1971 105.663 60.6636C105.663 60.1298 105.23 59.6973 104.697 59.6973C104.163 59.6973 103.73 60.1298 103.73 60.6636C103.73 61.1971 104.163 61.6298 104.697 61.6298Z" fill="#E373FF"/>
<path d="M93.6401 68.0107C94.1738 68.0107 94.6064 67.578 94.6064 67.0444C94.6064 66.5107 94.1738 66.0781 93.6401 66.0781C93.1064 66.0781 92.6738 66.5107 92.6738 67.0444C92.6738 67.578 93.1064 68.0107 93.6401 68.0107Z" fill="#E373FF"/>
<path d="M171.035 36.0888C171.568 36.0888 172.001 35.6563 172.001 35.1225C172.001 34.5889 171.568 34.1562 171.035 34.1562C170.501 34.1562 170.068 34.5889 170.068 35.1225C170.068 35.6563 170.501 36.0888 171.035 36.0888Z" fill="#E373FF"/>
<path d="M148.921 23.3252C149.455 23.3252 149.888 22.8925 149.888 22.3589C149.888 21.8252 149.455 21.3926 148.921 21.3926C148.388 21.3926 147.955 21.8252 147.955 22.3589C147.955 22.8925 148.388 23.3252 148.921 23.3252Z" fill="#E373FF"/>
<path d="M137.865 29.708C138.398 29.708 138.831 29.2754 138.831 28.7417C138.831 28.2081 138.398 27.7754 137.865 27.7754C137.331 27.7754 136.898 28.2081 136.898 28.7417C136.898 29.2754 137.331 29.708 137.865 29.708Z" fill="#E373FF"/>
<path d="M148.921 36.0888C149.455 36.0888 149.888 35.6563 149.888 35.1225C149.888 34.5889 149.455 34.1562 148.921 34.1562C148.388 34.1562 147.955 34.5889 147.955 35.1225C147.955 35.6563 148.388 36.0888 148.921 36.0888Z" fill="#E373FF"/>
<path d="M159.978 29.708C160.512 29.708 160.944 29.2754 160.944 28.7417C160.944 28.2081 160.512 27.7754 159.978 27.7754C159.444 27.7754 159.012 28.2081 159.012 28.7417C159.012 29.2754 159.444 29.708 159.978 29.708Z" fill="#E373FF"/>
<path d="M182.089 29.708C182.623 29.708 183.056 29.2754 183.056 28.7417C183.056 28.2081 182.623 27.7754 182.089 27.7754C181.556 27.7754 181.123 28.2081 181.123 28.7417C181.123 29.2754 181.556 29.708 182.089 29.708Z" fill="#E373FF"/>
<path d="M159.978 16.9443C160.512 16.9443 160.944 16.5116 160.944 15.978C160.944 15.4443 160.512 15.0117 159.978 15.0117C159.444 15.0117 159.012 15.4443 159.012 15.978C159.012 16.5116 159.444 16.9443 159.978 16.9443Z" fill="#E373FF"/>
<path d="M171.035 23.3252C171.568 23.3252 172.001 22.8925 172.001 22.3589C172.001 21.8252 171.568 21.3926 171.035 21.3926C170.501 21.3926 170.068 21.8252 170.068 22.3589C170.068 22.8925 170.501 23.3252 171.035 23.3252Z" fill="#E373FF"/>
<path d="M82.5737 61.6298C83.1074 61.6298 83.54 61.1971 83.54 60.6636C83.54 60.1298 83.1074 59.6973 82.5737 59.6973C82.04 59.6973 81.6074 60.1298 81.6074 60.6636C81.6074 61.1971 82.04 61.6298 82.5737 61.6298Z" fill="#E373FF"/>
<path d="M159.978 34.5723L114.787 60.6622L159.978 86.752L205.169 60.6622L159.978 34.5723Z" fill="#191919"/>
<path d="M114.787 60.6621L159.978 86.752L205.169 60.6621" stroke="url(#paint3_linear_1287_8536)" stroke-linecap="round" stroke-linejoin="round"/>
<path d="M157.652 69.0563L161.213 73.2698L158.348 74.9215L143 56.0226L145.326 54.6855L178.079 63.5282L175.18 65.2024L167.843 63.1687L157.64 69.0563H157.652ZM148.045 57.6294L155.899 66.9664L164.225 62.1575L148.045 57.6181V57.6294Z" fill="url(#paint4_linear_1287_8536)"/>
<path d="M159.349 46.5957L183.383 60.4721L180.641 62.0564L156.607 48.18L159.349 46.5957Z" fill="url(#paint5_linear_1287_8536)"/>
<path d="M55.9785 60.6621L159.978 120.707L263.978 60.6621" stroke="url(#paint6_linear_1287_8536)" stroke-linecap="round" stroke-linejoin="round"/>
<path d="M55.9785 139.629L159.979 199.674V184.551L55.9785 124.506V139.629Z" fill="#232323"/>
<path d="M57.248 125.236L159.978 184.551L262.518 125.349" stroke="#E373FF" stroke-linecap="round" stroke-linejoin="round"/>
<defs>
<linearGradient id="paint0_linear_1287_8536" x1="56.1641" y1="125.049" x2="165.471" y2="125.049" gradientUnits="userSpaceOnUse">
<stop stop-color="#A877FF"/>
<stop offset="0.133324" stop-color="#A78DFB"/>
<stop offset="0.272698" stop-color="#D688FD"/>
<stop offset="0.498566" stop-color="#6B1F7E"/>
<stop offset="0.960016" stop-color="#191919" stop-opacity="0"/>
</linearGradient>
<linearGradient id="paint1_linear_1287_8536" x1="55.9785" y1="60.6622" x2="263.978" y2="60.6622" gradientUnits="userSpaceOnUse">
<stop stop-color="#E373FF"/>
<stop offset="0.08" stop-color="#E373FF" stop-opacity="0.5625"/>
<stop offset="0.17" stop-color="#E373FF" stop-opacity="0.2809"/>
<stop offset="0.25" stop-color="#E373FF" stop-opacity="0.1156"/>
<stop offset="0.33" stop-color="#E373FF" stop-opacity="0.0361"/>
<stop offset="0.4" stop-color="#E373FF" stop-opacity="0.01"/>
<stop offset="0.46" stop-color="#E373FF" stop-opacity="0.01"/>
<stop offset="0.51" stop-color="#E373FF" stop-opacity="0"/>
<stop offset="0.57" stop-color="#E373FF" stop-opacity="0.0289"/>
<stop offset="0.65" stop-color="#E373FF" stop-opacity="0.1764"/>
<stop offset="0.74" stop-color="#E373FF" stop-opacity="0.3969"/>
<stop offset="0.81" stop-color="#E373FF" stop-opacity="0.6241"/>
<stop offset="0.89" stop-color="#E373FF" stop-opacity="0.8281"/>
<stop offset="0.95" stop-color="#E373FF" stop-opacity="0.9604"/>
<stop offset="1" stop-color="#E373FF"/>
</linearGradient>
<linearGradient id="paint2_linear_1287_8536" x1="160.017" y1="19.6194" x2="160.017" y2="42.8821" gradientUnits="userSpaceOnUse">
<stop stop-color="#A877FF"/>
<stop offset="0.400016" stop-color="#A78DFB"/>
<stop offset="0.650016" stop-color="#D688FD"/>
<stop offset="0.960016" stop-color="#D4C4F5"/>
</linearGradient>
<linearGradient id="paint3_linear_1287_8536" x1="159.995" y1="68.9186" x2="159.995" y2="79.0264" gradientUnits="userSpaceOnUse">
<stop stop-color="#A877FF"/>
<stop offset="0.400016" stop-color="#A78DFB"/>
<stop offset="0.650016" stop-color="#D688FD"/>
<stop offset="0.960016" stop-color="#D4C4F5"/>
</linearGradient>
<linearGradient id="paint4_linear_1287_8536" x1="163.198" y1="55.5598" x2="163.198" y2="66.5339" gradientUnits="userSpaceOnUse">
<stop stop-color="#A877FF"/>
<stop offset="0.400016" stop-color="#A78DFB"/>
<stop offset="0.650016" stop-color="#D688FD"/>
<stop offset="0.960016" stop-color="#D4C4F5"/>
</linearGradient>
<linearGradient id="paint5_linear_1287_8536" x1="163.199" y1="55.5599" x2="163.199" y2="66.5339" gradientUnits="userSpaceOnUse">
<stop stop-color="#A877FF"/>
<stop offset="0.400016" stop-color="#A78DFB"/>
<stop offset="0.650016" stop-color="#D688FD"/>
<stop offset="0.960016" stop-color="#D4C4F5"/>
</linearGradient>
<linearGradient id="paint6_linear_1287_8536" x1="160.017" y1="79.6642" x2="160.017" y2="102.927" gradientUnits="userSpaceOnUse">
<stop stop-color="#A877FF"/>
<stop offset="0.400016" stop-color="#A78DFB"/>
<stop offset="0.650016" stop-color="#D688FD"/>
<stop offset="0.960016" stop-color="#D4C4F5"/>
</linearGradient>
</defs>
</svg>
