<svg width="321" height="200" viewBox="0 0 321 200" fill="none" xmlns="http://www.w3.org/2000/svg">
<mask id="mask0_1287_8718" style="mask-type:alpha" maskUnits="userSpaceOnUse" x="0" y="0" width="321" height="200">
<rect x="0.5" width="320" height="200" rx="6" fill="#232323"/>
</mask>
<g mask="url(#mask0_1287_8718)">
<path d="M163.79 220.386L284.088 150.933L233.873 121.944L163.98 162.301L93.8973 121.838L43.5 150.933L163.79 220.386Z" fill="url(#paint0_linear_1287_8718)"/>
<path d="M277.243 154.888L284.088 150.935L233.873 121.945L227.035 125.899L277.243 154.888Z" fill="#232323"/>
<path d="M284.088 150.935L233.873 121.945" stroke="#E373FF" stroke-width="0.75888" stroke-linecap="round" stroke-linejoin="round"/>
<path d="M50.3451 154.887L100.735 125.792L93.8973 121.838L43.5 150.933L50.3451 154.887Z" fill="#4331E8"/>
<path d="M50.3451 154.887L100.735 125.792L93.8973 121.838L43.5 150.933L50.3451 154.887Z" fill="#232323"/>
<path d="M93.8973 121.838L43.5 150.933" stroke="#E373FF" stroke-width="0.75888" stroke-linecap="round" stroke-linejoin="round"/>
<path d="M163.654 158.363V167.447C163.654 168.403 164.269 169.359 165.521 170.088C168.018 171.545 172.085 171.545 174.605 170.088C175.865 169.359 176.495 168.403 176.502 167.447V148.68" stroke="#E373FF" stroke-width="0.75888" stroke-linecap="round" stroke-linejoin="round"/>
<path d="M219.021 130.52V136.765C219.021 137.722 219.636 138.678 220.888 139.406C223.385 140.863 227.453 140.863 229.972 139.406C231.232 138.678 231.862 137.722 231.869 136.765V123.105" stroke="#E373FF" stroke-width="0.75888" stroke-linecap="round" stroke-linejoin="round"/>
<path d="M140.939 148.998V169.184C140.939 170.14 141.554 171.097 142.806 171.825C145.303 173.282 149.371 173.282 151.89 171.825C153.15 171.097 153.78 170.14 153.787 169.184V156.412" stroke="#E373FF" stroke-width="0.75888" stroke-linecap="round" stroke-linejoin="round"/>
<path d="M93.6016 121.672V138.618C93.6016 139.574 94.2163 140.53 95.4684 141.259C97.9651 142.716 102.033 142.716 104.552 141.259C105.812 140.53 106.442 139.574 106.449 138.618V129.086" stroke="#E373FF" stroke-width="0.75888" stroke-linecap="round" stroke-linejoin="round"/>
<path d="M174.567 174.284C172.048 172.827 167.988 172.827 165.491 174.284C162.994 175.741 163.002 178.109 165.521 179.566C168.041 181.023 172.101 181.023 174.605 179.566C177.102 178.109 177.094 175.741 174.575 174.284H174.567Z" stroke="#E373FF" stroke-width="0.75888" stroke-linecap="round" stroke-linejoin="round"/>
<path d="M176.463 176.926V190.676C176.463 191.625 175.841 192.581 174.596 193.302C172.1 194.759 168.032 194.759 165.512 193.302C164.253 192.574 163.615 191.61 163.615 190.646V176.918" stroke="#E373FF" stroke-width="0.75888" stroke-linecap="round" stroke-linejoin="round"/>
<path d="M140.939 206.43V188.293" stroke="#E373FF" stroke-width="0.75888" stroke-linecap="round" stroke-linejoin="round"/>
<path d="M229.964 145.144C227.444 143.687 223.384 143.687 220.887 145.144C218.391 146.601 218.398 148.968 220.918 150.425C223.437 151.882 227.497 151.882 230.002 150.425C232.498 148.968 232.491 146.601 229.971 145.144H229.964Z" stroke="#E373FF" stroke-width="0.75888" stroke-linecap="round" stroke-linejoin="round"/>
<path d="M231.862 147.785V156.224C231.862 157.172 231.239 158.128 229.995 158.849C227.498 160.306 223.43 160.306 220.911 158.849C219.651 158.121 219.014 157.157 219.014 156.193V147.777" stroke="#E373FF" stroke-width="0.75888" stroke-linecap="round" stroke-linejoin="round"/>
<path d="M163.979 13.2871L43.8711 82.6336L163.979 151.98L284.087 82.6336L163.979 13.2871Z" fill="url(#paint1_linear_1287_8718)"/>
<path d="M115.16 79.1152C115.454 79.1152 115.691 78.8773 115.691 78.5839C115.691 78.2906 115.454 78.0527 115.16 78.0527C114.867 78.0527 114.629 78.2906 114.629 78.5839C114.629 78.8773 114.867 79.1152 115.16 79.1152Z" fill="#E373FF"/>
<path d="M121.262 82.6347C121.555 82.6347 121.793 82.3969 121.793 82.1035C121.793 81.8101 121.555 81.5723 121.262 81.5723C120.968 81.5723 120.73 81.8101 120.73 82.1035C120.73 82.3969 120.968 82.6347 121.262 82.6347Z" fill="#E373FF"/>
<path d="M115.16 86.1562C115.454 86.1562 115.691 85.9183 115.691 85.625C115.691 85.3316 115.454 85.0938 115.16 85.0938C114.867 85.0938 114.629 85.3316 114.629 85.625C114.629 85.9183 114.867 86.1562 115.16 86.1562Z" fill="#E373FF"/>
<path d="M127.363 86.1562C127.657 86.1562 127.894 85.9183 127.894 85.625C127.894 85.3316 127.657 85.0938 127.363 85.0938C127.07 85.0938 126.832 85.3316 126.832 85.625C126.832 85.9183 127.07 86.1562 127.363 86.1562Z" fill="#E373FF"/>
<path d="M121.262 89.6855C121.555 89.6855 121.793 89.4476 121.793 89.1543C121.793 88.8609 121.555 88.623 121.262 88.623C120.968 88.623 120.73 88.8609 120.73 89.1543C120.73 89.4476 120.968 89.6855 121.262 89.6855Z" fill="#E373FF"/>
<path d="M115.16 93.207C115.454 93.207 115.691 92.9691 115.691 92.6758C115.691 92.3824 115.454 92.1445 115.16 92.1445C114.867 92.1445 114.629 92.3824 114.629 92.6758C114.629 92.9691 114.867 93.207 115.16 93.207Z" fill="#E373FF"/>
<path d="M133.465 89.6855C133.758 89.6855 133.996 89.4476 133.996 89.1543C133.996 88.8609 133.758 88.623 133.465 88.623C133.171 88.623 132.934 88.8609 132.934 89.1543C132.934 89.4476 133.171 89.6855 133.465 89.6855Z" fill="#E373FF"/>
<path d="M127.363 93.207C127.657 93.207 127.894 92.9691 127.894 92.6758C127.894 92.3824 127.657 92.1445 127.363 92.1445C127.07 92.1445 126.832 92.3824 126.832 92.6758C126.832 92.9691 127.07 93.207 127.363 93.207Z" fill="#E373FF"/>
<path d="M121.262 96.7285C121.555 96.7285 121.793 96.4906 121.793 96.1972C121.793 95.9039 121.555 95.666 121.262 95.666C120.968 95.666 120.73 95.9039 120.73 96.1972C120.73 96.4906 120.968 96.7285 121.262 96.7285Z" fill="#E373FF"/>
<path d="M115.16 100.256C115.454 100.256 115.691 100.018 115.691 99.7246C115.691 99.4312 115.454 99.1934 115.16 99.1934C114.867 99.1934 114.629 99.4312 114.629 99.7246C114.629 100.018 114.867 100.256 115.16 100.256Z" fill="#E373FF"/>
<path d="M133.465 96.7285C133.758 96.7285 133.996 96.4906 133.996 96.1972C133.996 95.9039 133.758 95.666 133.465 95.666C133.171 95.666 132.934 95.9039 132.934 96.1972C132.934 96.4906 133.171 96.7285 133.465 96.7285Z" fill="#E373FF"/>
<path d="M127.363 100.256C127.657 100.256 127.894 100.018 127.894 99.7246C127.894 99.4312 127.657 99.1934 127.363 99.1934C127.07 99.1934 126.832 99.4312 126.832 99.7246C126.832 100.018 127.07 100.256 127.363 100.256Z" fill="#E373FF"/>
<path d="M139.566 93.207C139.86 93.207 140.098 92.9691 140.098 92.6758C140.098 92.3824 139.86 92.1445 139.566 92.1445C139.273 92.1445 139.035 92.3824 139.035 92.6758C139.035 92.9691 139.273 93.207 139.566 93.207Z" fill="#E373FF"/>
<path d="M121.262 103.777C121.555 103.777 121.793 103.539 121.793 103.246C121.793 102.953 121.555 102.715 121.262 102.715C120.968 102.715 120.73 102.953 120.73 103.246C120.73 103.539 120.968 103.777 121.262 103.777Z" fill="#E373FF"/>
<path d="M115.16 107.299C115.454 107.299 115.691 107.061 115.691 106.768C115.691 106.474 115.454 106.236 115.16 106.236C114.867 106.236 114.629 106.474 114.629 106.768C114.629 107.061 114.867 107.299 115.16 107.299Z" fill="#E373FF"/>
<path d="M109.051 82.6347C109.344 82.6347 109.582 82.3969 109.582 82.1035C109.582 81.8101 109.344 81.5723 109.051 81.5723C108.757 81.5723 108.52 81.8101 108.52 82.1035C108.52 82.3969 108.757 82.6347 109.051 82.6347Z" fill="#E373FF"/>
<path d="M127.363 72.0644C127.657 72.0644 127.894 71.8266 127.894 71.5332C127.894 71.2398 127.657 71.002 127.363 71.002C127.07 71.002 126.832 71.2398 126.832 71.5332C126.832 71.8266 127.07 72.0644 127.363 72.0644Z" fill="#E373FF"/>
<path d="M133.465 75.5937C133.758 75.5937 133.996 75.3558 133.996 75.0625C133.996 74.7691 133.758 74.5312 133.465 74.5312C133.171 74.5312 132.934 74.7691 132.934 75.0625C132.934 75.3558 133.171 75.5937 133.465 75.5937Z" fill="#E373FF"/>
<path d="M127.363 79.1152C127.657 79.1152 127.894 78.8773 127.894 78.5839C127.894 78.2906 127.657 78.0527 127.363 78.0527C127.07 78.0527 126.832 78.2906 126.832 78.5839C126.832 78.8773 127.07 79.1152 127.363 79.1152Z" fill="#E373FF"/>
<path d="M139.566 79.1152C139.86 79.1152 140.098 78.8773 140.098 78.5839C140.098 78.2906 139.86 78.0527 139.566 78.0527C139.273 78.0527 139.035 78.2906 139.035 78.5839C139.035 78.8773 139.273 79.1152 139.566 79.1152Z" fill="#E373FF"/>
<path d="M133.465 82.6347C133.758 82.6347 133.996 82.3969 133.996 82.1035C133.996 81.8101 133.758 81.5723 133.465 81.5723C133.171 81.5723 132.934 81.8101 132.934 82.1035C132.934 82.3969 133.171 82.6347 133.465 82.6347Z" fill="#E373FF"/>
<path d="M145.668 82.6347C145.961 82.6347 146.199 82.3969 146.199 82.1035C146.199 81.8101 145.961 81.5723 145.668 81.5723C145.375 81.5723 145.137 81.8101 145.137 82.1035C145.137 82.3969 145.375 82.6347 145.668 82.6347Z" fill="#E373FF"/>
<path d="M139.566 86.1562C139.86 86.1562 140.098 85.9183 140.098 85.625C140.098 85.3316 139.86 85.0938 139.566 85.0938C139.273 85.0938 139.035 85.3316 139.035 85.625C139.035 85.9183 139.273 86.1562 139.566 86.1562Z" fill="#E373FF"/>
<path d="M145.668 89.6855C145.961 89.6855 146.199 89.4476 146.199 89.1543C146.199 88.8609 145.961 88.623 145.668 88.623C145.375 88.623 145.137 88.8609 145.137 89.1543C145.137 89.4476 145.375 89.6855 145.668 89.6855Z" fill="#E373FF"/>
<path d="M151.769 86.1562C152.063 86.1562 152.301 85.9183 152.301 85.625C152.301 85.3316 152.063 85.0938 151.769 85.0938C151.476 85.0938 151.238 85.3316 151.238 85.625C151.238 85.9183 151.476 86.1562 151.769 86.1562Z" fill="#E373FF"/>
<path d="M121.262 75.5937C121.555 75.5937 121.793 75.3558 121.793 75.0625C121.793 74.7691 121.555 74.5312 121.262 74.5312C120.968 74.5312 120.73 74.7691 120.73 75.0625C120.73 75.3558 120.968 75.5937 121.262 75.5937Z" fill="#E373FF"/>
<path d="M139.566 72.0644C139.86 72.0644 140.098 71.8266 140.098 71.5332C140.098 71.2398 139.86 71.002 139.566 71.002C139.273 71.002 139.035 71.2398 139.035 71.5332C139.035 71.8266 139.273 72.0644 139.566 72.0644Z" fill="#E373FF"/>
<path d="M145.668 75.5937C145.961 75.5937 146.199 75.3558 146.199 75.0625C146.199 74.7691 145.961 74.5312 145.668 74.5312C145.375 74.5312 145.137 74.7691 145.137 75.0625C145.137 75.3558 145.375 75.5937 145.668 75.5937Z" fill="#E373FF"/>
<path d="M151.769 79.1152C152.063 79.1152 152.301 78.8773 152.301 78.5839C152.301 78.2906 152.063 78.0527 151.769 78.0527C151.476 78.0527 151.238 78.2906 151.238 78.5839C151.238 78.8773 151.476 79.1152 151.769 79.1152Z" fill="#E373FF"/>
<path d="M157.879 82.6347C158.172 82.6347 158.41 82.3969 158.41 82.1035C158.41 81.8101 158.172 81.5723 157.879 81.5723C157.585 81.5723 157.348 81.8101 157.348 82.1035C157.348 82.3969 157.585 82.6347 157.879 82.6347Z" fill="#E373FF"/>
<path d="M139.566 100.256C139.86 100.256 140.098 100.018 140.098 99.7246C140.098 99.4312 139.86 99.1934 139.566 99.1934C139.273 99.1934 139.035 99.4312 139.035 99.7246C139.035 100.018 139.273 100.256 139.566 100.256Z" fill="#E373FF"/>
<path d="M133.465 103.777C133.758 103.777 133.996 103.539 133.996 103.246C133.996 102.953 133.758 102.715 133.465 102.715C133.171 102.715 132.934 102.953 132.934 103.246C132.934 103.539 133.171 103.777 133.465 103.777Z" fill="#E373FF"/>
<path d="M145.668 96.7285C145.961 96.7285 146.199 96.4906 146.199 96.1972C146.199 95.9039 145.961 95.666 145.668 95.666C145.375 95.666 145.137 95.9039 145.137 96.1972C145.137 96.4906 145.375 96.7285 145.668 96.7285Z" fill="#E373FF"/>
<path d="M127.363 107.299C127.657 107.299 127.894 107.061 127.894 106.768C127.894 106.474 127.657 106.236 127.363 106.236C127.07 106.236 126.832 106.474 126.832 106.768C126.832 107.061 127.07 107.299 127.363 107.299Z" fill="#E373FF"/>
<path d="M121.262 110.82C121.555 110.82 121.793 110.582 121.793 110.289C121.793 109.996 121.555 109.758 121.262 109.758C120.968 109.758 120.73 109.996 120.73 110.289C120.73 110.582 120.968 110.82 121.262 110.82Z" fill="#E373FF"/>
<path d="M151.769 93.207C152.063 93.207 152.301 92.9691 152.301 92.6758C152.301 92.3824 152.063 92.1445 151.769 92.1445C151.476 92.1445 151.238 92.3824 151.238 92.6758C151.238 92.9691 151.476 93.207 151.769 93.207Z" fill="#E373FF"/>
<path d="M157.879 89.6855C158.172 89.6855 158.41 89.4476 158.41 89.1543C158.41 88.8609 158.172 88.623 157.879 88.623C157.585 88.623 157.348 88.8609 157.348 89.1543C157.348 89.4476 157.585 89.6855 157.879 89.6855Z" fill="#E373FF"/>
<path d="M163.98 86.1562C164.274 86.1562 164.512 85.9183 164.512 85.625C164.512 85.3316 164.274 85.0938 163.98 85.0938C163.687 85.0938 163.449 85.3316 163.449 85.625C163.449 85.9183 163.687 86.1562 163.98 86.1562Z" fill="#E373FF"/>
<path d="M145.668 103.777C145.961 103.777 146.199 103.539 146.199 103.246C146.199 102.953 145.961 102.715 145.668 102.715C145.375 102.715 145.137 102.953 145.137 103.246C145.137 103.539 145.375 103.777 145.668 103.777Z" fill="#E373FF"/>
<path d="M139.566 107.299C139.86 107.299 140.098 107.061 140.098 106.768C140.098 106.474 139.86 106.236 139.566 106.236C139.273 106.236 139.035 106.474 139.035 106.768C139.035 107.061 139.273 107.299 139.566 107.299Z" fill="#E373FF"/>
<path d="M151.769 100.256C152.063 100.256 152.301 100.018 152.301 99.7246C152.301 99.4312 152.063 99.1934 151.769 99.1934C151.476 99.1934 151.238 99.4312 151.238 99.7246C151.238 100.018 151.476 100.256 151.769 100.256Z" fill="#E373FF"/>
<path d="M133.465 110.82C133.758 110.82 133.996 110.582 133.996 110.289C133.996 109.996 133.758 109.758 133.465 109.758C133.171 109.758 132.934 109.996 132.934 110.289C132.934 110.582 133.171 110.82 133.465 110.82Z" fill="#E373FF"/>
<path d="M127.363 114.35C127.657 114.35 127.894 114.112 127.894 113.818C127.894 113.525 127.657 113.287 127.363 113.287C127.07 113.287 126.832 113.525 126.832 113.818C126.832 114.112 127.07 114.35 127.363 114.35Z" fill="#E373FF"/>
<path d="M157.879 96.7285C158.172 96.7285 158.41 96.4906 158.41 96.1972C158.41 95.9039 158.172 95.666 157.879 95.666C157.585 95.666 157.348 95.9039 157.348 96.1972C157.348 96.4906 157.585 96.7285 157.879 96.7285Z" fill="#E373FF"/>
<path d="M163.98 93.207C164.274 93.207 164.512 92.9691 164.512 92.6758C164.512 92.3824 164.274 92.1445 163.98 92.1445C163.687 92.1445 163.449 92.3824 163.449 92.6758C163.449 92.9691 163.687 93.207 163.98 93.207Z" fill="#E373FF"/>
<path d="M170.08 89.6855C170.373 89.6855 170.611 89.4476 170.611 89.1543C170.611 88.8609 170.373 88.623 170.08 88.623C169.787 88.623 169.549 88.8609 169.549 89.1543C169.549 89.4476 169.787 89.6855 170.08 89.6855Z" fill="#E373FF"/>
<path d="M151.769 107.299C152.063 107.299 152.301 107.061 152.301 106.768C152.301 106.474 152.063 106.236 151.769 106.236C151.476 106.236 151.238 106.474 151.238 106.768C151.238 107.061 151.476 107.299 151.769 107.299Z" fill="#E373FF"/>
<path d="M145.668 110.82C145.961 110.82 146.199 110.582 146.199 110.289C146.199 109.996 145.961 109.758 145.668 109.758C145.375 109.758 145.137 109.996 145.137 110.289C145.137 110.582 145.375 110.82 145.668 110.82Z" fill="#E373FF"/>
<path d="M157.879 103.777C158.172 103.777 158.41 103.539 158.41 103.246C158.41 102.953 158.172 102.715 157.879 102.715C157.585 102.715 157.348 102.953 157.348 103.246C157.348 103.539 157.585 103.777 157.879 103.777Z" fill="#E373FF"/>
<path d="M139.566 114.35C139.86 114.35 140.098 114.112 140.098 113.818C140.098 113.525 139.86 113.287 139.566 113.287C139.273 113.287 139.035 113.525 139.035 113.818C139.035 114.112 139.273 114.35 139.566 114.35Z" fill="#E373FF"/>
<path d="M133.465 117.871C133.758 117.871 133.996 117.633 133.996 117.34C133.996 117.046 133.758 116.809 133.465 116.809C133.171 116.809 132.934 117.046 132.934 117.34C132.934 117.633 133.171 117.871 133.465 117.871Z" fill="#E373FF"/>
<path d="M163.98 100.256C164.274 100.256 164.512 100.018 164.512 99.7246C164.512 99.4312 164.274 99.1934 163.98 99.1934C163.687 99.1934 163.449 99.4312 163.449 99.7246C163.449 100.018 163.687 100.256 163.98 100.256Z" fill="#E373FF"/>
<path d="M170.08 96.7285C170.373 96.7285 170.611 96.4906 170.611 96.1972C170.611 95.9039 170.373 95.666 170.08 95.666C169.787 95.666 169.549 95.9039 169.549 96.1972C169.549 96.4906 169.787 96.7285 170.08 96.7285Z" fill="#E373FF"/>
<path d="M176.182 93.207C176.475 93.207 176.713 92.9691 176.713 92.6758C176.713 92.3824 176.475 92.1445 176.182 92.1445C175.888 92.1445 175.65 92.3824 175.65 92.6758C175.65 92.9691 175.888 93.207 176.182 93.207Z" fill="#E373FF"/>
<path d="M157.879 110.82C158.172 110.82 158.41 110.582 158.41 110.289C158.41 109.996 158.172 109.758 157.879 109.758C157.585 109.758 157.348 109.996 157.348 110.289C157.348 110.582 157.585 110.82 157.879 110.82Z" fill="#E373FF"/>
<path d="M151.769 114.35C152.063 114.35 152.301 114.112 152.301 113.818C152.301 113.525 152.063 113.287 151.769 113.287C151.476 113.287 151.238 113.525 151.238 113.818C151.238 114.112 151.476 114.35 151.769 114.35Z" fill="#E373FF"/>
<path d="M163.98 107.299C164.274 107.299 164.512 107.061 164.512 106.768C164.512 106.474 164.274 106.236 163.98 106.236C163.687 106.236 163.449 106.474 163.449 106.768C163.449 107.061 163.687 107.299 163.98 107.299Z" fill="#E373FF"/>
<path d="M145.668 117.871C145.961 117.871 146.199 117.633 146.199 117.34C146.199 117.046 145.961 116.809 145.668 116.809C145.375 116.809 145.137 117.046 145.137 117.34C145.137 117.633 145.375 117.871 145.668 117.871Z" fill="#E373FF"/>
<path d="M139.566 121.391C139.86 121.391 140.098 121.153 140.098 120.859C140.098 120.566 139.86 120.328 139.566 120.328C139.273 120.328 139.035 120.566 139.035 120.859C139.035 121.153 139.273 121.391 139.566 121.391Z" fill="#E373FF"/>
<path d="M170.08 103.777C170.373 103.777 170.611 103.539 170.611 103.246C170.611 102.953 170.373 102.715 170.08 102.715C169.787 102.715 169.549 102.953 169.549 103.246C169.549 103.539 169.787 103.777 170.08 103.777Z" fill="#E373FF"/>
<path d="M176.182 100.256C176.475 100.256 176.713 100.018 176.713 99.7246C176.713 99.4312 176.475 99.1934 176.182 99.1934C175.888 99.1934 175.65 99.4312 175.65 99.7246C175.65 100.018 175.888 100.256 176.182 100.256Z" fill="#E373FF"/>
<path d="M182.283 96.7285C182.577 96.7285 182.814 96.4906 182.814 96.1972C182.814 95.9039 182.577 95.666 182.283 95.666C181.99 95.666 181.752 95.9039 181.752 96.1972C181.752 96.4906 181.99 96.7285 182.283 96.7285Z" fill="#E373FF"/>
<path d="M163.98 114.35C164.274 114.35 164.512 114.112 164.512 113.818C164.512 113.525 164.274 113.287 163.98 113.287C163.687 113.287 163.449 113.525 163.449 113.818C163.449 114.112 163.687 114.35 163.98 114.35Z" fill="#E373FF"/>
<path d="M157.879 117.871C158.172 117.871 158.41 117.633 158.41 117.34C158.41 117.046 158.172 116.809 157.879 116.809C157.585 116.809 157.348 117.046 157.348 117.34C157.348 117.633 157.585 117.871 157.879 117.871Z" fill="#E373FF"/>
<path d="M170.08 110.82C170.373 110.82 170.611 110.582 170.611 110.289C170.611 109.996 170.373 109.758 170.08 109.758C169.787 109.758 169.549 109.996 169.549 110.289C169.549 110.582 169.787 110.82 170.08 110.82Z" fill="#E373FF"/>
<path d="M151.769 121.391C152.063 121.391 152.301 121.153 152.301 120.859C152.301 120.566 152.063 120.328 151.769 120.328C151.476 120.328 151.238 120.566 151.238 120.859C151.238 121.153 151.476 121.391 151.769 121.391Z" fill="#E373FF"/>
<path d="M145.668 124.912C145.961 124.912 146.199 124.674 146.199 124.381C146.199 124.087 145.961 123.85 145.668 123.85C145.375 123.85 145.137 124.087 145.137 124.381C145.137 124.674 145.375 124.912 145.668 124.912Z" fill="#E373FF"/>
<path d="M176.182 107.299C176.475 107.299 176.713 107.061 176.713 106.768C176.713 106.474 176.475 106.236 176.182 106.236C175.888 106.236 175.65 106.474 175.65 106.768C175.65 107.061 175.888 107.299 176.182 107.299Z" fill="#E373FF"/>
<path d="M182.283 103.777C182.577 103.777 182.814 103.539 182.814 103.246C182.814 102.953 182.577 102.715 182.283 102.715C181.99 102.715 181.752 102.953 181.752 103.246C181.752 103.539 181.99 103.777 182.283 103.777Z" fill="#E373FF"/>
<path d="M188.385 100.256C188.678 100.256 188.916 100.018 188.916 99.7246C188.916 99.4312 188.678 99.1934 188.385 99.1934C188.091 99.1934 187.854 99.4312 187.854 99.7246C187.854 100.018 188.091 100.256 188.385 100.256Z" fill="#E373FF"/>
<path d="M170.08 117.871C170.373 117.871 170.611 117.633 170.611 117.34C170.611 117.046 170.373 116.809 170.08 116.809C169.787 116.809 169.549 117.046 169.549 117.34C169.549 117.633 169.787 117.871 170.08 117.871Z" fill="#E373FF"/>
<path d="M163.98 121.391C164.274 121.391 164.512 121.153 164.512 120.859C164.512 120.566 164.274 120.328 163.98 120.328C163.687 120.328 163.449 120.566 163.449 120.859C163.449 121.153 163.687 121.391 163.98 121.391Z" fill="#E373FF"/>
<path d="M176.182 114.35C176.475 114.35 176.713 114.112 176.713 113.818C176.713 113.525 176.475 113.287 176.182 113.287C175.888 113.287 175.65 113.525 175.65 113.818C175.65 114.112 175.888 114.35 176.182 114.35Z" fill="#E373FF"/>
<path d="M157.879 124.912C158.172 124.912 158.41 124.674 158.41 124.381C158.41 124.087 158.172 123.85 157.879 123.85C157.585 123.85 157.348 124.087 157.348 124.381C157.348 124.674 157.585 124.912 157.879 124.912Z" fill="#E373FF"/>
<path d="M151.769 128.441C152.063 128.441 152.301 128.204 152.301 127.91C152.301 127.617 152.063 127.379 151.769 127.379C151.476 127.379 151.238 127.617 151.238 127.91C151.238 128.204 151.476 128.441 151.769 128.441Z" fill="#E373FF"/>
<path d="M182.283 110.82C182.577 110.82 182.814 110.582 182.814 110.289C182.814 109.996 182.577 109.758 182.283 109.758C181.99 109.758 181.752 109.996 181.752 110.289C181.752 110.582 181.99 110.82 182.283 110.82Z" fill="#E373FF"/>
<path d="M188.385 107.299C188.678 107.299 188.916 107.061 188.916 106.768C188.916 106.474 188.678 106.236 188.385 106.236C188.091 106.236 187.854 106.474 187.854 106.768C187.854 107.061 188.091 107.299 188.385 107.299Z" fill="#E373FF"/>
<path d="M194.486 103.777C194.78 103.777 195.018 103.539 195.018 103.246C195.018 102.953 194.78 102.715 194.486 102.715C194.193 102.715 193.955 102.953 193.955 103.246C193.955 103.539 194.193 103.777 194.486 103.777Z" fill="#E373FF"/>
<path d="M176.182 121.391C176.475 121.391 176.713 121.153 176.713 120.859C176.713 120.566 176.475 120.328 176.182 120.328C175.888 120.328 175.65 120.566 175.65 120.859C175.65 121.153 175.888 121.391 176.182 121.391Z" fill="#E373FF"/>
<path d="M170.08 124.912C170.373 124.912 170.611 124.674 170.611 124.381C170.611 124.087 170.373 123.85 170.08 123.85C169.787 123.85 169.549 124.087 169.549 124.381C169.549 124.674 169.787 124.912 170.08 124.912Z" fill="#E373FF"/>
<path d="M182.283 117.871C182.577 117.871 182.814 117.633 182.814 117.34C182.814 117.046 182.577 116.809 182.283 116.809C181.99 116.809 181.752 117.046 181.752 117.34C181.752 117.633 181.99 117.871 182.283 117.871Z" fill="#E373FF"/>
<path d="M163.98 128.441C164.274 128.441 164.512 128.204 164.512 127.91C164.512 127.617 164.274 127.379 163.98 127.379C163.687 127.379 163.449 127.617 163.449 127.91C163.449 128.204 163.687 128.441 163.98 128.441Z" fill="#E373FF"/>
<path d="M157.879 131.963C158.172 131.963 158.41 131.725 158.41 131.432C158.41 131.138 158.172 130.9 157.879 130.9C157.585 130.9 157.348 131.138 157.348 131.432C157.348 131.725 157.585 131.963 157.879 131.963Z" fill="#E373FF"/>
<path d="M188.385 114.35C188.678 114.35 188.916 114.112 188.916 113.818C188.916 113.525 188.678 113.287 188.385 113.287C188.091 113.287 187.854 113.525 187.854 113.818C187.854 114.112 188.091 114.35 188.385 114.35Z" fill="#E373FF"/>
<path d="M194.486 110.82C194.78 110.82 195.018 110.582 195.018 110.289C195.018 109.996 194.78 109.758 194.486 109.758C194.193 109.758 193.955 109.996 193.955 110.289C193.955 110.582 194.193 110.82 194.486 110.82Z" fill="#E373FF"/>
<path d="M200.596 107.299C200.889 107.299 201.127 107.061 201.127 106.768C201.127 106.474 200.889 106.236 200.596 106.236C200.302 106.236 200.064 106.474 200.064 106.768C200.064 107.061 200.302 107.299 200.596 107.299Z" fill="#E373FF"/>
<path d="M182.283 124.912C182.577 124.912 182.814 124.674 182.814 124.381C182.814 124.087 182.577 123.85 182.283 123.85C181.99 123.85 181.752 124.087 181.752 124.381C181.752 124.674 181.99 124.912 182.283 124.912Z" fill="#E373FF"/>
<path d="M176.182 128.441C176.475 128.441 176.713 128.204 176.713 127.91C176.713 127.617 176.475 127.379 176.182 127.379C175.888 127.379 175.65 127.617 175.65 127.91C175.65 128.204 175.888 128.441 176.182 128.441Z" fill="#E373FF"/>
<path d="M188.385 121.391C188.678 121.391 188.916 121.153 188.916 120.859C188.916 120.566 188.678 120.328 188.385 120.328C188.091 120.328 187.854 120.566 187.854 120.859C187.854 121.153 188.091 121.391 188.385 121.391Z" fill="#E373FF"/>
<path d="M170.08 131.963C170.373 131.963 170.611 131.725 170.611 131.432C170.611 131.138 170.373 130.9 170.08 130.9C169.787 130.9 169.549 131.138 169.549 131.432C169.549 131.725 169.787 131.963 170.08 131.963Z" fill="#E373FF"/>
<path d="M163.98 135.484C164.274 135.484 164.512 135.246 164.512 134.953C164.512 134.66 164.274 134.422 163.98 134.422C163.687 134.422 163.449 134.66 163.449 134.953C163.449 135.246 163.687 135.484 163.98 135.484Z" fill="#E373FF"/>
<path d="M194.486 117.871C194.78 117.871 195.018 117.633 195.018 117.34C195.018 117.046 194.78 116.809 194.486 116.809C194.193 116.809 193.955 117.046 193.955 117.34C193.955 117.633 194.193 117.871 194.486 117.871Z" fill="#E373FF"/>
<path d="M200.596 114.35C200.889 114.35 201.127 114.112 201.127 113.818C201.127 113.525 200.889 113.287 200.596 113.287C200.302 113.287 200.064 113.525 200.064 113.818C200.064 114.112 200.302 114.35 200.596 114.35Z" fill="#E373FF"/>
<path d="M206.697 110.82C206.991 110.82 207.228 110.582 207.228 110.289C207.228 109.996 206.991 109.758 206.697 109.758C206.404 109.758 206.166 109.996 206.166 110.289C206.166 110.582 206.404 110.82 206.697 110.82Z" fill="#E373FF"/>
<path d="M212.799 107.299C213.092 107.299 213.33 107.061 213.33 106.768C213.33 106.474 213.092 106.236 212.799 106.236C212.505 106.236 212.268 106.474 212.268 106.768C212.268 107.061 212.505 107.299 212.799 107.299Z" fill="#E373FF"/>
<path d="M133.465 68.5429C133.758 68.5429 133.996 68.3051 133.996 68.0117C133.996 67.7183 133.758 67.4805 133.465 67.4805C133.171 67.4805 132.934 67.7183 132.934 68.0117C132.934 68.3051 133.171 68.5429 133.465 68.5429Z" fill="#E373FF"/>
<path d="M102.951 86.1562C103.245 86.1562 103.482 85.9183 103.482 85.625C103.482 85.3316 103.245 85.0938 102.951 85.0938C102.658 85.0938 102.42 85.3316 102.42 85.625C102.42 85.9183 102.658 86.1562 102.951 86.1562Z" fill="#E373FF"/>
<path d="M109.051 89.6855C109.344 89.6855 109.582 89.4476 109.582 89.1543C109.582 88.8609 109.344 88.623 109.051 88.623C108.757 88.623 108.52 88.8609 108.52 89.1543C108.52 89.4476 108.757 89.6855 109.051 89.6855Z" fill="#E373FF"/>
<path d="M96.8496 89.6855C97.143 89.6855 97.3808 89.4476 97.3808 89.1543C97.3808 88.8609 97.143 88.623 96.8496 88.623C96.5562 88.623 96.3184 88.8609 96.3184 89.1543C96.3184 89.4476 96.5562 89.6855 96.8496 89.6855Z" fill="#E373FF"/>
<path d="M102.951 93.207C103.245 93.207 103.482 92.9691 103.482 92.6758C103.482 92.3824 103.245 92.1445 102.951 92.1445C102.658 92.1445 102.42 92.3824 102.42 92.6758C102.42 92.9691 102.658 93.207 102.951 93.207Z" fill="#E373FF"/>
<path d="M109.051 96.7285C109.344 96.7285 109.582 96.4906 109.582 96.1972C109.582 95.9039 109.344 95.666 109.051 95.666C108.757 95.666 108.52 95.9039 108.52 96.1972C108.52 96.4906 108.757 96.7285 109.051 96.7285Z" fill="#E373FF"/>
<path d="M96.8496 96.7285C97.143 96.7285 97.3808 96.4906 97.3808 96.1972C97.3808 95.9039 97.143 95.666 96.8496 95.666C96.5562 95.666 96.3184 95.9039 96.3184 96.1972C96.3184 96.4906 96.5562 96.7285 96.8496 96.7285Z" fill="#E373FF"/>
<path d="M102.951 100.256C103.245 100.256 103.482 100.018 103.482 99.7246C103.482 99.4312 103.245 99.1934 102.951 99.1934C102.658 99.1934 102.42 99.4312 102.42 99.7246C102.42 100.018 102.658 100.256 102.951 100.256Z" fill="#E373FF"/>
<path d="M90.748 93.207C91.0414 93.207 91.2792 92.9691 91.2792 92.6758C91.2792 92.3824 91.0414 92.1445 90.748 92.1445C90.4546 92.1445 90.2168 92.3824 90.2168 92.6758C90.2168 92.9691 90.4546 93.207 90.748 93.207Z" fill="#E373FF"/>
<path d="M109.051 103.777C109.344 103.777 109.582 103.539 109.582 103.246C109.582 102.953 109.344 102.715 109.051 102.715C108.757 102.715 108.52 102.953 108.52 103.246C108.52 103.539 108.757 103.777 109.051 103.777Z" fill="#E373FF"/>
<path d="M96.8496 82.6347C97.143 82.6347 97.3808 82.3969 97.3808 82.1035C97.3808 81.8101 97.143 81.5723 96.8496 81.5723C96.5562 81.5723 96.3184 81.8101 96.3184 82.1035C96.3184 82.3969 96.5562 82.6347 96.8496 82.6347Z" fill="#E373FF"/>
<path d="M90.748 86.1562C91.0414 86.1562 91.2792 85.9183 91.2792 85.625C91.2792 85.3316 91.0414 85.0938 90.748 85.0938C90.4546 85.0938 90.2168 85.3316 90.2168 85.625C90.2168 85.9183 90.4546 86.1562 90.748 86.1562Z" fill="#E373FF"/>
<path d="M109.051 75.5937C109.344 75.5937 109.582 75.3558 109.582 75.0625C109.582 74.7691 109.344 74.5312 109.051 74.5312C108.757 74.5312 108.52 74.7691 108.52 75.0625C108.52 75.3558 108.757 75.5937 109.051 75.5937Z" fill="#E373FF"/>
<path d="M102.951 79.1152C103.245 79.1152 103.482 78.8773 103.482 78.5839C103.482 78.2906 103.245 78.0527 102.951 78.0527C102.658 78.0527 102.42 78.2906 102.42 78.5839C102.42 78.8773 102.658 79.1152 102.951 79.1152Z" fill="#E373FF"/>
<path d="M115.16 72.0644C115.454 72.0644 115.691 71.8266 115.691 71.5332C115.691 71.2398 115.454 71.002 115.16 71.002C114.867 71.002 114.629 71.2398 114.629 71.5332C114.629 71.8266 114.867 72.0644 115.16 72.0644Z" fill="#E373FF"/>
<path d="M84.6465 89.6855C84.9398 89.6855 85.1777 89.4476 85.1777 89.1543C85.1777 88.8609 84.9398 88.623 84.6465 88.623C84.3531 88.623 84.1152 88.8609 84.1152 89.1543C84.1152 89.4476 84.3531 89.6855 84.6465 89.6855Z" fill="#E373FF"/>
<path d="M96.8496 68.5429C97.143 68.5429 97.3808 68.3051 97.3808 68.0117C97.3808 67.7183 97.143 67.4805 96.8496 67.4805C96.5562 67.4805 96.3184 67.7183 96.3184 68.0117C96.3184 68.3051 96.5562 68.5429 96.8496 68.5429Z" fill="#E373FF"/>
<path d="M90.748 72.0644C91.0414 72.0644 91.2792 71.8266 91.2792 71.5332C91.2792 71.2398 91.0414 71.002 90.748 71.002C90.4546 71.002 90.2168 71.2398 90.2168 71.5332C90.2168 71.8266 90.4546 72.0644 90.748 72.0644Z" fill="#E373FF"/>
<path d="M84.6465 75.5937C84.9398 75.5937 85.1777 75.3558 85.1777 75.0625C85.1777 74.7691 84.9398 74.5312 84.6465 74.5312C84.3531 74.5312 84.1152 74.7691 84.1152 75.0625C84.1152 75.3558 84.3531 75.5937 84.6465 75.5937Z" fill="#E373FF"/>
<path d="M78.5449 79.1152C78.8383 79.1152 79.0761 78.8773 79.0761 78.5839C79.0761 78.2906 78.8383 78.0527 78.5449 78.0527C78.2515 78.0527 78.0137 78.2906 78.0137 78.5839C78.0137 78.8773 78.2515 79.1152 78.5449 79.1152Z" fill="#E373FF"/>
<path d="M96.8496 75.5937C97.143 75.5937 97.3808 75.3558 97.3808 75.0625C97.3808 74.7691 97.143 74.5312 96.8496 74.5312C96.5562 74.5312 96.3184 74.7691 96.3184 75.0625C96.3184 75.3558 96.5562 75.5937 96.8496 75.5937Z" fill="#E373FF"/>
<path d="M90.748 79.1152C91.0414 79.1152 91.2792 78.8773 91.2792 78.5839C91.2792 78.2906 91.0414 78.0527 90.748 78.0527C90.4546 78.0527 90.2168 78.2906 90.2168 78.5839C90.2168 78.8773 90.4546 79.1152 90.748 79.1152Z" fill="#E373FF"/>
<path d="M102.951 72.0644C103.245 72.0644 103.482 71.8266 103.482 71.5332C103.482 71.2398 103.245 71.002 102.951 71.002C102.658 71.002 102.42 71.2398 102.42 71.5332C102.42 71.8266 102.658 72.0644 102.951 72.0644Z" fill="#E373FF"/>
<path d="M84.6465 82.6347C84.9398 82.6347 85.1777 82.3969 85.1777 82.1035C85.1777 81.8101 84.9398 81.5723 84.6465 81.5723C84.3531 81.5723 84.1152 81.8101 84.1152 82.1035C84.1152 82.3969 84.3531 82.6347 84.6465 82.6347Z" fill="#E373FF"/>
<path d="M78.5449 86.1562C78.8383 86.1562 79.0761 85.9183 79.0761 85.625C79.0761 85.3316 78.8383 85.0938 78.5449 85.0938C78.2515 85.0938 78.0137 85.3316 78.0137 85.625C78.0137 85.9183 78.2515 86.1562 78.5449 86.1562Z" fill="#E373FF"/>
<path d="M121.262 68.5429C121.555 68.5429 121.793 68.3051 121.793 68.0117C121.793 67.7183 121.555 67.4805 121.262 67.4805C120.968 67.4805 120.73 67.7183 120.73 68.0117C120.73 68.3051 120.968 68.5429 121.262 68.5429Z" fill="#E373FF"/>
<path d="M109.051 61.4999C109.344 61.4999 109.582 61.2621 109.582 60.9687C109.582 60.6753 109.344 60.4375 109.051 60.4375C108.757 60.4375 108.52 60.6753 108.52 60.9687C108.52 61.2621 108.757 61.4999 109.051 61.4999Z" fill="#E373FF"/>
<path d="M102.951 65.0214C103.245 65.0214 103.482 64.7836 103.482 64.4902C103.482 64.1968 103.245 63.959 102.951 63.959C102.658 63.959 102.42 64.1968 102.42 64.4902C102.42 64.7836 102.658 65.0214 102.951 65.0214Z" fill="#E373FF"/>
<path d="M109.051 68.5429C109.344 68.5429 109.582 68.3051 109.582 68.0117C109.582 67.7183 109.344 67.4805 109.051 67.4805C108.757 67.4805 108.52 67.7183 108.52 68.0117C108.52 68.3051 108.757 68.5429 109.051 68.5429Z" fill="#E373FF"/>
<path d="M115.16 65.0214C115.454 65.0214 115.691 64.7836 115.691 64.4902C115.691 64.1968 115.454 63.959 115.16 63.959C114.867 63.959 114.629 64.1968 114.629 64.4902C114.629 64.7836 114.867 65.0214 115.16 65.0214Z" fill="#E373FF"/>
<path d="M127.363 65.0214C127.657 65.0214 127.894 64.7836 127.894 64.4902C127.894 64.1968 127.657 63.959 127.363 63.959C127.07 63.959 126.832 64.1968 126.832 64.4902C126.832 64.7836 127.07 65.0214 127.363 65.0214Z" fill="#E373FF"/>
<path d="M115.16 57.9726C115.454 57.9726 115.691 57.7348 115.691 57.4414C115.691 57.148 115.454 56.9102 115.16 56.9102C114.867 56.9102 114.629 57.148 114.629 57.4414C114.629 57.7348 114.867 57.9726 115.16 57.9726Z" fill="#E373FF"/>
<path d="M121.262 61.4999C121.555 61.4999 121.793 61.2621 121.793 60.9687C121.793 60.6753 121.555 60.4375 121.262 60.4375C120.968 60.4375 120.73 60.6753 120.73 60.9687C120.73 61.2621 120.968 61.4999 121.262 61.4999Z" fill="#E373FF"/>
<path d="M72.4433 82.6347C72.7367 82.6347 72.9745 82.3969 72.9745 82.1035C72.9745 81.8101 72.7367 81.5723 72.4433 81.5723C72.1499 81.5723 71.9121 81.8101 71.9121 82.1035C71.9121 82.3969 72.1499 82.6347 72.4433 82.6347Z" fill="#E373FF"/>
<path d="M163.98 50.9296C164.274 50.9296 164.512 50.6918 164.512 50.3984C164.512 50.105 164.274 49.8672 163.98 49.8672C163.687 49.8672 163.449 50.105 163.449 50.3984C163.449 50.6918 163.687 50.9296 163.98 50.9296Z" fill="#E373FF"/>
<path d="M170.08 54.4511C170.373 54.4511 170.611 54.2133 170.611 53.9199C170.611 53.6265 170.373 53.3887 170.08 53.3887C169.787 53.3887 169.549 53.6265 169.549 53.9199C169.549 54.2133 169.787 54.4511 170.08 54.4511Z" fill="#E373FF"/>
<path d="M163.98 57.9726C164.274 57.9726 164.512 57.7348 164.512 57.4414C164.512 57.148 164.274 56.9102 163.98 56.9102C163.687 56.9102 163.449 57.148 163.449 57.4414C163.449 57.7348 163.687 57.9726 163.98 57.9726Z" fill="#E373FF"/>
<path d="M176.182 57.9726C176.475 57.9726 176.713 57.7348 176.713 57.4414C176.713 57.148 176.475 56.9102 176.182 56.9102C175.888 56.9102 175.65 57.148 175.65 57.4414C175.65 57.7348 175.888 57.9726 176.182 57.9726Z" fill="#E373FF"/>
<path d="M170.08 61.4999C170.373 61.4999 170.611 61.2621 170.611 60.9687C170.611 60.6753 170.373 60.4375 170.08 60.4375C169.787 60.4375 169.549 60.6753 169.549 60.9687C169.549 61.2621 169.787 61.4999 170.08 61.4999Z" fill="#E373FF"/>
<path d="M163.98 65.0214C164.274 65.0214 164.512 64.7836 164.512 64.4902C164.512 64.1968 164.274 63.959 163.98 63.959C163.687 63.959 163.449 64.1968 163.449 64.4902C163.449 64.7836 163.687 65.0214 163.98 65.0214Z" fill="#E373FF"/>
<path d="M182.283 61.4999C182.577 61.4999 182.814 61.2621 182.814 60.9687C182.814 60.6753 182.577 60.4375 182.283 60.4375C181.99 60.4375 181.752 60.6753 181.752 60.9687C181.752 61.2621 181.99 61.4999 182.283 61.4999Z" fill="#E373FF"/>
<path d="M176.182 65.0214C176.475 65.0214 176.713 64.7836 176.713 64.4902C176.713 64.1968 176.475 63.959 176.182 63.959C175.888 63.959 175.65 64.1968 175.65 64.4902C175.65 64.7836 175.888 65.0214 176.182 65.0214Z" fill="#E373FF"/>
<path d="M170.08 68.5429C170.373 68.5429 170.611 68.3051 170.611 68.0117C170.611 67.7183 170.373 67.4805 170.08 67.4805C169.787 67.4805 169.549 67.7183 169.549 68.0117C169.549 68.3051 169.787 68.5429 170.08 68.5429Z" fill="#E373FF"/>
<path d="M163.98 72.0644C164.274 72.0644 164.512 71.8266 164.512 71.5332C164.512 71.2398 164.274 71.002 163.98 71.002C163.687 71.002 163.449 71.2398 163.449 71.5332C163.449 71.8266 163.687 72.0644 163.98 72.0644Z" fill="#E373FF"/>
<path d="M182.283 68.5429C182.577 68.5429 182.814 68.3051 182.814 68.0117C182.814 67.7183 182.577 67.4805 182.283 67.4805C181.99 67.4805 181.752 67.7183 181.752 68.0117C181.752 68.3051 181.99 68.5429 182.283 68.5429Z" fill="#E373FF"/>
<path d="M176.182 72.0644C176.475 72.0644 176.713 71.8266 176.713 71.5332C176.713 71.2398 176.475 71.002 176.182 71.002C175.888 71.002 175.65 71.2398 175.65 71.5332C175.65 71.8266 175.888 72.0644 176.182 72.0644Z" fill="#E373FF"/>
<path d="M188.385 65.0214C188.678 65.0214 188.916 64.7836 188.916 64.4902C188.916 64.1968 188.678 63.959 188.385 63.959C188.091 63.959 187.854 64.1968 187.854 64.4902C187.854 64.7836 188.091 65.0214 188.385 65.0214Z" fill="#E373FF"/>
<path d="M170.08 75.5937C170.373 75.5937 170.611 75.3558 170.611 75.0625C170.611 74.7691 170.373 74.5312 170.08 74.5312C169.787 74.5312 169.549 74.7691 169.549 75.0625C169.549 75.3558 169.787 75.5937 170.08 75.5937Z" fill="#E373FF"/>
<path d="M163.98 79.1152C164.274 79.1152 164.512 78.8773 164.512 78.5839C164.512 78.2906 164.274 78.0527 163.98 78.0527C163.687 78.0527 163.449 78.2906 163.449 78.5839C163.449 78.8773 163.687 79.1152 163.98 79.1152Z" fill="#E373FF"/>
<path d="M157.879 54.4511C158.172 54.4511 158.41 54.2133 158.41 53.9199C158.41 53.6265 158.172 53.3887 157.879 53.3887C157.585 53.3887 157.348 53.6265 157.348 53.9199C157.348 54.2133 157.585 54.4511 157.879 54.4511Z" fill="#E373FF"/>
<path d="M176.182 43.8788C176.475 43.8788 176.713 43.641 176.713 43.3476C176.713 43.0542 176.475 42.8164 176.182 42.8164C175.888 42.8164 175.65 43.0542 175.65 43.3476C175.65 43.641 175.888 43.8788 176.182 43.8788Z" fill="#E373FF"/>
<path d="M182.283 47.4003C182.577 47.4003 182.814 47.1625 182.814 46.8691C182.814 46.5757 182.577 46.3379 182.283 46.3379C181.99 46.3379 181.752 46.5757 181.752 46.8691C181.752 47.1625 181.99 47.4003 182.283 47.4003Z" fill="#E373FF"/>
<path d="M176.182 50.9296C176.475 50.9296 176.713 50.6918 176.713 50.3984C176.713 50.105 176.475 49.8672 176.182 49.8672C175.888 49.8672 175.65 50.105 175.65 50.3984C175.65 50.6918 175.888 50.9296 176.182 50.9296Z" fill="#E373FF"/>
<path d="M188.385 50.9296C188.678 50.9296 188.916 50.6918 188.916 50.3984C188.916 50.105 188.678 49.8672 188.385 49.8672C188.091 49.8672 187.854 50.105 187.854 50.3984C187.854 50.6918 188.091 50.9296 188.385 50.9296Z" fill="#E373FF"/>
<path d="M182.283 54.4511C182.577 54.4511 182.814 54.2133 182.814 53.9199C182.814 53.6265 182.577 53.3887 182.283 53.3887C181.99 53.3887 181.752 53.6265 181.752 53.9199C181.752 54.2133 181.99 54.4511 182.283 54.4511Z" fill="#E373FF"/>
<path d="M194.486 54.4511C194.78 54.4511 195.018 54.2133 195.018 53.9199C195.018 53.6265 194.78 53.3887 194.486 53.3887C194.193 53.3887 193.955 53.6265 193.955 53.9199C193.955 54.2133 194.193 54.4511 194.486 54.4511Z" fill="#E373FF"/>
<path d="M188.385 57.9726C188.678 57.9726 188.916 57.7348 188.916 57.4414C188.916 57.148 188.678 56.9102 188.385 56.9102C188.091 56.9102 187.854 57.148 187.854 57.4414C187.854 57.7348 188.091 57.9726 188.385 57.9726Z" fill="#E373FF"/>
<path d="M194.486 61.4999C194.78 61.4999 195.018 61.2621 195.018 60.9687C195.018 60.6753 194.78 60.4375 194.486 60.4375C194.193 60.4375 193.955 60.6753 193.955 60.9687C193.955 61.2621 194.193 61.4999 194.486 61.4999Z" fill="#E373FF"/>
<path d="M200.596 57.9726C200.889 57.9726 201.127 57.7348 201.127 57.4414C201.127 57.148 200.889 56.9102 200.596 56.9102C200.302 56.9102 200.064 57.148 200.064 57.4414C200.064 57.7348 200.302 57.9726 200.596 57.9726Z" fill="#E373FF"/>
<path d="M170.08 47.4003C170.373 47.4003 170.611 47.1625 170.611 46.8691C170.611 46.5757 170.373 46.3379 170.08 46.3379C169.787 46.3379 169.549 46.5757 169.549 46.8691C169.549 47.1625 169.787 47.4003 170.08 47.4003Z" fill="#E373FF"/>
<path d="M188.385 43.8788C188.678 43.8788 188.916 43.641 188.916 43.3476C188.916 43.0542 188.678 42.8164 188.385 42.8164C188.091 42.8164 187.854 43.0542 187.854 43.3476C187.854 43.641 188.091 43.8788 188.385 43.8788Z" fill="#E373FF"/>
<path d="M194.486 47.4003C194.78 47.4003 195.018 47.1625 195.018 46.8691C195.018 46.5757 194.78 46.3379 194.486 46.3379C194.193 46.3379 193.955 46.5757 193.955 46.8691C193.955 47.1625 194.193 47.4003 194.486 47.4003Z" fill="#E373FF"/>
<path d="M200.596 50.9296C200.889 50.9296 201.127 50.6918 201.127 50.3984C201.127 50.105 200.889 49.8672 200.596 49.8672C200.302 49.8672 200.064 50.105 200.064 50.3984C200.064 50.6918 200.302 50.9296 200.596 50.9296Z" fill="#E373FF"/>
<path d="M206.697 54.4511C206.991 54.4511 207.228 54.2133 207.228 53.9199C207.228 53.6265 206.991 53.3887 206.697 53.3887C206.404 53.3887 206.166 53.6265 206.166 53.9199C206.166 54.2133 206.404 54.4511 206.697 54.4511Z" fill="#E373FF"/>
<path d="M188.385 72.0644C188.678 72.0644 188.916 71.8266 188.916 71.5332C188.916 71.2398 188.678 71.002 188.385 71.002C188.091 71.002 187.854 71.2398 187.854 71.5332C187.854 71.8266 188.091 72.0644 188.385 72.0644Z" fill="#E373FF"/>
<path d="M182.283 75.5937C182.577 75.5937 182.814 75.3558 182.814 75.0625C182.814 74.7691 182.577 74.5312 182.283 74.5312C181.99 74.5312 181.752 74.7691 181.752 75.0625C181.752 75.3558 181.99 75.5937 182.283 75.5937Z" fill="#E373FF"/>
<path d="M194.486 68.5429C194.78 68.5429 195.018 68.3051 195.018 68.0117C195.018 67.7183 194.78 67.4805 194.486 67.4805C194.193 67.4805 193.955 67.7183 193.955 68.0117C193.955 68.3051 194.193 68.5429 194.486 68.5429Z" fill="#E373FF"/>
<path d="M176.182 79.1152C176.475 79.1152 176.713 78.8773 176.713 78.5839C176.713 78.2906 176.475 78.0527 176.182 78.0527C175.888 78.0527 175.65 78.2906 175.65 78.5839C175.65 78.8773 175.888 79.1152 176.182 79.1152Z" fill="#E373FF"/>
<path d="M170.08 82.6347C170.373 82.6347 170.611 82.3969 170.611 82.1035C170.611 81.8101 170.373 81.5723 170.08 81.5723C169.787 81.5723 169.549 81.8101 169.549 82.1035C169.549 82.3969 169.787 82.6347 170.08 82.6347Z" fill="#E373FF"/>
<path d="M200.596 65.0214C200.889 65.0214 201.127 64.7836 201.127 64.4902C201.127 64.1968 200.889 63.959 200.596 63.959C200.302 63.959 200.064 64.1968 200.064 64.4902C200.064 64.7836 200.302 65.0214 200.596 65.0214Z" fill="#E373FF"/>
<path d="M206.697 61.4999C206.991 61.4999 207.228 61.2621 207.228 60.9687C207.228 60.6753 206.991 60.4375 206.697 60.4375C206.404 60.4375 206.166 60.6753 206.166 60.9687C206.166 61.2621 206.404 61.4999 206.697 61.4999Z" fill="#E373FF"/>
<path d="M212.799 57.9726C213.092 57.9726 213.33 57.7348 213.33 57.4414C213.33 57.148 213.092 56.9102 212.799 56.9102C212.505 56.9102 212.268 57.148 212.268 57.4414C212.268 57.7348 212.505 57.9726 212.799 57.9726Z" fill="#E373FF"/>
<path d="M194.486 75.5937C194.78 75.5937 195.018 75.3558 195.018 75.0625C195.018 74.7691 194.78 74.5312 194.486 74.5312C194.193 74.5312 193.955 74.7691 193.955 75.0625C193.955 75.3558 194.193 75.5937 194.486 75.5937Z" fill="#E373FF"/>
<path d="M188.385 79.1152C188.678 79.1152 188.916 78.8773 188.916 78.5839C188.916 78.2906 188.678 78.0527 188.385 78.0527C188.091 78.0527 187.854 78.2906 187.854 78.5839C187.854 78.8773 188.091 79.1152 188.385 79.1152Z" fill="#E373FF"/>
<path d="M200.596 72.0644C200.889 72.0644 201.127 71.8266 201.127 71.5332C201.127 71.2398 200.889 71.002 200.596 71.002C200.302 71.002 200.064 71.2398 200.064 71.5332C200.064 71.8266 200.302 72.0644 200.596 72.0644Z" fill="#E373FF"/>
<path d="M182.283 82.6347C182.577 82.6347 182.814 82.3969 182.814 82.1035C182.814 81.8101 182.577 81.5723 182.283 81.5723C181.99 81.5723 181.752 81.8101 181.752 82.1035C181.752 82.3969 181.99 82.6347 182.283 82.6347Z" fill="#E373FF"/>
<path d="M176.182 86.1562C176.475 86.1562 176.713 85.9183 176.713 85.625C176.713 85.3316 176.475 85.0938 176.182 85.0938C175.888 85.0938 175.65 85.3316 175.65 85.625C175.65 85.9183 175.888 86.1562 176.182 86.1562Z" fill="#E373FF"/>
<path d="M206.697 68.5429C206.991 68.5429 207.228 68.3051 207.228 68.0117C207.228 67.7183 206.991 67.4805 206.697 67.4805C206.404 67.4805 206.166 67.7183 206.166 68.0117C206.166 68.3051 206.404 68.5429 206.697 68.5429Z" fill="#E373FF"/>
<path d="M212.799 65.0214C213.092 65.0214 213.33 64.7836 213.33 64.4902C213.33 64.1968 213.092 63.959 212.799 63.959C212.505 63.959 212.268 64.1968 212.268 64.4902C212.268 64.7836 212.505 65.0214 212.799 65.0214Z" fill="#E373FF"/>
<path d="M218.9 61.4999C219.194 61.4999 219.432 61.2621 219.432 60.9687C219.432 60.6753 219.194 60.4375 218.9 60.4375C218.607 60.4375 218.369 60.6753 218.369 60.9687C218.369 61.2621 218.607 61.4999 218.9 61.4999Z" fill="#E373FF"/>
<path d="M200.596 79.1152C200.889 79.1152 201.127 78.8773 201.127 78.5839C201.127 78.2906 200.889 78.0527 200.596 78.0527C200.302 78.0527 200.064 78.2906 200.064 78.5839C200.064 78.8773 200.302 79.1152 200.596 79.1152Z" fill="#E373FF"/>
<path d="M194.486 82.6347C194.78 82.6347 195.018 82.3969 195.018 82.1035C195.018 81.8101 194.78 81.5723 194.486 81.5723C194.193 81.5723 193.955 81.8101 193.955 82.1035C193.955 82.3969 194.193 82.6347 194.486 82.6347Z" fill="#E373FF"/>
<path d="M206.697 75.5937C206.991 75.5937 207.228 75.3558 207.228 75.0625C207.228 74.7691 206.991 74.5312 206.697 74.5312C206.404 74.5312 206.166 74.7691 206.166 75.0625C206.166 75.3558 206.404 75.5937 206.697 75.5937Z" fill="#E373FF"/>
<path d="M188.385 86.1562C188.678 86.1562 188.916 85.9183 188.916 85.625C188.916 85.3316 188.678 85.0938 188.385 85.0938C188.091 85.0938 187.854 85.3316 187.854 85.625C187.854 85.9183 188.091 86.1562 188.385 86.1562Z" fill="#E373FF"/>
<path d="M182.283 89.6855C182.577 89.6855 182.814 89.4476 182.814 89.1543C182.814 88.8609 182.577 88.623 182.283 88.623C181.99 88.623 181.752 88.8609 181.752 89.1543C181.752 89.4476 181.99 89.6855 182.283 89.6855Z" fill="#E373FF"/>
<path d="M212.799 72.0644C213.092 72.0644 213.33 71.8266 213.33 71.5332C213.33 71.2398 213.092 71.002 212.799 71.002C212.505 71.002 212.268 71.2398 212.268 71.5332C212.268 71.8266 212.505 72.0644 212.799 72.0644Z" fill="#E373FF"/>
<path d="M218.9 68.5429C219.194 68.5429 219.432 68.3051 219.432 68.0117C219.432 67.7183 219.194 67.4805 218.9 67.4805C218.607 67.4805 218.369 67.7183 218.369 68.0117C218.369 68.3051 218.607 68.5429 218.9 68.5429Z" fill="#E373FF"/>
<path d="M225.002 65.0214C225.295 65.0214 225.533 64.7836 225.533 64.4902C225.533 64.1968 225.295 63.959 225.002 63.959C224.709 63.959 224.471 64.1968 224.471 64.4902C224.471 64.7836 224.709 65.0214 225.002 65.0214Z" fill="#E373FF"/>
<path d="M206.697 82.6347C206.991 82.6347 207.228 82.3969 207.228 82.1035C207.228 81.8101 206.991 81.5723 206.697 81.5723C206.404 81.5723 206.166 81.8101 206.166 82.1035C206.166 82.3969 206.404 82.6347 206.697 82.6347Z" fill="#E373FF"/>
<path d="M200.596 86.1562C200.889 86.1562 201.127 85.9183 201.127 85.625C201.127 85.3316 200.889 85.0938 200.596 85.0938C200.302 85.0938 200.064 85.3316 200.064 85.625C200.064 85.9183 200.302 86.1562 200.596 86.1562Z" fill="#E373FF"/>
<path d="M212.799 79.1152C213.092 79.1152 213.33 78.8773 213.33 78.5839C213.33 78.2906 213.092 78.0527 212.799 78.0527C212.505 78.0527 212.268 78.2906 212.268 78.5839C212.268 78.8773 212.505 79.1152 212.799 79.1152Z" fill="#E373FF"/>
<path d="M194.486 89.6855C194.78 89.6855 195.018 89.4476 195.018 89.1543C195.018 88.8609 194.78 88.623 194.486 88.623C194.193 88.623 193.955 88.8609 193.955 89.1543C193.955 89.4476 194.193 89.6855 194.486 89.6855Z" fill="#E373FF"/>
<path d="M188.385 93.207C188.678 93.207 188.916 92.9691 188.916 92.6758C188.916 92.3824 188.678 92.1445 188.385 92.1445C188.091 92.1445 187.854 92.3824 187.854 92.6758C187.854 92.9691 188.091 93.207 188.385 93.207Z" fill="#E373FF"/>
<path d="M218.9 75.5937C219.194 75.5937 219.432 75.3558 219.432 75.0625C219.432 74.7691 219.194 74.5312 218.9 74.5312C218.607 74.5312 218.369 74.7691 218.369 75.0625C218.369 75.3558 218.607 75.5937 218.9 75.5937Z" fill="#E373FF"/>
<path d="M225.002 72.0644C225.295 72.0644 225.533 71.8266 225.533 71.5332C225.533 71.2398 225.295 71.002 225.002 71.002C224.709 71.002 224.471 71.2398 224.471 71.5332C224.471 71.8266 224.709 72.0644 225.002 72.0644Z" fill="#E373FF"/>
<path d="M231.102 68.5429C231.395 68.5429 231.633 68.3051 231.633 68.0117C231.633 67.7183 231.395 67.4805 231.102 67.4805C230.808 67.4805 230.57 67.7183 230.57 68.0117C230.57 68.3051 230.808 68.5429 231.102 68.5429Z" fill="#E373FF"/>
<path d="M212.799 86.1562C213.092 86.1562 213.33 85.9183 213.33 85.625C213.33 85.3316 213.092 85.0938 212.799 85.0938C212.505 85.0938 212.268 85.3316 212.268 85.625C212.268 85.9183 212.505 86.1562 212.799 86.1562Z" fill="#E373FF"/>
<path d="M206.697 89.6855C206.991 89.6855 207.228 89.4476 207.228 89.1543C207.228 88.8609 206.991 88.623 206.697 88.623C206.404 88.623 206.166 88.8609 206.166 89.1543C206.166 89.4476 206.404 89.6855 206.697 89.6855Z" fill="#E373FF"/>
<path d="M218.9 82.6347C219.194 82.6347 219.432 82.3969 219.432 82.1035C219.432 81.8101 219.194 81.5723 218.9 81.5723C218.607 81.5723 218.369 81.8101 218.369 82.1035C218.369 82.3969 218.607 82.6347 218.9 82.6347Z" fill="#E373FF"/>
<path d="M200.596 93.207C200.889 93.207 201.127 92.9691 201.127 92.6758C201.127 92.3824 200.889 92.1445 200.596 92.1445C200.302 92.1445 200.064 92.3824 200.064 92.6758C200.064 92.9691 200.302 93.207 200.596 93.207Z" fill="#E373FF"/>
<path d="M194.486 96.7285C194.78 96.7285 195.018 96.4906 195.018 96.1972C195.018 95.9039 194.78 95.666 194.486 95.666C194.193 95.666 193.955 95.9039 193.955 96.1972C193.955 96.4906 194.193 96.7285 194.486 96.7285Z" fill="#E373FF"/>
<path d="M225.002 79.1152C225.295 79.1152 225.533 78.8773 225.533 78.5839C225.533 78.2906 225.295 78.0527 225.002 78.0527C224.709 78.0527 224.471 78.2906 224.471 78.5839C224.471 78.8773 224.709 79.1152 225.002 79.1152Z" fill="#E373FF"/>
<path d="M231.102 75.5937C231.395 75.5937 231.633 75.3558 231.633 75.0625C231.633 74.7691 231.395 74.5312 231.102 74.5312C230.808 74.5312 230.57 74.7691 230.57 75.0625C230.57 75.3558 230.808 75.5937 231.102 75.5937Z" fill="#E373FF"/>
<path d="M237.203 72.0644C237.496 72.0644 237.734 71.8266 237.734 71.5332C237.734 71.2398 237.496 71.002 237.203 71.002C236.91 71.002 236.672 71.2398 236.672 71.5332C236.672 71.8266 236.91 72.0644 237.203 72.0644Z" fill="#E373FF"/>
<path d="M218.9 89.6855C219.194 89.6855 219.432 89.4476 219.432 89.1543C219.432 88.8609 219.194 88.623 218.9 88.623C218.607 88.623 218.369 88.8609 218.369 89.1543C218.369 89.4476 218.607 89.6855 218.9 89.6855Z" fill="#E373FF"/>
<path d="M212.799 93.207C213.092 93.207 213.33 92.9691 213.33 92.6758C213.33 92.3824 213.092 92.1445 212.799 92.1445C212.505 92.1445 212.268 92.3824 212.268 92.6758C212.268 92.9691 212.505 93.207 212.799 93.207Z" fill="#E373FF"/>
<path d="M225.002 86.1562C225.295 86.1562 225.533 85.9183 225.533 85.625C225.533 85.3316 225.295 85.0938 225.002 85.0938C224.709 85.0938 224.471 85.3316 224.471 85.625C224.471 85.9183 224.709 86.1562 225.002 86.1562Z" fill="#E373FF"/>
<path d="M206.697 96.7285C206.991 96.7285 207.228 96.4906 207.228 96.1972C207.228 95.9039 206.991 95.666 206.697 95.666C206.404 95.666 206.166 95.9039 206.166 96.1972C206.166 96.4906 206.404 96.7285 206.697 96.7285Z" fill="#E373FF"/>
<path d="M200.596 100.256C200.889 100.256 201.127 100.018 201.127 99.7246C201.127 99.4312 200.889 99.1934 200.596 99.1934C200.302 99.1934 200.064 99.4312 200.064 99.7246C200.064 100.018 200.302 100.256 200.596 100.256Z" fill="#E373FF"/>
<path d="M231.102 82.6347C231.395 82.6347 231.633 82.3969 231.633 82.1035C231.633 81.8101 231.395 81.5723 231.102 81.5723C230.808 81.5723 230.57 81.8101 230.57 82.1035C230.57 82.3969 230.808 82.6347 231.102 82.6347Z" fill="#E373FF"/>
<path d="M237.203 79.1152C237.496 79.1152 237.734 78.8773 237.734 78.5839C237.734 78.2906 237.496 78.0527 237.203 78.0527C236.91 78.0527 236.672 78.2906 236.672 78.5839C236.672 78.8773 236.91 79.1152 237.203 79.1152Z" fill="#E373FF"/>
<path d="M243.312 75.5937C243.606 75.5937 243.844 75.3558 243.844 75.0625C243.844 74.7691 243.606 74.5312 243.312 74.5312C243.019 74.5312 242.781 74.7691 242.781 75.0625C242.781 75.3558 243.019 75.5937 243.312 75.5937Z" fill="#E373FF"/>
<path d="M225.002 93.207C225.295 93.207 225.533 92.9691 225.533 92.6758C225.533 92.3824 225.295 92.1445 225.002 92.1445C224.709 92.1445 224.471 92.3824 224.471 92.6758C224.471 92.9691 224.709 93.207 225.002 93.207Z" fill="#E373FF"/>
<path d="M218.9 96.7285C219.194 96.7285 219.432 96.4906 219.432 96.1972C219.432 95.9039 219.194 95.666 218.9 95.666C218.607 95.666 218.369 95.9039 218.369 96.1972C218.369 96.4906 218.607 96.7285 218.9 96.7285Z" fill="#E373FF"/>
<path d="M231.102 89.6855C231.395 89.6855 231.633 89.4476 231.633 89.1543C231.633 88.8609 231.395 88.623 231.102 88.623C230.808 88.623 230.57 88.8609 230.57 89.1543C230.57 89.4476 230.808 89.6855 231.102 89.6855Z" fill="#E373FF"/>
<path d="M212.799 100.256C213.092 100.256 213.33 100.018 213.33 99.7246C213.33 99.4312 213.092 99.1934 212.799 99.1934C212.505 99.1934 212.268 99.4312 212.268 99.7246C212.268 100.018 212.505 100.256 212.799 100.256Z" fill="#E373FF"/>
<path d="M206.697 103.777C206.991 103.777 207.228 103.539 207.228 103.246C207.228 102.953 206.991 102.715 206.697 102.715C206.404 102.715 206.166 102.953 206.166 103.246C206.166 103.539 206.404 103.777 206.697 103.777Z" fill="#E373FF"/>
<path d="M237.203 86.1562C237.496 86.1562 237.734 85.9183 237.734 85.625C237.734 85.3316 237.496 85.0938 237.203 85.0938C236.91 85.0938 236.672 85.3316 236.672 85.625C236.672 85.9183 236.91 86.1562 237.203 86.1562Z" fill="#E373FF"/>
<path d="M243.312 82.6347C243.606 82.6347 243.844 82.3969 243.844 82.1035C243.844 81.8101 243.606 81.5723 243.312 81.5723C243.019 81.5723 242.781 81.8101 242.781 82.1035C242.781 82.3969 243.019 82.6347 243.312 82.6347Z" fill="#E373FF"/>
<path d="M249.414 79.1152C249.707 79.1152 249.945 78.8773 249.945 78.5839C249.945 78.2906 249.707 78.0527 249.414 78.0527C249.121 78.0527 248.883 78.2906 248.883 78.5839C248.883 78.8773 249.121 79.1152 249.414 79.1152Z" fill="#E373FF"/>
<path d="M231.102 96.7285C231.395 96.7285 231.633 96.4906 231.633 96.1972C231.633 95.9039 231.395 95.666 231.102 95.666C230.808 95.666 230.57 95.9039 230.57 96.1972C230.57 96.4906 230.808 96.7285 231.102 96.7285Z" fill="#E373FF"/>
<path d="M225.002 100.256C225.295 100.256 225.533 100.018 225.533 99.7246C225.533 99.4312 225.295 99.1934 225.002 99.1934C224.709 99.1934 224.471 99.4312 224.471 99.7246C224.471 100.018 224.709 100.256 225.002 100.256Z" fill="#E373FF"/>
<path d="M237.203 93.207C237.496 93.207 237.734 92.9691 237.734 92.6758C237.734 92.3824 237.496 92.1445 237.203 92.1445C236.91 92.1445 236.672 92.3824 236.672 92.6758C236.672 92.9691 236.91 93.207 237.203 93.207Z" fill="#E373FF"/>
<path d="M218.9 103.777C219.194 103.777 219.432 103.539 219.432 103.246C219.432 102.953 219.194 102.715 218.9 102.715C218.607 102.715 218.369 102.953 218.369 103.246C218.369 103.539 218.607 103.777 218.9 103.777Z" fill="#E373FF"/>
<path d="M243.312 89.6855C243.606 89.6855 243.844 89.4476 243.844 89.1543C243.844 88.8609 243.606 88.623 243.312 88.623C243.019 88.623 242.781 88.8609 242.781 89.1543C242.781 89.4476 243.019 89.6855 243.312 89.6855Z" fill="#E373FF"/>
<path d="M249.414 86.1562C249.707 86.1562 249.945 85.9183 249.945 85.625C249.945 85.3316 249.707 85.0938 249.414 85.0938C249.121 85.0938 248.883 85.3316 248.883 85.625C248.883 85.9183 249.121 86.1562 249.414 86.1562Z" fill="#E373FF"/>
<path d="M255.516 82.6347C255.809 82.6347 256.047 82.3969 256.047 82.1035C256.047 81.8101 255.809 81.5723 255.516 81.5723C255.222 81.5723 254.984 81.8101 254.984 82.1035C254.984 82.3969 255.222 82.6347 255.516 82.6347Z" fill="#E373FF"/>
<path d="M182.283 40.3573C182.577 40.3573 182.814 40.1195 182.814 39.8261C182.814 39.5328 182.577 39.2949 182.283 39.2949C181.99 39.2949 181.752 39.5328 181.752 39.8261C181.752 40.1195 181.99 40.3573 182.283 40.3573Z" fill="#E373FF"/>
<path d="M151.769 57.9726C152.063 57.9726 152.301 57.7348 152.301 57.4414C152.301 57.148 152.063 56.9102 151.769 56.9102C151.476 56.9102 151.238 57.148 151.238 57.4414C151.238 57.7348 151.476 57.9726 151.769 57.9726Z" fill="#E373FF"/>
<path d="M157.879 61.4999C158.172 61.4999 158.41 61.2621 158.41 60.9687C158.41 60.6753 158.172 60.4375 157.879 60.4375C157.585 60.4375 157.348 60.6753 157.348 60.9687C157.348 61.2621 157.585 61.4999 157.879 61.4999Z" fill="#E373FF"/>
<path d="M145.668 61.4999C145.961 61.4999 146.199 61.2621 146.199 60.9687C146.199 60.6753 145.961 60.4375 145.668 60.4375C145.375 60.4375 145.137 60.6753 145.137 60.9687C145.137 61.2621 145.375 61.4999 145.668 61.4999Z" fill="#E373FF"/>
<path d="M151.769 65.0214C152.063 65.0214 152.301 64.7836 152.301 64.4902C152.301 64.1968 152.063 63.959 151.769 63.959C151.476 63.959 151.238 64.1968 151.238 64.4902C151.238 64.7836 151.476 65.0214 151.769 65.0214Z" fill="#E373FF"/>
<path d="M157.879 68.5429C158.172 68.5429 158.41 68.3051 158.41 68.0117C158.41 67.7183 158.172 67.4805 157.879 67.4805C157.585 67.4805 157.348 67.7183 157.348 68.0117C157.348 68.3051 157.585 68.5429 157.879 68.5429Z" fill="#E373FF"/>
<path d="M145.668 68.5429C145.961 68.5429 146.199 68.3051 146.199 68.0117C146.199 67.7183 145.961 67.4805 145.668 67.4805C145.375 67.4805 145.137 67.7183 145.137 68.0117C145.137 68.3051 145.375 68.5429 145.668 68.5429Z" fill="#E373FF"/>
<path d="M151.769 72.0644C152.063 72.0644 152.301 71.8266 152.301 71.5332C152.301 71.2398 152.063 71.002 151.769 71.002C151.476 71.002 151.238 71.2398 151.238 71.5332C151.238 71.8266 151.476 72.0644 151.769 72.0644Z" fill="#E373FF"/>
<path d="M139.566 65.0214C139.86 65.0214 140.098 64.7836 140.098 64.4902C140.098 64.1968 139.86 63.959 139.566 63.959C139.273 63.959 139.035 64.1968 139.035 64.4902C139.035 64.7836 139.273 65.0214 139.566 65.0214Z" fill="#E373FF"/>
<path d="M157.879 75.5937C158.172 75.5937 158.41 75.3558 158.41 75.0625C158.41 74.7691 158.172 74.5312 157.879 74.5312C157.585 74.5312 157.348 74.7691 157.348 75.0625C157.348 75.3558 157.585 75.5937 157.879 75.5937Z" fill="#E373FF"/>
<path d="M145.668 54.4511C145.961 54.4511 146.199 54.2133 146.199 53.9199C146.199 53.6265 145.961 53.3887 145.668 53.3887C145.375 53.3887 145.137 53.6265 145.137 53.9199C145.137 54.2133 145.375 54.4511 145.668 54.4511Z" fill="#E373FF"/>
<path d="M139.566 57.9726C139.86 57.9726 140.098 57.7348 140.098 57.4414C140.098 57.148 139.86 56.9102 139.566 56.9102C139.273 56.9102 139.035 57.148 139.035 57.4414C139.035 57.7348 139.273 57.9726 139.566 57.9726Z" fill="#E373FF"/>
<path d="M157.879 47.4003C158.172 47.4003 158.41 47.1625 158.41 46.8691C158.41 46.5757 158.172 46.3379 157.879 46.3379C157.585 46.3379 157.348 46.5757 157.348 46.8691C157.348 47.1625 157.585 47.4003 157.879 47.4003Z" fill="#E373FF"/>
<path d="M151.769 50.9296C152.063 50.9296 152.301 50.6918 152.301 50.3984C152.301 50.105 152.063 49.8672 151.769 49.8672C151.476 49.8672 151.238 50.105 151.238 50.3984C151.238 50.6918 151.476 50.9296 151.769 50.9296Z" fill="#E373FF"/>
<path d="M163.98 43.8788C164.274 43.8788 164.512 43.641 164.512 43.3476C164.512 43.0542 164.274 42.8164 163.98 42.8164C163.687 42.8164 163.449 43.0542 163.449 43.3476C163.449 43.641 163.687 43.8788 163.98 43.8788Z" fill="#E373FF"/>
<path d="M133.465 61.4999C133.758 61.4999 133.996 61.2621 133.996 60.9687C133.996 60.6753 133.758 60.4375 133.465 60.4375C133.171 60.4375 132.934 60.6753 132.934 60.9687C132.934 61.2621 133.171 61.4999 133.465 61.4999Z" fill="#E373FF"/>
<path d="M145.668 40.3573C145.961 40.3573 146.199 40.1195 146.199 39.8261C146.199 39.5328 145.961 39.2949 145.668 39.2949C145.375 39.2949 145.137 39.5328 145.137 39.8261C145.137 40.1195 145.375 40.3573 145.668 40.3573Z" fill="#E373FF"/>
<path d="M139.566 43.8788C139.86 43.8788 140.098 43.641 140.098 43.3476C140.098 43.0542 139.86 42.8164 139.566 42.8164C139.273 42.8164 139.035 43.0542 139.035 43.3476C139.035 43.641 139.273 43.8788 139.566 43.8788Z" fill="#E373FF"/>
<path d="M133.465 47.4003C133.758 47.4003 133.996 47.1625 133.996 46.8691C133.996 46.5757 133.758 46.3379 133.465 46.3379C133.171 46.3379 132.934 46.5757 132.934 46.8691C132.934 47.1625 133.171 47.4003 133.465 47.4003Z" fill="#E373FF"/>
<path d="M127.363 50.9296C127.657 50.9296 127.894 50.6918 127.894 50.3984C127.894 50.105 127.657 49.8672 127.363 49.8672C127.07 49.8672 126.832 50.105 126.832 50.3984C126.832 50.6918 127.07 50.9296 127.363 50.9296Z" fill="#E373FF"/>
<path d="M145.668 47.4003C145.961 47.4003 146.199 47.1625 146.199 46.8691C146.199 46.5757 145.961 46.3379 145.668 46.3379C145.375 46.3379 145.137 46.5757 145.137 46.8691C145.137 47.1625 145.375 47.4003 145.668 47.4003Z" fill="#E373FF"/>
<path d="M139.566 50.9296C139.86 50.9296 140.098 50.6918 140.098 50.3984C140.098 50.105 139.86 49.8672 139.566 49.8672C139.273 49.8672 139.035 50.105 139.035 50.3984C139.035 50.6918 139.273 50.9296 139.566 50.9296Z" fill="#E373FF"/>
<path d="M151.769 43.8788C152.063 43.8788 152.301 43.641 152.301 43.3476C152.301 43.0542 152.063 42.8164 151.769 42.8164C151.476 42.8164 151.238 43.0542 151.238 43.3476C151.238 43.641 151.476 43.8788 151.769 43.8788Z" fill="#E373FF"/>
<path d="M133.465 54.4511C133.758 54.4511 133.996 54.2133 133.996 53.9199C133.996 53.6265 133.758 53.3887 133.465 53.3887C133.171 53.3887 132.934 53.6265 132.934 53.9199C132.934 54.2133 133.171 54.4511 133.465 54.4511Z" fill="#E373FF"/>
<path d="M127.363 57.9726C127.657 57.9726 127.894 57.7348 127.894 57.4414C127.894 57.148 127.657 56.9102 127.363 56.9102C127.07 56.9102 126.832 57.148 126.832 57.4414C126.832 57.7348 127.07 57.9726 127.363 57.9726Z" fill="#E373FF"/>
<path d="M170.08 40.3573C170.373 40.3573 170.611 40.1195 170.611 39.8261C170.611 39.5328 170.373 39.2949 170.08 39.2949C169.787 39.2949 169.549 39.5328 169.549 39.8261C169.549 40.1195 169.787 40.3573 170.08 40.3573Z" fill="#E373FF"/>
<path d="M157.879 33.3085C158.172 33.3085 158.41 33.0707 158.41 32.7773C158.41 32.4839 158.172 32.2461 157.879 32.2461C157.585 32.2461 157.348 32.4839 157.348 32.7773C157.348 33.0707 157.585 33.3085 157.879 33.3085Z" fill="#E373FF"/>
<path d="M151.769 36.8378C152.063 36.8378 152.301 36.6 152.301 36.3066C152.301 36.0132 152.063 35.7754 151.769 35.7754C151.476 35.7754 151.238 36.0132 151.238 36.3066C151.238 36.6 151.476 36.8378 151.769 36.8378Z" fill="#E373FF"/>
<path d="M157.879 40.3573C158.172 40.3573 158.41 40.1195 158.41 39.8261C158.41 39.5328 158.172 39.2949 157.879 39.2949C157.585 39.2949 157.348 39.5328 157.348 39.8261C157.348 40.1195 157.585 40.3573 157.879 40.3573Z" fill="#E373FF"/>
<path d="M163.98 36.8378C164.274 36.8378 164.512 36.6 164.512 36.3066C164.512 36.0132 164.274 35.7754 163.98 35.7754C163.687 35.7754 163.449 36.0132 163.449 36.3066C163.449 36.6 163.687 36.8378 163.98 36.8378Z" fill="#E373FF"/>
<path d="M176.182 36.8378C176.475 36.8378 176.713 36.6 176.713 36.3066C176.713 36.0132 176.475 35.7754 176.182 35.7754C175.888 35.7754 175.65 36.0132 175.65 36.3066C175.65 36.6 175.888 36.8378 176.182 36.8378Z" fill="#E373FF"/>
<path d="M163.98 29.787C164.274 29.787 164.512 29.5492 164.512 29.2558C164.512 28.9624 164.274 28.7246 163.98 28.7246C163.687 28.7246 163.449 28.9624 163.449 29.2558C163.449 29.5492 163.687 29.787 163.98 29.787Z" fill="#E373FF"/>
<path d="M170.08 33.3085C170.373 33.3085 170.611 33.0707 170.611 32.7773C170.611 32.4839 170.373 32.2461 170.08 32.2461C169.787 32.2461 169.549 32.4839 169.549 32.7773C169.549 33.0707 169.787 33.3085 170.08 33.3085Z" fill="#E373FF"/>
<path d="M121.262 54.4511C121.555 54.4511 121.793 54.2133 121.793 53.9199C121.793 53.6265 121.555 53.3887 121.262 53.3887C120.968 53.3887 120.73 53.6265 120.73 53.9199C120.73 54.2133 120.968 54.4511 121.262 54.4511Z" fill="#E373FF"/>
<path d="M220.941 88.5543C218.422 87.0972 218.414 84.7295 220.911 83.2725C223.408 81.8154 227.475 81.8154 229.987 83.2725L246.978 93.0848C249.498 94.5419 249.505 96.9096 247.009 98.3666C244.512 99.8237 240.444 99.8237 237.925 98.3666L220.934 88.5543H220.941Z" fill="#232323"/>
<path d="M176.578 54.6539C174.058 53.1968 174.051 50.8291 176.548 49.3721C179.044 47.915 183.112 47.915 185.624 49.3721L202.615 59.1844C205.135 60.6415 205.142 63.0092 202.645 64.4662C200.149 65.9233 196.081 65.9233 193.562 64.4662L176.57 54.6539H176.578Z" fill="#232323"/>
<path d="M142.777 79.9781C140.258 78.5211 140.25 76.1534 142.747 74.6963C145.243 73.2393 149.311 73.2393 151.823 74.6963L181.89 92.0595C184.409 93.5165 184.417 95.8842 181.92 97.3413C179.423 98.7983 175.356 98.7983 172.836 97.3413L142.77 79.9781H142.777Z" fill="#232323"/>
<path d="M98.1092 94.5328C95.5897 93.0758 95.5821 90.708 98.0788 89.251C100.576 87.7939 104.643 87.7939 107.155 89.251L124.146 99.0633C126.666 100.52 126.673 102.888 124.177 104.345C121.68 105.802 117.612 105.802 115.093 104.345L98.1016 94.5328H98.1092Z" fill="#232323"/>
<path d="M165.574 120.427C163.055 118.97 163.047 116.603 165.544 115.146C168.04 113.688 172.108 113.688 174.62 115.146L191.611 124.958C194.131 126.415 194.138 128.783 191.642 130.24C189.145 131.697 185.077 131.697 182.558 130.24L165.566 120.427H165.574Z" fill="#232323"/>
<path d="M187.535 48.2647C189.326 49.3044 190.214 50.6628 190.214 52.0211C190.214 53.3795 189.334 54.7152 187.573 55.7397C184.037 57.8038 178.277 57.8038 174.718 55.7397C172.927 54.7 172.039 53.3416 172.039 51.9832C172.039 50.6248 172.919 49.2892 174.68 48.2571C178.216 46.1929 183.969 46.1929 187.528 48.2571L187.535 48.2647Z" fill="#6A36CA"/>
<path d="M176.608 25.4912C179.127 24.0342 183.187 24.0342 185.684 25.4912C186.936 26.2198 187.559 27.1759 187.551 28.1321V52.0141C187.551 52.9703 186.914 53.9265 185.654 54.655C183.134 56.112 179.074 56.112 176.57 54.655C175.318 53.9265 174.703 52.9703 174.703 52.0141V28.1321C174.703 27.1759 175.341 26.2198 176.6 25.4912H176.608Z" fill="#9B66FF"/>
<path d="M185.684 25.4912C188.204 26.9483 188.211 29.316 185.714 30.773C183.218 32.2301 179.15 32.2301 176.631 30.773C174.111 29.316 174.104 26.9483 176.6 25.4912C179.097 24.0342 183.165 24.0342 185.677 25.4912H185.684Z" fill="#666BFF"/>
<path d="M174.742 28.1309C174.742 29.087 175.379 30.0432 176.639 30.7718C177.883 31.4927 179.507 31.857 181.139 31.8646V55.7465C179.492 55.7465 177.838 55.3823 176.586 54.6537C175.333 53.9252 174.719 52.969 174.719 52.0128V28.1309H174.749H174.742Z" fill="#232323"/>
<path d="M174.742 28.1309C174.742 29.087 175.379 30.0432 176.639 30.7718C177.883 31.4927 179.507 31.857 181.139 31.8646V55.7465C179.492 55.7465 177.838 55.3823 176.586 54.6537C175.333 53.9252 174.719 52.969 174.719 52.0128V28.1309H174.749H174.742Z" fill="url(#paint2_linear_1287_8718)"/>
<path d="M176.608 1.09279C179.127 -0.364263 183.187 -0.364263 185.684 1.09279C186.936 1.82131 187.559 2.7775 187.551 3.73369V28.1317C187.551 29.0879 186.914 30.0441 185.654 30.7726C183.134 32.2296 179.074 32.2296 176.57 30.7726C175.318 30.0441 174.703 29.0879 174.703 28.1317V3.73369C174.703 2.7775 175.341 1.82131 176.6 1.09279H176.608Z" fill="#232323"/>
<path d="M176.608 1.09279C179.127 -0.364263 183.187 -0.364263 185.684 1.09279C186.936 1.82131 187.559 2.7775 187.551 3.73369V28.1317C187.551 29.0879 186.914 30.0441 185.654 30.7726C183.134 32.2296 179.074 32.2296 176.57 30.7726C175.318 30.0441 174.703 29.0879 174.703 28.1317V3.73369C174.703 2.7775 175.341 1.82131 176.6 1.09279H176.608Z" fill="url(#paint3_linear_1287_8718)"/>
<path d="M185.684 1.09279C188.204 2.54984 188.211 4.91754 185.714 6.37459C183.218 7.83165 179.15 7.83165 176.631 6.37459C174.111 4.91754 174.104 2.54984 176.6 1.09279C179.097 -0.364263 183.165 -0.364263 185.677 1.09279H185.684Z" fill="#B48CFF"/>
<path d="M174.742 3.73438C174.742 4.69056 175.379 5.64675 176.639 6.37528C177.883 7.09621 179.507 7.46048 181.139 7.46807V31.8737C179.492 31.8737 177.838 31.5094 176.586 30.7809C175.333 30.0523 174.719 29.0962 174.719 28.14V3.74197H174.749L174.742 3.73438Z" fill="#9B66FF"/>
<path d="M207.957 83.9854L169.672 79.7812" stroke="#7D78FF" stroke-width="0.75888" stroke-linecap="round" stroke-linejoin="round"/>
<path d="M64.9531 70.4629L102.95 92.1441L128.084 83.7585" stroke="url(#paint4_linear_1287_8718)" stroke-width="0.75888" stroke-linecap="round" stroke-linejoin="round"/>
<path d="M238.137 93.2051L251.956 101.181" stroke="#7D78FF" stroke-width="0.75888" stroke-linecap="round" stroke-linejoin="round"/>
<path d="M238.054 78.5746C241.56 80.6084 243.313 83.2721 243.313 85.9358C243.313 88.5994 241.59 91.2176 238.137 93.2286C231.201 97.2735 219.924 97.281 212.943 93.2286C209.437 91.1948 207.684 88.5311 207.684 85.8751C207.684 83.219 209.414 80.5933 212.867 78.5746C219.795 74.5298 231.072 74.5298 238.054 78.5746Z" stroke="#7D78FF" stroke-width="0.75888" stroke-linecap="round" stroke-linejoin="round"/>
<path d="M162.993 68.1853C167.364 70.72 169.549 74.0439 169.549 77.3678C169.549 80.6916 167.402 83.9548 163.091 86.4667C154.44 91.5133 140.37 91.5209 131.666 86.4667C127.295 83.9321 125.109 80.6082 125.109 77.2919C125.109 73.9756 127.265 70.7048 131.575 68.1853C140.219 63.1388 154.281 63.1388 162.993 68.1853Z" stroke="#E373FF" stroke-width="0.75888" stroke-linecap="round" stroke-linejoin="round"/>
<path d="M153.713 73.6047C155.496 74.6368 156.384 75.9952 156.384 77.346C156.384 78.6968 155.504 80.0324 153.751 81.0493C150.222 83.1059 144.492 83.1059 140.941 81.0493C139.157 80.0172 138.27 78.6589 138.27 77.308C138.27 75.9572 139.15 74.6216 140.903 73.5971C144.424 71.5405 150.161 71.5405 153.705 73.5971L153.713 73.6047Z" fill="#E373FF"/>
<path d="M142.807 7.80177C145.327 6.34472 149.387 6.34472 151.883 7.80177C153.135 8.5303 153.758 9.48649 153.75 10.4427V77.338C153.75 78.2942 153.113 79.2504 151.853 79.9789C149.333 81.4359 145.273 81.4359 142.769 79.9789C141.517 79.2504 140.902 78.2942 140.902 77.338V10.4427C140.902 9.48649 141.54 8.5303 142.8 7.80177H142.807Z" fill="#E373FF"/>
<path d="M151.883 7.80177C154.403 9.25882 154.41 11.6265 151.914 13.0836C149.417 14.5406 145.349 14.5406 142.83 13.0836C140.31 11.6265 140.303 9.25882 142.8 7.80177C145.296 6.34472 149.364 6.34472 151.876 7.80177H151.883Z" fill="#EDA5FF"/>
<path d="M140.933 10.4414C140.933 11.3976 141.57 12.3538 142.83 13.0823C144.075 13.8032 145.699 14.1675 147.33 14.1751V81.078C145.684 81.078 144.029 80.7137 142.777 79.9852C141.525 79.2567 140.91 78.3005 140.91 77.3443V10.449H140.941L140.933 10.4414Z" fill="#232323"/>
<path d="M140.933 10.4414C140.933 11.3976 141.57 12.3538 142.83 13.0823C144.075 13.8032 145.699 14.1675 147.33 14.1751V81.078C145.684 81.078 144.029 80.7137 142.777 79.9852C141.525 79.2567 140.91 78.3005 140.91 77.3443V10.449H140.941L140.933 10.4414Z" fill="url(#paint5_linear_1287_8718)"/>
<path d="M176.623 113.985C178.437 115.04 179.34 116.413 179.34 117.794C179.34 119.175 178.444 120.526 176.661 121.566C173.071 123.66 167.236 123.66 163.631 121.566C161.817 120.519 160.914 119.138 160.914 117.756C160.914 116.375 161.81 115.024 163.593 113.977C167.175 111.883 173.011 111.883 176.623 113.977V113.985Z" fill="#E373FF"/>
<path d="M165.604 69.126C168.123 67.6689 172.184 67.6689 174.68 69.126C175.932 69.8545 176.555 70.8107 176.547 71.7669V117.785C176.547 118.742 175.91 119.698 174.65 120.426C172.13 121.883 168.07 121.883 165.566 120.426C164.314 119.698 163.699 118.742 163.699 117.785V71.7669C163.699 70.8107 164.337 69.8545 165.596 69.126H165.604Z" fill="#E373FF"/>
<path d="M174.482 69.4547L174.57 69.506H174.576C175.705 70.185 176.193 71.0135 176.196 71.7688C176.2 72.5425 175.697 73.3922 174.519 74.0796C173.343 74.7662 171.772 75.1206 170.177 75.1206C168.583 75.1206 167.006 74.7662 165.817 74.0789C164.627 73.3906 164.114 72.5394 164.11 71.765C164.107 70.9913 164.61 70.1416 165.788 69.4542C166.964 68.7676 168.535 68.4132 170.129 68.4132C171.722 68.4132 173.297 68.7676 174.482 69.4547Z" fill="#232323" stroke="#E373FF" stroke-width="0.76"/>
<path d="M163.738 71.7676C163.738 72.7238 164.375 73.68 165.635 74.4085C166.879 75.1294 168.503 75.4937 170.135 75.5013V121.52C168.488 121.52 166.834 121.156 165.582 120.427C164.33 119.698 163.715 118.742 163.715 117.786V71.7676H163.745H163.738Z" fill="#232323"/>
<path d="M163.738 71.7676C163.738 72.7238 164.375 73.68 165.635 74.4085C166.879 75.1294 168.503 75.4937 170.135 75.5013V121.52C168.488 121.52 166.834 121.156 165.582 120.427C164.33 119.698 163.715 118.742 163.715 117.786V71.7676H163.745H163.738Z" fill="url(#paint6_linear_1287_8718)"/>
<path d="M165.604 47.4385C168.123 45.9814 172.184 45.9814 174.68 47.4385C175.932 48.167 176.555 49.1232 176.547 50.0794V66.8886C176.547 67.8448 175.91 68.801 174.65 69.5295C172.13 70.9866 168.07 70.9866 165.566 69.5295C164.314 68.801 163.699 67.8448 163.699 66.8886V50.0794C163.699 49.1232 164.337 48.167 165.596 47.4385H165.604Z" fill="#232323"/>
<path d="M165.604 47.4385C168.123 45.9814 172.184 45.9814 174.68 47.4385C175.932 48.167 176.555 49.1232 176.547 50.0794V66.8886C176.547 67.8448 175.91 68.801 174.65 69.5295C172.13 70.9866 168.07 70.9866 165.566 69.5295C164.314 68.801 163.699 67.8448 163.699 66.8886V50.0794C163.699 49.1232 164.337 48.167 165.596 47.4385H165.604Z" fill="url(#paint7_linear_1287_8718)"/>
<path d="M174.68 47.4385C177.2 48.8955 177.207 51.2632 174.711 52.7203C172.214 54.1773 168.146 54.1773 165.627 52.7203C163.107 51.2632 163.1 48.8955 165.596 47.4385C168.093 45.9814 172.161 45.9814 174.673 47.4385H174.68Z" fill="#EDA5FF"/>
<path d="M163.738 50.0781C163.738 51.0343 164.375 51.9905 165.635 52.719C166.879 53.44 168.503 53.8042 170.135 53.8118V70.6286C168.488 70.6286 166.834 70.2643 165.582 69.5358C164.33 68.8073 163.715 67.8511 163.715 66.8949V50.0857H163.745L163.738 50.0781Z" fill="#E373FF"/>
<path d="M232.028 82.0883C233.85 83.1431 234.76 84.5319 234.76 85.9131C234.76 87.2942 233.865 88.6602 232.066 89.7075C228.462 91.8096 222.588 91.8171 218.96 89.7075C217.139 88.6526 216.229 87.2639 216.229 85.8827C216.229 84.5015 217.124 83.1355 218.923 82.0883C222.527 79.9862 228.393 79.9862 232.028 82.0883Z" fill="#5853DF"/>
<path d="M220.971 37.2529C223.491 35.7959 227.551 35.7959 230.047 37.2529C231.3 37.9815 231.922 38.9377 231.914 39.8938V85.9124C231.914 86.8685 231.277 87.8247 230.017 88.5533C227.498 90.0103 223.438 90.0103 220.933 88.5533C219.681 87.8247 219.066 86.8685 219.066 85.9124V39.8938C219.066 38.9377 219.704 37.9815 220.964 37.2529H220.971Z" fill="#7D78FF"/>
<path d="M229.857 37.5816L229.945 37.6329H229.951C231.08 38.3119 231.568 39.1404 231.571 39.8957C231.575 40.6694 231.072 41.5191 229.894 42.2066C228.718 42.8931 227.147 43.2475 225.552 43.2475C223.958 43.2475 222.381 42.8932 221.192 42.2058C220.002 41.5176 219.489 40.6663 219.485 39.892C219.482 39.1183 219.985 38.2686 221.163 37.5811C222.339 36.8946 223.91 36.5402 225.504 36.5402C227.097 36.5402 228.672 36.8945 229.857 37.5816Z" fill="#232323" stroke="#7D78FF" stroke-width="0.76"/>
<path d="M219.105 39.8945C219.105 40.8507 219.742 41.8069 221.002 42.5354C222.247 43.2564 223.871 43.6206 225.502 43.6282V89.6467C223.855 89.6467 222.201 89.2825 220.949 88.5539C219.697 87.8254 219.082 86.8692 219.082 85.913V39.8945H219.112H219.105Z" fill="#232323"/>
<path d="M219.105 39.8945C219.105 40.8507 219.742 41.8069 221.002 42.5354C222.247 43.2564 223.871 43.6206 225.502 43.6282V89.6467C223.855 89.6467 222.201 89.2825 220.949 88.5539C219.697 87.8254 219.082 86.8692 219.082 85.913V39.8945H219.112H219.105Z" fill="url(#paint8_linear_1287_8718)"/>
<path d="M221.01 13.167C223.53 11.71 227.59 11.71 230.086 13.167C231.339 13.8955 231.961 14.8517 231.953 15.8079V25.0283C231.953 25.9845 231.316 26.9407 230.056 27.6692C227.537 29.1263 223.477 29.1263 220.972 27.6692C219.72 26.9407 219.105 25.9845 219.105 25.0283V15.8079C219.105 14.8517 219.743 13.8955 221.003 13.167H221.01Z" fill="#232323"/>
<path d="M221.01 13.167C223.53 11.71 227.59 11.71 230.086 13.167C231.339 13.8955 231.961 14.8517 231.953 15.8079V25.0283C231.953 25.9845 231.316 26.9407 230.056 27.6692C227.537 29.1263 223.477 29.1263 220.972 27.6692C219.72 26.9407 219.105 25.9845 219.105 25.0283V15.8079C219.105 14.8517 219.743 13.8955 221.003 13.167H221.01Z" fill="url(#paint9_linear_1287_8718)"/>
<path d="M230.086 13.167C232.606 14.6241 232.614 16.9918 230.117 18.4488C227.62 19.9059 223.552 19.9059 221.033 18.4488C218.514 16.9918 218.506 14.6241 221.003 13.167C223.499 11.71 227.567 11.71 230.079 13.167H230.086Z" fill="#A4A0FF"/>
<path d="M219.142 15.8066C219.142 16.7628 219.779 17.719 221.039 18.4475C222.284 19.1685 223.908 19.5327 225.539 19.5403V28.7683C223.893 28.7683 222.238 28.4041 220.986 27.6755C219.734 26.947 219.119 25.9908 219.119 25.0346V15.8142H219.15L219.142 15.8066Z" fill="#7D78FF"/>
<path d="M109.029 88.1674C110.804 89.1995 111.692 90.5503 111.692 91.9011C111.692 93.2519 110.82 94.5799 109.066 95.5968C105.553 97.6458 99.8309 97.6534 96.2945 95.5968C94.5188 94.5647 93.6309 93.2139 93.6309 91.8631C93.6309 90.5123 94.5036 89.1843 96.2566 88.1598C99.7702 86.1108 105.485 86.1108 109.029 88.1598V88.1674Z" fill="#5853DF"/>
<path d="M98.1392 69.4151C100.659 67.958 104.719 67.958 107.215 69.4151C108.468 70.1436 109.09 71.0998 109.082 72.056V91.8855C109.082 92.8417 108.445 93.7979 107.185 94.5264C104.666 95.9835 100.606 95.9835 98.1012 94.5264C96.8491 93.7979 96.2344 92.8417 96.2344 91.8855V72.056C96.2344 71.0998 96.8718 70.1436 98.1316 69.4151H98.1392Z" fill="#7D78FF"/>
<path d="M107.215 69.4151C109.735 70.8721 109.742 73.2398 107.246 74.6969C104.749 76.1539 100.681 76.1539 98.1619 74.6969C95.6424 73.2398 95.6348 70.8721 98.1315 69.4151C100.628 67.958 104.696 67.958 107.208 69.4151H107.215Z" fill="#666BFF"/>
<path d="M96.265 72.0625C96.265 73.0187 96.9024 73.9749 98.1622 74.7034C99.4067 75.4243 101.031 75.7886 102.662 75.7962V95.6257C101.016 95.6257 99.3612 95.2615 98.109 94.5329C96.8569 93.8044 96.2422 92.8482 96.2422 91.892V72.0625H96.2725H96.265Z" fill="#232323"/>
<path d="M96.265 72.0625C96.265 73.0187 96.9024 73.9749 98.1622 74.7034C99.4067 75.4243 101.031 75.7886 102.662 75.7962V95.6257C101.016 95.6257 99.3612 95.2615 98.109 94.5329C96.8569 93.8044 96.2422 92.8482 96.2422 91.892V72.0625H96.2725H96.265Z" fill="url(#paint10_linear_1287_8718)"/>
<path d="M98.1392 45.7764C100.659 44.3193 104.719 44.3193 107.215 45.7764C108.468 46.5049 109.09 47.4611 109.082 48.4173V72.0564C109.082 73.0126 108.445 73.9688 107.185 74.6973C104.666 76.1544 100.606 76.1544 98.1012 74.6973C96.8491 73.9688 96.2344 73.0126 96.2344 72.0564V48.4173C96.2344 47.4611 96.8718 46.5049 98.1316 45.7764H98.1392Z" fill="#232323"/>
<path d="M98.1392 45.7764C100.659 44.3193 104.719 44.3193 107.215 45.7764C108.468 46.5049 109.09 47.4611 109.082 48.4173V72.0564C109.082 73.0126 108.445 73.9688 107.185 74.6973C104.666 76.1544 100.606 76.1544 98.1012 74.6973C96.8491 73.9688 96.2344 73.0126 96.2344 72.0564V48.4173C96.2344 47.4611 96.8718 46.5049 98.1316 45.7764H98.1392Z" fill="url(#paint11_linear_1287_8718)"/>
<path d="M107.215 45.7764C109.735 47.2334 109.742 49.6011 107.246 51.0582C104.749 52.5152 100.681 52.5152 98.1619 51.0582C95.6424 49.6011 95.6348 47.2334 98.1315 45.7764C100.628 44.3193 104.696 44.3193 107.208 45.7764H107.215Z" fill="#A4A0FF"/>
<path d="M96.265 48.416C96.265 49.3722 96.9024 50.3284 98.1622 51.0569C99.4067 51.7779 101.031 52.1421 102.662 52.1497V75.7964C101.016 75.7964 99.3612 75.4322 98.109 74.7036C96.8569 73.9751 96.2422 73.0189 96.2422 72.0627V48.4236H96.2725L96.265 48.416Z" fill="#7D78FF"/>
<path d="M163.98 151.981V162.302L284.088 92.9555V82.6348L163.98 151.981Z" fill="#E373FF"/>
<path d="M163.979 151.981V162.302L43.8711 92.9555V82.6348L163.979 151.981Z" fill="#232323"/>
<path d="M251.957 101.182L253.194 101.895C255.607 103.291 257.095 105.864 257.095 108.649V167.5C257.095 170.3 258.59 172.881 261.018 174.269L323.102 209.8" stroke="#7D78FF" stroke-width="0.75888" stroke-linecap="round" stroke-linejoin="round"/>
</g>
<defs>
<linearGradient id="paint0_linear_1287_8718" x1="163.794" y1="97.386" x2="163.794" y2="157.886" gradientUnits="userSpaceOnUse">
<stop stop-color="#6B1F7E"/>
<stop offset="1" stop-color="#191919"/>
</linearGradient>
<linearGradient id="paint1_linear_1287_8718" x1="118.636" y1="82.6336" x2="195.45" y2="82.6336" gradientUnits="userSpaceOnUse">
<stop stop-color="#6B1F7E"/>
<stop offset="0.05" stop-color="#6B1F7E" stop-opacity="0.6889"/>
<stop offset="0.13" stop-color="#6B1F7E" stop-opacity="0.3364"/>
<stop offset="0.2" stop-color="#6B1F7E" stop-opacity="0.1369"/>
<stop offset="0.28" stop-color="#6B1F7E" stop-opacity="0.0441"/>
<stop offset="0.34" stop-color="#6B1F7E" stop-opacity="0.01"/>
<stop offset="0.4" stop-color="#6B1F7E" stop-opacity="0.01"/>
<stop offset="0.45" stop-color="#6B1F7E" stop-opacity="0"/>
</linearGradient>
<linearGradient id="paint2_linear_1287_8718" x1="174.408" y1="42.225" x2="181.169" y2="42.225" gradientUnits="userSpaceOnUse">
<stop stop-opacity="0"/>
<stop offset="1" stop-color="#9B66FF"/>
</linearGradient>
<linearGradient id="paint3_linear_1287_8718" x1="181.541" y1="16.263" x2="187.612" y2="16.263" gradientUnits="userSpaceOnUse">
<stop stop-color="#9B66FF"/>
<stop offset="1" stop-opacity="0"/>
</linearGradient>
<linearGradient id="paint4_linear_1287_8718" x1="128.115" y1="83.7053" x2="96.5188" y2="92.1441" gradientUnits="userSpaceOnUse">
<stop stop-color="#E373FF"/>
<stop offset="1" stop-color="#7D78FF"/>
</linearGradient>
<linearGradient id="paint5_linear_1287_8718" x1="141.016" y1="46.5186" x2="147.361" y2="46.4919" gradientUnits="userSpaceOnUse">
<stop stop-opacity="0"/>
<stop offset="1" stop-color="#E373FF"/>
</linearGradient>
<linearGradient id="paint6_linear_1287_8718" x1="163.024" y1="97.1594" x2="170.165" y2="97.1594" gradientUnits="userSpaceOnUse">
<stop stop-opacity="0"/>
<stop offset="1" stop-color="#E373FF"/>
</linearGradient>
<linearGradient id="paint7_linear_1287_8718" x1="170.537" y1="58.7357" x2="176.608" y2="58.7357" gradientUnits="userSpaceOnUse">
<stop stop-color="#E373FF"/>
<stop offset="1" stop-opacity="0"/>
</linearGradient>
<linearGradient id="paint8_linear_1287_8718" x1="219.181" y1="65.2864" x2="225.532" y2="65.2864" gradientUnits="userSpaceOnUse">
<stop stop-opacity="0"/>
<stop offset="1" stop-color="#7D78FF"/>
</linearGradient>
<linearGradient id="paint9_linear_1287_8718" x1="225.943" y1="20.5911" x2="232.014" y2="20.5911" gradientUnits="userSpaceOnUse">
<stop stop-color="#7D78FF"/>
<stop offset="1" stop-opacity="0"/>
</linearGradient>
<linearGradient id="paint10_linear_1287_8718" x1="96.2422" y1="84.0832" x2="102.693" y2="84.0884" gradientUnits="userSpaceOnUse">
<stop stop-opacity="0"/>
<stop offset="1" stop-color="#7D78FF"/>
</linearGradient>
<linearGradient id="paint11_linear_1287_8718" x1="103.072" y1="60.5593" x2="109.143" y2="60.5593" gradientUnits="userSpaceOnUse">
<stop stop-color="#7D78FF"/>
<stop offset="1" stop-opacity="0"/>
</linearGradient>
</defs>
</svg>
